ISO-10303-21;
HEADER;
/* Generated by software containing ST-Developer
 * from STEP Tools, Inc. (www.steptools.com) 
 */

FILE_DESCRIPTION(
/* description */ (''),
/* implementation_level */ '2;1');

FILE_NAME(
/* name */ 'LCD_Upper_Cover.stp',
/* time_stamp */ '2026-08-14T18:49:27+09:00',
/* author */ ('User'),
/* organization */ (''),
/* preprocessor_version */ 'ST-DEVELOPER v20.1',
/* originating_system */ 'Autodesk Inventor 2026',
/* authorisation */ '');

FILE_SCHEMA (('AUTOMOTIVE_DESIGN { 1 0 10303 214 3 1 1 }'));
ENDSEC;

DATA;
#10=MECHANICAL_DESIGN_GEOMETRIC_PRESENTATION_REPRESENTATION('',(#16),#630);
#11=GEOMETRICALLY_BOUNDED_WIREFRAME_SHAPE_REPRESENTATION('',(#12),#629);
#12=GEOMETRIC_CURVE_SET('\X2\C2A4CF00CE58\X0\2',(#626));
#13=SHAPE_REPRESENTATION_RELATIONSHIP('SRR','None',#637,#15);
#14=SHAPE_REPRESENTATION_RELATIONSHIP('SRR','None',#637,#11);
#15=ADVANCED_BREP_SHAPE_REPRESENTATION('',(#17),#629);
#16=STYLED_ITEM('',(#646),#17);
#17=MANIFOLD_SOLID_BREP('\X2\C194B9ACB4DC\X0\1',#380);
#18=CIRCLE('',#413,1.5);
#19=CIRCLE('',#414,1.5);
#20=CIRCLE('',#416,1.5);
#21=CIRCLE('',#417,1.5);
#22=CIRCLE('',#419,1.5);
#23=CIRCLE('',#420,1.5);
#24=CIRCLE('',#422,1.5);
#25=CIRCLE('',#423,1.5);
#26=CYLINDRICAL_SURFACE('',#412,1.5);
#27=CYLINDRICAL_SURFACE('',#415,1.5);
#28=CYLINDRICAL_SURFACE('',#418,1.5);
#29=CYLINDRICAL_SURFACE('',#421,1.5);
#30=FACE_BOUND('',#65,.T.);
#31=FACE_BOUND('',#79,.T.);
#32=FACE_BOUND('',#80,.T.);
#33=FACE_BOUND('',#81,.T.);
#34=FACE_BOUND('',#82,.T.);
#35=FACE_BOUND('',#83,.T.);
#36=FACE_BOUND('',#85,.T.);
#37=FACE_BOUND('',#86,.T.);
#38=FACE_BOUND('',#87,.T.);
#39=FACE_BOUND('',#88,.T.);
#40=FACE_BOUND('',#89,.T.);
#41=FACE_OUTER_BOUND('',#60,.T.);
#42=FACE_OUTER_BOUND('',#61,.T.);
#43=FACE_OUTER_BOUND('',#62,.T.);
#44=FACE_OUTER_BOUND('',#63,.T.);
#45=FACE_OUTER_BOUND('',#64,.T.);
#46=FACE_OUTER_BOUND('',#66,.T.);
#47=FACE_OUTER_BOUND('',#67,.T.);
#48=FACE_OUTER_BOUND('',#68,.T.);
#49=FACE_OUTER_BOUND('',#69,.T.);
#50=FACE_OUTER_BOUND('',#70,.T.);
#51=FACE_OUTER_BOUND('',#71,.T.);
#52=FACE_OUTER_BOUND('',#72,.T.);
#53=FACE_OUTER_BOUND('',#73,.T.);
#54=FACE_OUTER_BOUND('',#74,.T.);
#55=FACE_OUTER_BOUND('',#75,.T.);
#56=FACE_OUTER_BOUND('',#76,.T.);
#57=FACE_OUTER_BOUND('',#77,.T.);
#58=FACE_OUTER_BOUND('',#78,.T.);
#59=FACE_OUTER_BOUND('',#84,.T.);
#60=EDGE_LOOP('',(#250,#251,#252,#253));
#61=EDGE_LOOP('',(#254,#255,#256,#257));
#62=EDGE_LOOP('',(#258,#259,#260,#261));
#63=EDGE_LOOP('',(#262,#263,#264,#265));
#64=EDGE_LOOP('',(#266,#267,#268,#269));
#65=EDGE_LOOP('',(#270,#271,#272,#273));
#66=EDGE_LOOP('',(#274,#275,#276,#277));
#67=EDGE_LOOP('',(#278,#279,#280,#281));
#68=EDGE_LOOP('',(#282,#283,#284,#285));
#69=EDGE_LOOP('',(#286,#287,#288,#289));
#70=EDGE_LOOP('',(#290,#291,#292,#293));
#71=EDGE_LOOP('',(#294,#295,#296,#297));
#72=EDGE_LOOP('',(#298,#299,#300,#301));
#73=EDGE_LOOP('',(#302,#303,#304,#305));
#74=EDGE_LOOP('',(#306,#307,#308,#309));
#75=EDGE_LOOP('',(#310,#311,#312,#313));
#76=EDGE_LOOP('',(#314,#315,#316,#317));
#77=EDGE_LOOP('',(#318,#319,#320,#321));
#78=EDGE_LOOP('',(#322,#323,#324,#325));
#79=EDGE_LOOP('',(#326,#327,#328,#329));
#80=EDGE_LOOP('',(#330));
#81=EDGE_LOOP('',(#331));
#82=EDGE_LOOP('',(#332));
#83=EDGE_LOOP('',(#333));
#84=EDGE_LOOP('',(#334,#335,#336,#337));
#85=EDGE_LOOP('',(#338));
#86=EDGE_LOOP('',(#339));
#87=EDGE_LOOP('',(#340));
#88=EDGE_LOOP('',(#341));
#89=EDGE_LOOP('',(#342,#343,#344,#345));
#90=LINE('',#530,#130);
#91=LINE('',#532,#131);
#92=LINE('',#534,#132);
#93=LINE('',#535,#133);
#94=LINE('',#538,#134);
#95=LINE('',#540,#135);
#96=LINE('',#541,#136);
#97=LINE('',#544,#137);
#98=LINE('',#546,#138);
#99=LINE('',#547,#139);
#100=LINE('',#549,#140);
#101=LINE('',#550,#141);
#102=LINE('',#554,#142);
#103=LINE('',#556,#143);
#104=LINE('',#558,#144);
#105=LINE('',#559,#145);
#106=LINE('',#563,#146);
#107=LINE('',#564,#147);
#108=LINE('',#565,#148);
#109=LINE('',#568,#149);
#110=LINE('',#569,#150);
#111=LINE('',#572,#151);
#112=LINE('',#573,#152);
#113=LINE('',#575,#153);
#114=LINE('',#580,#154);
#115=LINE('',#586,#155);
#116=LINE('',#592,#156);
#117=LINE('',#598,#157);
#118=LINE('',#603,#158);
#119=LINE('',#605,#159);
#120=LINE('',#607,#160);
#121=LINE('',#608,#161);
#122=LINE('',#611,#162);
#123=LINE('',#613,#163);
#124=LINE('',#614,#164);
#125=LINE('',#617,#165);
#126=LINE('',#619,#166);
#127=LINE('',#620,#167);
#128=LINE('',#622,#168);
#129=LINE('',#623,#169);
#130=VECTOR('',#434,10.);
#131=VECTOR('',#435,10.);
#132=VECTOR('',#436,10.);
#133=VECTOR('',#437,10.);
#134=VECTOR('',#440,10.);
#135=VECTOR('',#441,10.);
#136=VECTOR('',#442,10.);
#137=VECTOR('',#445,10.);
#138=VECTOR('',#446,10.);
#139=VECTOR('',#447,10.);
#140=VECTOR('',#450,10.);
#141=VECTOR('',#451,10.);
#142=VECTOR('',#454,10.);
#143=VECTOR('',#455,10.);
#144=VECTOR('',#456,10.);
#145=VECTOR('',#457,10.);
#146=VECTOR('',#460,10.);
#147=VECTOR('',#461,10.);
#148=VECTOR('',#462,10.);
#149=VECTOR('',#465,10.);
#150=VECTOR('',#466,10.);
#151=VECTOR('',#469,10.);
#152=VECTOR('',#470,10.);
#153=VECTOR('',#473,10.);
#154=VECTOR('',#478,1.5);
#155=VECTOR('',#485,1.5);
#156=VECTOR('',#492,1.5);
#157=VECTOR('',#499,1.5);
#158=VECTOR('',#504,10.);
#159=VECTOR('',#505,10.);
#160=VECTOR('',#506,10.);
#161=VECTOR('',#507,10.);
#162=VECTOR('',#510,10.);
#163=VECTOR('',#511,10.);
#164=VECTOR('',#512,10.);
#165=VECTOR('',#515,10.);
#166=VECTOR('',#516,10.);
#167=VECTOR('',#517,10.);
#168=VECTOR('',#520,10.);
#169=VECTOR('',#521,10.);
#170=VERTEX_POINT('',#528);
#171=VERTEX_POINT('',#529);
#172=VERTEX_POINT('',#531);
#173=VERTEX_POINT('',#533);
#174=VERTEX_POINT('',#537);
#175=VERTEX_POINT('',#539);
#176=VERTEX_POINT('',#543);
#177=VERTEX_POINT('',#545);
#178=VERTEX_POINT('',#552);
#179=VERTEX_POINT('',#553);
#180=VERTEX_POINT('',#555);
#181=VERTEX_POINT('',#557);
#182=VERTEX_POINT('',#561);
#183=VERTEX_POINT('',#562);
#184=VERTEX_POINT('',#567);
#185=VERTEX_POINT('',#571);
#186=VERTEX_POINT('',#577);
#187=VERTEX_POINT('',#579);
#188=VERTEX_POINT('',#583);
#189=VERTEX_POINT('',#585);
#190=VERTEX_POINT('',#589);
#191=VERTEX_POINT('',#591);
#192=VERTEX_POINT('',#595);
#193=VERTEX_POINT('',#597);
#194=VERTEX_POINT('',#601);
#195=VERTEX_POINT('',#602);
#196=VERTEX_POINT('',#604);
#197=VERTEX_POINT('',#606);
#198=VERTEX_POINT('',#610);
#199=VERTEX_POINT('',#612);
#200=VERTEX_POINT('',#616);
#201=VERTEX_POINT('',#618);
#202=EDGE_CURVE('',#170,#171,#90,.T.);
#203=EDGE_CURVE('',#170,#172,#91,.T.);
#204=EDGE_CURVE('',#173,#172,#92,.T.);
#205=EDGE_CURVE('',#171,#173,#93,.T.);
#206=EDGE_CURVE('',#171,#174,#94,.T.);
#207=EDGE_CURVE('',#175,#173,#95,.T.);
#208=EDGE_CURVE('',#174,#175,#96,.T.);
#209=EDGE_CURVE('',#174,#176,#97,.T.);
#210=EDGE_CURVE('',#177,#175,#98,.T.);
#211=EDGE_CURVE('',#176,#177,#99,.T.);
#212=EDGE_CURVE('',#176,#170,#100,.T.);
#213=EDGE_CURVE('',#172,#177,#101,.T.);
#214=EDGE_CURVE('',#178,#179,#102,.T.);
#215=EDGE_CURVE('',#179,#180,#103,.T.);
#216=EDGE_CURVE('',#180,#181,#104,.T.);
#217=EDGE_CURVE('',#181,#178,#105,.T.);
#218=EDGE_CURVE('',#182,#183,#106,.T.);
#219=EDGE_CURVE('',#183,#180,#107,.T.);
#220=EDGE_CURVE('',#182,#179,#108,.T.);
#221=EDGE_CURVE('',#184,#182,#109,.T.);
#222=EDGE_CURVE('',#184,#178,#110,.T.);
#223=EDGE_CURVE('',#185,#184,#111,.T.);
#224=EDGE_CURVE('',#185,#181,#112,.T.);
#225=EDGE_CURVE('',#183,#185,#113,.T.);
#226=EDGE_CURVE('',#186,#186,#18,.T.);
#227=EDGE_CURVE('',#186,#187,#114,.T.);
#228=EDGE_CURVE('',#187,#187,#19,.T.);
#229=EDGE_CURVE('',#188,#188,#20,.T.);
#230=EDGE_CURVE('',#188,#189,#115,.T.);
#231=EDGE_CURVE('',#189,#189,#21,.T.);
#232=EDGE_CURVE('',#190,#190,#22,.T.);
#233=EDGE_CURVE('',#190,#191,#116,.T.);
#234=EDGE_CURVE('',#191,#191,#23,.T.);
#235=EDGE_CURVE('',#192,#192,#24,.T.);
#236=EDGE_CURVE('',#192,#193,#117,.T.);
#237=EDGE_CURVE('',#193,#193,#25,.T.);
#238=EDGE_CURVE('',#194,#195,#118,.T.);
#239=EDGE_CURVE('',#195,#196,#119,.T.);
#240=EDGE_CURVE('',#197,#196,#120,.T.);
#241=EDGE_CURVE('',#194,#197,#121,.T.);
#242=EDGE_CURVE('',#198,#194,#122,.T.);
#243=EDGE_CURVE('',#199,#197,#123,.T.);
#244=EDGE_CURVE('',#198,#199,#124,.T.);
#245=EDGE_CURVE('',#200,#198,#125,.T.);
#246=EDGE_CURVE('',#201,#199,#126,.T.);
#247=EDGE_CURVE('',#200,#201,#127,.T.);
#248=EDGE_CURVE('',#195,#200,#128,.T.);
#249=EDGE_CURVE('',#196,#201,#129,.T.);
#250=ORIENTED_EDGE('',*,*,#202,.F.);
#251=ORIENTED_EDGE('',*,*,#203,.T.);
#252=ORIENTED_EDGE('',*,*,#204,.F.);
#253=ORIENTED_EDGE('',*,*,#205,.F.);
#254=ORIENTED_EDGE('',*,*,#206,.F.);
#255=ORIENTED_EDGE('',*,*,#205,.T.);
#256=ORIENTED_EDGE('',*,*,#207,.F.);
#257=ORIENTED_EDGE('',*,*,#208,.F.);
#258=ORIENTED_EDGE('',*,*,#209,.F.);
#259=ORIENTED_EDGE('',*,*,#208,.T.);
#260=ORIENTED_EDGE('',*,*,#210,.F.);
#261=ORIENTED_EDGE('',*,*,#211,.F.);
#262=ORIENTED_EDGE('',*,*,#212,.F.);
#263=ORIENTED_EDGE('',*,*,#211,.T.);
#264=ORIENTED_EDGE('',*,*,#213,.F.);
#265=ORIENTED_EDGE('',*,*,#203,.F.);
#266=ORIENTED_EDGE('',*,*,#213,.T.);
#267=ORIENTED_EDGE('',*,*,#210,.T.);
#268=ORIENTED_EDGE('',*,*,#207,.T.);
#269=ORIENTED_EDGE('',*,*,#204,.T.);
#270=ORIENTED_EDGE('',*,*,#214,.T.);
#271=ORIENTED_EDGE('',*,*,#215,.T.);
#272=ORIENTED_EDGE('',*,*,#216,.T.);
#273=ORIENTED_EDGE('',*,*,#217,.T.);
#274=ORIENTED_EDGE('',*,*,#218,.T.);
#275=ORIENTED_EDGE('',*,*,#219,.T.);
#276=ORIENTED_EDGE('',*,*,#215,.F.);
#277=ORIENTED_EDGE('',*,*,#220,.F.);
#278=ORIENTED_EDGE('',*,*,#221,.T.);
#279=ORIENTED_EDGE('',*,*,#220,.T.);
#280=ORIENTED_EDGE('',*,*,#214,.F.);
#281=ORIENTED_EDGE('',*,*,#222,.F.);
#282=ORIENTED_EDGE('',*,*,#223,.T.);
#283=ORIENTED_EDGE('',*,*,#222,.T.);
#284=ORIENTED_EDGE('',*,*,#217,.F.);
#285=ORIENTED_EDGE('',*,*,#224,.F.);
#286=ORIENTED_EDGE('',*,*,#225,.T.);
#287=ORIENTED_EDGE('',*,*,#224,.T.);
#288=ORIENTED_EDGE('',*,*,#216,.F.);
#289=ORIENTED_EDGE('',*,*,#219,.F.);
#290=ORIENTED_EDGE('',*,*,#226,.F.);
#291=ORIENTED_EDGE('',*,*,#227,.T.);
#292=ORIENTED_EDGE('',*,*,#228,.T.);
#293=ORIENTED_EDGE('',*,*,#227,.F.);
#294=ORIENTED_EDGE('',*,*,#229,.F.);
#295=ORIENTED_EDGE('',*,*,#230,.T.);
#296=ORIENTED_EDGE('',*,*,#231,.T.);
#297=ORIENTED_EDGE('',*,*,#230,.F.);
#298=ORIENTED_EDGE('',*,*,#232,.F.);
#299=ORIENTED_EDGE('',*,*,#233,.T.);
#300=ORIENTED_EDGE('',*,*,#234,.T.);
#301=ORIENTED_EDGE('',*,*,#233,.F.);
#302=ORIENTED_EDGE('',*,*,#235,.F.);
#303=ORIENTED_EDGE('',*,*,#236,.T.);
#304=ORIENTED_EDGE('',*,*,#237,.T.);
#305=ORIENTED_EDGE('',*,*,#236,.F.);
#306=ORIENTED_EDGE('',*,*,#238,.T.);
#307=ORIENTED_EDGE('',*,*,#239,.T.);
#308=ORIENTED_EDGE('',*,*,#240,.F.);
#309=ORIENTED_EDGE('',*,*,#241,.F.);
#310=ORIENTED_EDGE('',*,*,#242,.T.);
#311=ORIENTED_EDGE('',*,*,#241,.T.);
#312=ORIENTED_EDGE('',*,*,#243,.F.);
#313=ORIENTED_EDGE('',*,*,#244,.F.);
#314=ORIENTED_EDGE('',*,*,#245,.T.);
#315=ORIENTED_EDGE('',*,*,#244,.T.);
#316=ORIENTED_EDGE('',*,*,#246,.F.);
#317=ORIENTED_EDGE('',*,*,#247,.F.);
#318=ORIENTED_EDGE('',*,*,#248,.T.);
#319=ORIENTED_EDGE('',*,*,#247,.T.);
#320=ORIENTED_EDGE('',*,*,#249,.F.);
#321=ORIENTED_EDGE('',*,*,#239,.F.);
#322=ORIENTED_EDGE('',*,*,#249,.T.);
#323=ORIENTED_EDGE('',*,*,#246,.T.);
#324=ORIENTED_EDGE('',*,*,#243,.T.);
#325=ORIENTED_EDGE('',*,*,#240,.T.);
#326=ORIENTED_EDGE('',*,*,#202,.T.);
#327=ORIENTED_EDGE('',*,*,#206,.T.);
#328=ORIENTED_EDGE('',*,*,#209,.T.);
#329=ORIENTED_EDGE('',*,*,#212,.T.);
#330=ORIENTED_EDGE('',*,*,#235,.T.);
#331=ORIENTED_EDGE('',*,*,#232,.T.);
#332=ORIENTED_EDGE('',*,*,#229,.T.);
#333=ORIENTED_EDGE('',*,*,#226,.T.);
#334=ORIENTED_EDGE('',*,*,#248,.F.);
#335=ORIENTED_EDGE('',*,*,#238,.F.);
#336=ORIENTED_EDGE('',*,*,#242,.F.);
#337=ORIENTED_EDGE('',*,*,#245,.F.);
#338=ORIENTED_EDGE('',*,*,#237,.F.);
#339=ORIENTED_EDGE('',*,*,#234,.F.);
#340=ORIENTED_EDGE('',*,*,#231,.F.);
#341=ORIENTED_EDGE('',*,*,#228,.F.);
#342=ORIENTED_EDGE('',*,*,#225,.F.);
#343=ORIENTED_EDGE('',*,*,#218,.F.);
#344=ORIENTED_EDGE('',*,*,#221,.F.);
#345=ORIENTED_EDGE('',*,*,#223,.F.);
#346=PLANE('',#403);
#347=PLANE('',#404);
#348=PLANE('',#405);
#349=PLANE('',#406);
#350=PLANE('',#407);
#351=PLANE('',#408);
#352=PLANE('',#409);
#353=PLANE('',#410);
#354=PLANE('',#411);
#355=PLANE('',#424);
#356=PLANE('',#425);
#357=PLANE('',#426);
#358=PLANE('',#427);
#359=PLANE('',#428);
#360=PLANE('',#429);
#361=ADVANCED_FACE('',(#41),#346,.T.);
#362=ADVANCED_FACE('',(#42),#347,.T.);
#363=ADVANCED_FACE('',(#43),#348,.T.);
#364=ADVANCED_FACE('',(#44),#349,.T.);
#365=ADVANCED_FACE('',(#45,#30),#350,.T.);
#366=ADVANCED_FACE('',(#46),#351,.T.);
#367=ADVANCED_FACE('',(#47),#352,.T.);
#368=ADVANCED_FACE('',(#48),#353,.T.);
#369=ADVANCED_FACE('',(#49),#354,.T.);
#370=ADVANCED_FACE('',(#50),#26,.F.);
#371=ADVANCED_FACE('',(#51),#27,.F.);
#372=ADVANCED_FACE('',(#52),#28,.F.);
#373=ADVANCED_FACE('',(#53),#29,.F.);
#374=ADVANCED_FACE('',(#54),#355,.T.);
#375=ADVANCED_FACE('',(#55),#356,.T.);
#376=ADVANCED_FACE('',(#56),#357,.T.);
#377=ADVANCED_FACE('',(#57),#358,.T.);
#378=ADVANCED_FACE('',(#58,#31,#32,#33,#34,#35),#359,.T.);
#379=ADVANCED_FACE('',(#59,#36,#37,#38,#39,#40),#360,.F.);
#380=CLOSED_SHELL('',(#361,#362,#363,#364,#365,#366,#367,#368,#369,#370,
#371,#372,#373,#374,#375,#376,#377,#378,#379));
#381=DERIVED_UNIT_ELEMENT(#384,1.);
#382=DERIVED_UNIT_ELEMENT(#632,-3.);
#383=DIMENSIONAL_EXPONENTS(0.,1.,0.,0.,0.,0.,0.);
#384=(
CONVERSION_BASED_UNIT('gram',#386)
MASS_UNIT()
NAMED_UNIT(#383)
);
#385=(
MASS_UNIT()
NAMED_UNIT(*)
SI_UNIT(.KILO.,.GRAM.)
);
#386=MASS_MEASURE_WITH_UNIT(MASS_MEASURE(0.001),#385);
#387=DERIVED_UNIT((#381,#382));
#388=MEASURE_REPRESENTATION_ITEM('density measure',
POSITIVE_RATIO_MEASURE(1.),#387);
#389=PROPERTY_DEFINITION_REPRESENTATION(#394,#391);
#390=PROPERTY_DEFINITION_REPRESENTATION(#395,#392);
#391=REPRESENTATION('material name',(#393),#629);
#392=REPRESENTATION('density',(#388),#629);
#393=DESCRIPTIVE_REPRESENTATION_ITEM('\X2\C77CBC18\X0\','\X2\C77CBC18\X0\');
#394=PROPERTY_DEFINITION('material property','material name',#639);
#395=PROPERTY_DEFINITION('material property','density of part',#639);
#396=DATE_TIME_ROLE('creation_date');
#397=APPLIED_DATE_AND_TIME_ASSIGNMENT(#398,#396,(#639));
#398=DATE_AND_TIME(#399,#400);
#399=CALENDAR_DATE(2026,14,8);
#400=LOCAL_TIME(0,0,0.,#401);
#401=COORDINATED_UNIVERSAL_TIME_OFFSET(0,0,.BEHIND.);
#402=AXIS2_PLACEMENT_3D('',#526,#430,#431);
#403=AXIS2_PLACEMENT_3D('',#527,#432,#433);
#404=AXIS2_PLACEMENT_3D('',#536,#438,#439);
#405=AXIS2_PLACEMENT_3D('',#542,#443,#444);
#406=AXIS2_PLACEMENT_3D('',#548,#448,#449);
#407=AXIS2_PLACEMENT_3D('',#551,#452,#453);
#408=AXIS2_PLACEMENT_3D('',#560,#458,#459);
#409=AXIS2_PLACEMENT_3D('',#566,#463,#464);
#410=AXIS2_PLACEMENT_3D('',#570,#467,#468);
#411=AXIS2_PLACEMENT_3D('',#574,#471,#472);
#412=AXIS2_PLACEMENT_3D('',#576,#474,#475);
#413=AXIS2_PLACEMENT_3D('',#578,#476,#477);
#414=AXIS2_PLACEMENT_3D('',#581,#479,#480);
#415=AXIS2_PLACEMENT_3D('',#582,#481,#482);
#416=AXIS2_PLACEMENT_3D('',#584,#483,#484);
#417=AXIS2_PLACEMENT_3D('',#587,#486,#487);
#418=AXIS2_PLACEMENT_3D('',#588,#488,#489);
#419=AXIS2_PLACEMENT_3D('',#590,#490,#491);
#420=AXIS2_PLACEMENT_3D('',#593,#493,#494);
#421=AXIS2_PLACEMENT_3D('',#594,#495,#496);
#422=AXIS2_PLACEMENT_3D('',#596,#497,#498);
#423=AXIS2_PLACEMENT_3D('',#599,#500,#501);
#424=AXIS2_PLACEMENT_3D('',#600,#502,#503);
#425=AXIS2_PLACEMENT_3D('',#609,#508,#509);
#426=AXIS2_PLACEMENT_3D('',#615,#513,#514);
#427=AXIS2_PLACEMENT_3D('',#621,#518,#519);
#428=AXIS2_PLACEMENT_3D('',#624,#522,#523);
#429=AXIS2_PLACEMENT_3D('',#625,#524,#525);
#430=DIRECTION('axis',(0.,0.,1.));
#431=DIRECTION('refdir',(1.,0.,0.));
#432=DIRECTION('center_axis',(1.,0.,-1.8897413185109E-16));
#433=DIRECTION('ref_axis',(-1.8897413185109E-16,0.,-1.));
#434=DIRECTION('',(1.8897413185109E-16,0.,1.));
#435=DIRECTION('',(0.,1.,0.));
#436=DIRECTION('',(-1.8897413185109E-16,0.,-1.));
#437=DIRECTION('',(0.,1.,0.));
#438=DIRECTION('center_axis',(0.,0.,1.));
#439=DIRECTION('ref_axis',(1.,0.,0.));
#440=DIRECTION('',(-1.,0.,0.));
#441=DIRECTION('',(1.,0.,0.));
#442=DIRECTION('',(0.,1.,0.));
#443=DIRECTION('center_axis',(-1.,0.,2.26768958221309E-16));
#444=DIRECTION('ref_axis',(2.26768958221309E-16,0.,1.));
#445=DIRECTION('',(-2.26768958221309E-16,0.,-1.));
#446=DIRECTION('',(2.26768958221309E-16,0.,1.));
#447=DIRECTION('',(0.,1.,0.));
#448=DIRECTION('center_axis',(0.,0.,-1.));
#449=DIRECTION('ref_axis',(-1.,0.,0.));
#450=DIRECTION('',(1.,0.,0.));
#451=DIRECTION('',(-1.,0.,0.));
#452=DIRECTION('center_axis',(0.,1.,0.));
#453=DIRECTION('ref_axis',(0.,0.,1.));
#454=DIRECTION('',(1.55140335318819E-16,0.,1.));
#455=DIRECTION('',(-1.,0.,0.));
#456=DIRECTION('',(-2.32710502978228E-16,0.,-1.));
#457=DIRECTION('',(1.,0.,0.));
#458=DIRECTION('center_axis',(0.,0.,-1.));
#459=DIRECTION('ref_axis',(-1.,0.,0.));
#460=DIRECTION('',(-1.,0.,0.));
#461=DIRECTION('',(0.,1.,0.));
#462=DIRECTION('',(0.,1.,0.));
#463=DIRECTION('center_axis',(-1.,0.,1.55140335318819E-16));
#464=DIRECTION('ref_axis',(1.55140335318819E-16,0.,1.));
#465=DIRECTION('',(1.55140335318819E-16,0.,1.));
#466=DIRECTION('',(0.,1.,0.));
#467=DIRECTION('center_axis',(0.,0.,1.));
#468=DIRECTION('ref_axis',(1.,0.,0.));
#469=DIRECTION('',(1.,0.,0.));
#470=DIRECTION('',(0.,1.,0.));
#471=DIRECTION('center_axis',(1.,0.,-2.32710502978228E-16));
#472=DIRECTION('ref_axis',(-2.32710502978228E-16,0.,-1.));
#473=DIRECTION('',(-2.32710502978228E-16,0.,-1.));
#474=DIRECTION('center_axis',(0.,1.,0.));
#475=DIRECTION('ref_axis',(1.,0.,0.));
#476=DIRECTION('center_axis',(0.,-1.,0.));
#477=DIRECTION('ref_axis',(1.,0.,0.));
#478=DIRECTION('',(0.,-1.,0.));
#479=DIRECTION('center_axis',(0.,-1.,0.));
#480=DIRECTION('ref_axis',(1.,0.,0.));
#481=DIRECTION('center_axis',(0.,1.,0.));
#482=DIRECTION('ref_axis',(1.,0.,0.));
#483=DIRECTION('center_axis',(0.,-1.,0.));
#484=DIRECTION('ref_axis',(1.,0.,0.));
#485=DIRECTION('',(0.,-1.,0.));
#486=DIRECTION('center_axis',(0.,-1.,0.));
#487=DIRECTION('ref_axis',(1.,0.,0.));
#488=DIRECTION('center_axis',(0.,1.,0.));
#489=DIRECTION('ref_axis',(1.,0.,0.));
#490=DIRECTION('center_axis',(0.,-1.,0.));
#491=DIRECTION('ref_axis',(1.,0.,0.));
#492=DIRECTION('',(0.,-1.,0.));
#493=DIRECTION('center_axis',(0.,-1.,0.));
#494=DIRECTION('ref_axis',(1.,0.,0.));
#495=DIRECTION('center_axis',(0.,1.,0.));
#496=DIRECTION('ref_axis',(1.,0.,0.));
#497=DIRECTION('center_axis',(0.,-1.,0.));
#498=DIRECTION('ref_axis',(1.,0.,0.));
#499=DIRECTION('',(0.,-1.,0.));
#500=DIRECTION('center_axis',(0.,-1.,0.));
#501=DIRECTION('ref_axis',(1.,0.,0.));
#502=DIRECTION('center_axis',(1.16101754209167E-16,0.,1.));
#503=DIRECTION('ref_axis',(1.,0.,-1.16101754209167E-16));
#504=DIRECTION('',(1.,0.,-1.16101754209167E-16));
#505=DIRECTION('',(0.,1.,0.));
#506=DIRECTION('',(1.,0.,-1.16101754209167E-16));
#507=DIRECTION('',(0.,1.,0.));
#508=DIRECTION('center_axis',(-1.,0.,4.35026164751082E-16));
#509=DIRECTION('ref_axis',(4.35026164751082E-16,0.,1.));
#510=DIRECTION('',(4.35026164751082E-16,0.,1.));
#511=DIRECTION('',(4.35026164751082E-16,0.,1.));
#512=DIRECTION('',(0.,1.,0.));
#513=DIRECTION('center_axis',(0.,0.,-1.));
#514=DIRECTION('ref_axis',(-1.,0.,0.));
#515=DIRECTION('',(-1.,0.,0.));
#516=DIRECTION('',(-1.,0.,0.));
#517=DIRECTION('',(0.,1.,0.));
#518=DIRECTION('center_axis',(1.,0.,-3.26269623563311E-16));
#519=DIRECTION('ref_axis',(-3.26269623563311E-16,0.,-1.));
#520=DIRECTION('',(-3.26269623563311E-16,0.,-1.));
#521=DIRECTION('',(-3.26269623563311E-16,0.,-1.));
#522=DIRECTION('center_axis',(0.,1.,0.));
#523=DIRECTION('ref_axis',(0.,0.,1.));
#524=DIRECTION('center_axis',(0.,1.,0.));
#525=DIRECTION('ref_axis',(0.,0.,1.));
#526=CARTESIAN_POINT('',(0.,0.,0.));
#527=CARTESIAN_POINT('Origin',(71.4999999999709,2.,117.5));
#528=CARTESIAN_POINT('',(71.4999999999709,2.,-117.5));
#529=CARTESIAN_POINT('',(71.4999999999709,2.,117.5));
#530=CARTESIAN_POINT('',(71.4999999999709,2.,58.75));
#531=CARTESIAN_POINT('',(71.4999999999709,3.1,-117.5));
#532=CARTESIAN_POINT('',(71.4999999999709,2.,-117.5));
#533=CARTESIAN_POINT('',(71.4999999999709,3.1,117.5));
#534=CARTESIAN_POINT('',(71.4999999999709,3.1,117.5));
#535=CARTESIAN_POINT('',(71.4999999999709,2.,117.5));
#536=CARTESIAN_POINT('Origin',(-71.4999999999709,2.,117.5));
#537=CARTESIAN_POINT('',(-71.4999999999709,2.,117.5));
#538=CARTESIAN_POINT('',(-35.7499999999854,2.,117.5));
#539=CARTESIAN_POINT('',(-71.4999999999709,3.1,117.5));
#540=CARTESIAN_POINT('',(-71.4999999999709,3.1,117.5));
#541=CARTESIAN_POINT('',(-71.4999999999709,2.,117.5));
#542=CARTESIAN_POINT('Origin',(-71.4999999999709,2.,-117.5));
#543=CARTESIAN_POINT('',(-71.4999999999709,2.,-117.5));
#544=CARTESIAN_POINT('',(-71.4999999999709,2.,-58.75));
#545=CARTESIAN_POINT('',(-71.4999999999709,3.1,-117.5));
#546=CARTESIAN_POINT('',(-71.4999999999709,3.1,-117.5));
#547=CARTESIAN_POINT('',(-71.4999999999709,2.,-117.5));
#548=CARTESIAN_POINT('Origin',(71.4999999999709,2.,-117.5));
#549=CARTESIAN_POINT('',(35.7499999999854,2.,-117.5));
#550=CARTESIAN_POINT('',(71.4999999999709,3.1,-117.5));
#551=CARTESIAN_POINT('Origin',(0.,3.1,0.));
#552=CARTESIAN_POINT('',(68.5000000000291,3.1,-114.499999999985));
#553=CARTESIAN_POINT('',(68.5000000000291,3.1,114.499999999985));
#554=CARTESIAN_POINT('',(68.5000000000291,3.1,-114.499999999985));
#555=CARTESIAN_POINT('',(-68.5000000000291,3.1,114.499999999985));
#556=CARTESIAN_POINT('',(68.5000000000291,3.1,114.499999999985));
#557=CARTESIAN_POINT('',(-68.5000000000291,3.1,-114.499999999985));
#558=CARTESIAN_POINT('',(-68.5000000000291,3.1,114.499999999985));
#559=CARTESIAN_POINT('',(-68.5000000000291,3.1,-114.499999999985));
#560=CARTESIAN_POINT('Origin',(68.5000000000291,0.,114.499999999985));
#561=CARTESIAN_POINT('',(68.5000000000291,0.,114.499999999985));
#562=CARTESIAN_POINT('',(-68.5000000000291,0.,114.499999999985));
#563=CARTESIAN_POINT('',(68.5000000000291,0.,114.499999999985));
#564=CARTESIAN_POINT('',(-68.5000000000291,0.,114.499999999985));
#565=CARTESIAN_POINT('',(68.5000000000291,0.,114.499999999985));
#566=CARTESIAN_POINT('Origin',(68.5000000000291,0.,-114.499999999985));
#567=CARTESIAN_POINT('',(68.5000000000291,0.,-114.499999999985));
#568=CARTESIAN_POINT('',(68.5000000000291,0.,-114.499999999985));
#569=CARTESIAN_POINT('',(68.5000000000291,0.,-114.499999999985));
#570=CARTESIAN_POINT('Origin',(-68.5000000000291,0.,-114.499999999985));
#571=CARTESIAN_POINT('',(-68.5000000000291,0.,-114.499999999985));
#572=CARTESIAN_POINT('',(-68.5000000000291,0.,-114.499999999985));
#573=CARTESIAN_POINT('',(-68.5000000000291,0.,-114.499999999985));
#574=CARTESIAN_POINT('Origin',(-68.5000000000291,0.,114.499999999985));
#575=CARTESIAN_POINT('',(-68.5000000000291,0.,114.499999999985));
#576=CARTESIAN_POINT('Origin',(-73.5000000000291,0.,-119.499999999985));
#577=CARTESIAN_POINT('',(-75.0000000000291,2.,-119.499999999985));
#578=CARTESIAN_POINT('Origin',(-73.5000000000291,2.,-119.499999999985));
#579=CARTESIAN_POINT('',(-75.0000000000291,0.,-119.499999999985));
#580=CARTESIAN_POINT('',(-75.0000000000291,0.,-119.499999999985));
#581=CARTESIAN_POINT('Origin',(-73.5000000000291,0.,-119.499999999985));
#582=CARTESIAN_POINT('Origin',(73.500000000029,0.,-119.499999999985));
#583=CARTESIAN_POINT('',(72.000000000029,2.,-119.499999999985));
#584=CARTESIAN_POINT('Origin',(73.500000000029,2.,-119.499999999985));
#585=CARTESIAN_POINT('',(72.000000000029,0.,-119.499999999985));
#586=CARTESIAN_POINT('',(72.000000000029,0.,-119.499999999985));
#587=CARTESIAN_POINT('Origin',(73.500000000029,0.,-119.499999999985));
#588=CARTESIAN_POINT('Origin',(73.500000000029,0.,119.499999999985));
#589=CARTESIAN_POINT('',(72.000000000029,2.,119.499999999985));
#590=CARTESIAN_POINT('Origin',(73.500000000029,2.,119.499999999985));
#591=CARTESIAN_POINT('',(72.000000000029,0.,119.499999999985));
#592=CARTESIAN_POINT('',(72.000000000029,0.,119.499999999985));
#593=CARTESIAN_POINT('Origin',(73.500000000029,0.,119.499999999985));
#594=CARTESIAN_POINT('Origin',(-73.5000000000291,0.,119.499999999985));
#595=CARTESIAN_POINT('',(-75.0000000000291,2.,119.499999999985));
#596=CARTESIAN_POINT('Origin',(-73.5000000000291,2.,119.499999999985));
#597=CARTESIAN_POINT('',(-75.0000000000291,0.,119.499999999985));
#598=CARTESIAN_POINT('',(-75.0000000000291,0.,119.499999999985));
#599=CARTESIAN_POINT('Origin',(-73.5000000000291,0.,119.499999999985));
#600=CARTESIAN_POINT('Origin',(-76.4999999999999,0.,122.5));
#601=CARTESIAN_POINT('',(-76.4999999999999,0.,122.5));
#602=CARTESIAN_POINT('',(76.5,0.,122.5));
#603=CARTESIAN_POINT('',(-76.4999999999999,0.,122.5));
#604=CARTESIAN_POINT('',(76.5,2.,122.5));
#605=CARTESIAN_POINT('',(76.5,0.,122.5));
#606=CARTESIAN_POINT('',(-76.4999999999999,2.,122.5));
#607=CARTESIAN_POINT('',(-76.4999999999999,2.,122.5));
#608=CARTESIAN_POINT('',(-76.4999999999999,0.,122.5));
#609=CARTESIAN_POINT('Origin',(-76.5,0.,-122.5));
#610=CARTESIAN_POINT('',(-76.5,0.,-122.5));
#611=CARTESIAN_POINT('',(-76.5,0.,-122.5));
#612=CARTESIAN_POINT('',(-76.5,2.,-122.5));
#613=CARTESIAN_POINT('',(-76.5,2.,-122.5));
#614=CARTESIAN_POINT('',(-76.5,0.,-122.5));
#615=CARTESIAN_POINT('Origin',(76.5,0.,-122.5));
#616=CARTESIAN_POINT('',(76.5,0.,-122.5));
#617=CARTESIAN_POINT('',(76.5,0.,-122.5));
#618=CARTESIAN_POINT('',(76.5,2.,-122.5));
#619=CARTESIAN_POINT('',(76.5,2.,-122.5));
#620=CARTESIAN_POINT('',(76.5,0.,-122.5));
#621=CARTESIAN_POINT('Origin',(76.5,0.,122.5));
#622=CARTESIAN_POINT('',(76.5,0.,122.5));
#623=CARTESIAN_POINT('',(76.5,2.,122.5));
#624=CARTESIAN_POINT('Origin',(-4.44089209850063E-15,2.,8.88178419700125E-15));
#625=CARTESIAN_POINT('Origin',(-4.44089209850063E-15,0.,8.88178419700125E-15));
#626=CARTESIAN_POINT('',(0.,2.,0.));
#627=UNCERTAINTY_MEASURE_WITH_UNIT(LENGTH_MEASURE(0.01),#631,
'DISTANCE_ACCURACY_VALUE',
'Maximum model space distance between geometric entities at asserted c
onnectivities');
#628=UNCERTAINTY_MEASURE_WITH_UNIT(LENGTH_MEASURE(0.01),#631,
'DISTANCE_ACCURACY_VALUE',
'Maximum model space distance between geometric entities at asserted c
onnectivities');
#629=(
GEOMETRIC_REPRESENTATION_CONTEXT(3)
GLOBAL_UNCERTAINTY_ASSIGNED_CONTEXT((#627))
GLOBAL_UNIT_ASSIGNED_CONTEXT((#631,#633,#634))
REPRESENTATION_CONTEXT('','3D')
);
#630=(
GEOMETRIC_REPRESENTATION_CONTEXT(3)
GLOBAL_UNCERTAINTY_ASSIGNED_CONTEXT((#628))
GLOBAL_UNIT_ASSIGNED_CONTEXT((#631,#633,#634))
REPRESENTATION_CONTEXT('','3D')
);
#631=(
LENGTH_UNIT()
NAMED_UNIT(*)
SI_UNIT(.MILLI.,.METRE.)
);
#632=(
LENGTH_UNIT()
NAMED_UNIT(*)
SI_UNIT(.CENTI.,.METRE.)
);
#633=(
NAMED_UNIT(*)
PLANE_ANGLE_UNIT()
SI_UNIT($,.RADIAN.)
);
#634=(
NAMED_UNIT(*)
SI_UNIT($,.STERADIAN.)
SOLID_ANGLE_UNIT()
);
#635=SHAPE_DEFINITION_REPRESENTATION(#636,#637);
#636=PRODUCT_DEFINITION_SHAPE('',$,#639);
#637=SHAPE_REPRESENTATION('',(#402),#629);
#638=PRODUCT_DEFINITION_CONTEXT('part definition',#643,'design');
#639=PRODUCT_DEFINITION('LCD_Bottom_Cover','LCD_Upper_Cover',#640,#638);
#640=PRODUCT_DEFINITION_FORMATION('',$,#645);
#641=PRODUCT_RELATED_PRODUCT_CATEGORY('LCD_Upper_Cover',
'LCD_Upper_Cover',(#645));
#642=APPLICATION_PROTOCOL_DEFINITION('international standard',
'automotive_design',2009,#643);
#643=APPLICATION_CONTEXT(
'Core Data for Automotive Mechanical Design Process');
#644=PRODUCT_CONTEXT('part definition',#643,'mechanical');
#645=PRODUCT('LCD_Bottom_Cover','LCD_Upper_Cover',$,(#644));
#646=PRESENTATION_STYLE_ASSIGNMENT((#648));
#647=PRESENTATION_STYLE_ASSIGNMENT((#649));
#648=SURFACE_STYLE_USAGE(.BOTH.,#652);
#649=SURFACE_STYLE_USAGE(.BOTH.,#653);
#650=SURFACE_STYLE_RENDERING_WITH_PROPERTIES($,#660,(#651));
#651=SURFACE_STYLE_TRANSPARENT(0.);
#652=SURFACE_SIDE_STYLE('',(#654,#650));
#653=SURFACE_SIDE_STYLE('',(#655));
#654=SURFACE_STYLE_FILL_AREA(#656);
#655=SURFACE_STYLE_FILL_AREA(#657);
#656=FILL_AREA_STYLE('',(#658));
#657=FILL_AREA_STYLE('',(#659));
#658=FILL_AREA_STYLE_COLOUR('',#660);
#659=FILL_AREA_STYLE_COLOUR('',#661);
#660=COLOUR_RGB('',0.749019607843137,0.749019607843137,0.749019607843137);
#661=COLOUR_RGB('',0.913725490196078,0.913725490196078,0.);
ENDSEC;
END-ISO-10303-21;
