ISO-10303-21;
HEADER;
/* Generated by software containing ST-Developer
 * from STEP Tools, Inc. (www.steptools.com) 
 */

FILE_DESCRIPTION(
/* description */ (''),
/* implementation_level */ '2;1');

FILE_NAME(
/* name */ 'LCD_Mount_20degrees.stp',
/* time_stamp */ '2026-08-14T18:38:42+09:00',
/* author */ ('User'),
/* organization */ (''),
/* preprocessor_version */ 'ST-DEVELOPER v20.1',
/* originating_system */ 'Autodesk Inventor 2026',
/* authorisation */ '');

FILE_SCHEMA (('AUTOMOTIVE_DESIGN { 1 0 10303 214 3 1 1 }'));
ENDSEC;

DATA;
#10=MECHANICAL_DESIGN_GEOMETRIC_PRESENTATION_REPRESENTATION('',(#17,#18),
#949);
#11=GEOMETRICALLY_BOUNDED_WIREFRAME_SHAPE_REPRESENTATION('',(#12),#948);
#12=GEOMETRIC_CURVE_SET('\X2\C2A4CF00CE58\X0\5',(#16,#945));
#13=SHAPE_REPRESENTATION_RELATIONSHIP('SRR','None',#956,#15);
#14=SHAPE_REPRESENTATION_RELATIONSHIP('SRR','None',#956,#11);
#15=ADVANCED_BREP_SHAPE_REPRESENTATION('',(#19),#948);
#16=POLYLINE('',(#943,#944));
#17=STYLED_ITEM('',(#965),#19);
#18=STYLED_ITEM('',(#966),#16);
#19=MANIFOLD_SOLID_BREP('\X2\C194B9ACB4DC\X0\2',#577);
#20=FACE_BOUND('',#91,.T.);
#21=FACE_BOUND('',#94,.T.);
#22=FACE_BOUND('',#99,.T.);
#23=FACE_BOUND('',#100,.T.);
#24=FACE_BOUND('',#101,.T.);
#25=FACE_BOUND('',#104,.T.);
#26=FACE_BOUND('',#105,.T.);
#27=FACE_BOUND('',#108,.T.);
#28=CIRCLE('',#620,3.5);
#29=CIRCLE('',#622,2.5);
#30=CIRCLE('',#625,3.5);
#31=CIRCLE('',#627,2.5);
#32=CIRCLE('',#629,2.5);
#33=CIRCLE('',#631,2.5);
#34=ELLIPSE('',#619,7.347145191004,3.5);
#35=ELLIPSE('',#624,3.7246222036657,3.5);
#36=CYLINDRICAL_SURFACE('',#618,3.5);
#37=CYLINDRICAL_SURFACE('',#623,3.5);
#38=CYLINDRICAL_SURFACE('',#628,2.5);
#39=CYLINDRICAL_SURFACE('',#630,2.5);
#40=FACE_OUTER_BOUND('',#71,.T.);
#41=FACE_OUTER_BOUND('',#72,.T.);
#42=FACE_OUTER_BOUND('',#73,.T.);
#43=FACE_OUTER_BOUND('',#74,.T.);
#44=FACE_OUTER_BOUND('',#75,.T.);
#45=FACE_OUTER_BOUND('',#76,.T.);
#46=FACE_OUTER_BOUND('',#77,.T.);
#47=FACE_OUTER_BOUND('',#78,.T.);
#48=FACE_OUTER_BOUND('',#79,.T.);
#49=FACE_OUTER_BOUND('',#80,.T.);
#50=FACE_OUTER_BOUND('',#81,.T.);
#51=FACE_OUTER_BOUND('',#82,.T.);
#52=FACE_OUTER_BOUND('',#83,.T.);
#53=FACE_OUTER_BOUND('',#84,.T.);
#54=FACE_OUTER_BOUND('',#85,.T.);
#55=FACE_OUTER_BOUND('',#86,.T.);
#56=FACE_OUTER_BOUND('',#87,.T.);
#57=FACE_OUTER_BOUND('',#88,.T.);
#58=FACE_OUTER_BOUND('',#89,.T.);
#59=FACE_OUTER_BOUND('',#90,.T.);
#60=FACE_OUTER_BOUND('',#92,.T.);
#61=FACE_OUTER_BOUND('',#93,.T.);
#62=FACE_OUTER_BOUND('',#95,.T.);
#63=FACE_OUTER_BOUND('',#96,.T.);
#64=FACE_OUTER_BOUND('',#97,.T.);
#65=FACE_OUTER_BOUND('',#98,.T.);
#66=FACE_OUTER_BOUND('',#102,.T.);
#67=FACE_OUTER_BOUND('',#103,.T.);
#68=FACE_OUTER_BOUND('',#106,.T.);
#69=FACE_OUTER_BOUND('',#107,.T.);
#70=FACE_OUTER_BOUND('',#109,.T.);
#71=EDGE_LOOP('',(#369,#370,#371,#372,#373,#374,#375,#376));
#72=EDGE_LOOP('',(#377,#378,#379,#380));
#73=EDGE_LOOP('',(#381,#382,#383,#384));
#74=EDGE_LOOP('',(#385,#386,#387,#388));
#75=EDGE_LOOP('',(#389,#390,#391,#392));
#76=EDGE_LOOP('',(#393,#394,#395,#396));
#77=EDGE_LOOP('',(#397,#398,#399,#400));
#78=EDGE_LOOP('',(#401,#402,#403,#404));
#79=EDGE_LOOP('',(#405,#406,#407,#408,#409,#410,#411,#412));
#80=EDGE_LOOP('',(#413,#414,#415,#416,#417,#418,#419,#420));
#81=EDGE_LOOP('',(#421,#422,#423,#424));
#82=EDGE_LOOP('',(#425,#426,#427,#428));
#83=EDGE_LOOP('',(#429,#430,#431,#432));
#84=EDGE_LOOP('',(#433,#434,#435,#436));
#85=EDGE_LOOP('',(#437,#438,#439,#440));
#86=EDGE_LOOP('',(#441,#442,#443,#444));
#87=EDGE_LOOP('',(#445,#446,#447,#448));
#88=EDGE_LOOP('',(#449,#450,#451,#452,#453,#454,#455,#456));
#89=EDGE_LOOP('',(#457,#458,#459,#460));
#90=EDGE_LOOP('',(#461));
#91=EDGE_LOOP('',(#462));
#92=EDGE_LOOP('',(#463,#464,#465,#466));
#93=EDGE_LOOP('',(#467));
#94=EDGE_LOOP('',(#468));
#95=EDGE_LOOP('',(#469,#470,#471,#472));
#96=EDGE_LOOP('',(#473,#474,#475,#476));
#97=EDGE_LOOP('',(#477,#478,#479,#480,#481));
#98=EDGE_LOOP('',(#482,#483,#484,#485));
#99=EDGE_LOOP('',(#486,#487,#488,#489));
#100=EDGE_LOOP('',(#490,#491,#492,#493));
#101=EDGE_LOOP('',(#494));
#102=EDGE_LOOP('',(#495,#496,#497,#498));
#103=EDGE_LOOP('',(#499,#500,#501,#502));
#104=EDGE_LOOP('',(#503));
#105=EDGE_LOOP('',(#504));
#106=EDGE_LOOP('',(#505,#506,#507,#508));
#107=EDGE_LOOP('',(#509,#510,#511,#512));
#108=EDGE_LOOP('',(#513));
#109=EDGE_LOOP('',(#514,#515,#516,#517,#518));
#110=LINE('',#790,#177);
#111=LINE('',#792,#178);
#112=LINE('',#794,#179);
#113=LINE('',#796,#180);
#114=LINE('',#798,#181);
#115=LINE('',#800,#182);
#116=LINE('',#802,#183);
#117=LINE('',#803,#184);
#118=LINE('',#806,#185);
#119=LINE('',#808,#186);
#120=LINE('',#809,#187);
#121=LINE('',#812,#188);
#122=LINE('',#813,#189);
#123=LINE('',#816,#190);
#124=LINE('',#817,#191);
#125=LINE('',#820,#192);
#126=LINE('',#821,#193);
#127=LINE('',#824,#194);
#128=LINE('',#825,#195);
#129=LINE('',#828,#196);
#130=LINE('',#829,#197);
#131=LINE('',#832,#198);
#132=LINE('',#833,#199);
#133=LINE('',#835,#200);
#134=LINE('',#839,#201);
#135=LINE('',#841,#202);
#136=LINE('',#843,#203);
#137=LINE('',#845,#204);
#138=LINE('',#847,#205);
#139=LINE('',#849,#206);
#140=LINE('',#851,#207);
#141=LINE('',#852,#208);
#142=LINE('',#855,#209);
#143=LINE('',#857,#210);
#144=LINE('',#858,#211);
#145=LINE('',#861,#212);
#146=LINE('',#862,#213);
#147=LINE('',#865,#214);
#148=LINE('',#867,#215);
#149=LINE('',#868,#216);
#150=LINE('',#871,#217);
#151=LINE('',#872,#218);
#152=LINE('',#875,#219);
#153=LINE('',#876,#220);
#154=LINE('',#879,#221);
#155=LINE('',#880,#222);
#156=LINE('',#882,#223);
#157=LINE('',#884,#224);
#158=LINE('',#889,#225);
#159=LINE('',#898,#226);
#160=LINE('',#906,#227);
#161=LINE('',#910,#228);
#162=LINE('',#914,#229);
#163=LINE('',#916,#230);
#164=LINE('',#918,#231);
#165=LINE('',#920,#232);
#166=LINE('',#921,#233);
#167=LINE('',#924,#234);
#168=LINE('',#926,#235);
#169=LINE('',#927,#236);
#170=LINE('',#930,#237);
#171=LINE('',#931,#238);
#172=LINE('',#934,#239);
#173=LINE('',#935,#240);
#174=LINE('',#938,#241);
#175=LINE('',#939,#242);
#176=LINE('',#941,#243);
#177=VECTOR('',#643,10.);
#178=VECTOR('',#644,10.);
#179=VECTOR('',#645,10.);
#180=VECTOR('',#646,10.);
#181=VECTOR('',#647,10.);
#182=VECTOR('',#648,10.);
#183=VECTOR('',#649,10.);
#184=VECTOR('',#650,10.);
#185=VECTOR('',#653,10.);
#186=VECTOR('',#654,10.);
#187=VECTOR('',#655,10.);
#188=VECTOR('',#658,10.);
#189=VECTOR('',#659,10.);
#190=VECTOR('',#662,10.);
#191=VECTOR('',#663,10.);
#192=VECTOR('',#666,10.);
#193=VECTOR('',#667,10.);
#194=VECTOR('',#670,10.);
#195=VECTOR('',#671,10.);
#196=VECTOR('',#674,10.);
#197=VECTOR('',#675,10.);
#198=VECTOR('',#678,10.);
#199=VECTOR('',#679,10.);
#200=VECTOR('',#682,10.);
#201=VECTOR('',#685,10.);
#202=VECTOR('',#686,10.);
#203=VECTOR('',#687,10.);
#204=VECTOR('',#688,10.);
#205=VECTOR('',#689,10.);
#206=VECTOR('',#690,10.);
#207=VECTOR('',#691,10.);
#208=VECTOR('',#692,10.);
#209=VECTOR('',#695,10.);
#210=VECTOR('',#696,10.);
#211=VECTOR('',#697,10.);
#212=VECTOR('',#700,10.);
#213=VECTOR('',#701,10.);
#214=VECTOR('',#704,10.);
#215=VECTOR('',#705,10.);
#216=VECTOR('',#706,10.);
#217=VECTOR('',#709,10.);
#218=VECTOR('',#710,10.);
#219=VECTOR('',#713,10.);
#220=VECTOR('',#714,10.);
#221=VECTOR('',#717,10.);
#222=VECTOR('',#718,10.);
#223=VECTOR('',#721,10.);
#224=VECTOR('',#724,10.);
#225=VECTOR('',#729,3.5);
#226=VECTOR('',#740,3.5);
#227=VECTOR('',#751,2.5);
#228=VECTOR('',#756,2.5);
#229=VECTOR('',#759,10.);
#230=VECTOR('',#760,10.);
#231=VECTOR('',#761,10.);
#232=VECTOR('',#762,10.);
#233=VECTOR('',#763,10.);
#234=VECTOR('',#766,10.);
#235=VECTOR('',#767,10.);
#236=VECTOR('',#768,10.);
#237=VECTOR('',#771,10.);
#238=VECTOR('',#772,10.);
#239=VECTOR('',#775,10.);
#240=VECTOR('',#776,10.);
#241=VECTOR('',#779,10.);
#242=VECTOR('',#780,10.);
#243=VECTOR('',#783,10.);
#244=VERTEX_POINT('',#788);
#245=VERTEX_POINT('',#789);
#246=VERTEX_POINT('',#791);
#247=VERTEX_POINT('',#793);
#248=VERTEX_POINT('',#795);
#249=VERTEX_POINT('',#797);
#250=VERTEX_POINT('',#799);
#251=VERTEX_POINT('',#801);
#252=VERTEX_POINT('',#805);
#253=VERTEX_POINT('',#807);
#254=VERTEX_POINT('',#811);
#255=VERTEX_POINT('',#815);
#256=VERTEX_POINT('',#819);
#257=VERTEX_POINT('',#823);
#258=VERTEX_POINT('',#827);
#259=VERTEX_POINT('',#831);
#260=VERTEX_POINT('',#837);
#261=VERTEX_POINT('',#838);
#262=VERTEX_POINT('',#840);
#263=VERTEX_POINT('',#842);
#264=VERTEX_POINT('',#844);
#265=VERTEX_POINT('',#846);
#266=VERTEX_POINT('',#848);
#267=VERTEX_POINT('',#850);
#268=VERTEX_POINT('',#854);
#269=VERTEX_POINT('',#856);
#270=VERTEX_POINT('',#860);
#271=VERTEX_POINT('',#864);
#272=VERTEX_POINT('',#866);
#273=VERTEX_POINT('',#870);
#274=VERTEX_POINT('',#874);
#275=VERTEX_POINT('',#878);
#276=VERTEX_POINT('',#886);
#277=VERTEX_POINT('',#888);
#278=VERTEX_POINT('',#892);
#279=VERTEX_POINT('',#895);
#280=VERTEX_POINT('',#897);
#281=VERTEX_POINT('',#901);
#282=VERTEX_POINT('',#904);
#283=VERTEX_POINT('',#908);
#284=VERTEX_POINT('',#912);
#285=VERTEX_POINT('',#913);
#286=VERTEX_POINT('',#915);
#287=VERTEX_POINT('',#917);
#288=VERTEX_POINT('',#919);
#289=VERTEX_POINT('',#923);
#290=VERTEX_POINT('',#925);
#291=VERTEX_POINT('',#929);
#292=VERTEX_POINT('',#933);
#293=VERTEX_POINT('',#937);
#294=EDGE_CURVE('',#244,#245,#110,.T.);
#295=EDGE_CURVE('',#245,#246,#111,.T.);
#296=EDGE_CURVE('',#246,#247,#112,.T.);
#297=EDGE_CURVE('',#247,#248,#113,.T.);
#298=EDGE_CURVE('',#248,#249,#114,.T.);
#299=EDGE_CURVE('',#249,#250,#115,.T.);
#300=EDGE_CURVE('',#250,#251,#116,.T.);
#301=EDGE_CURVE('',#244,#251,#117,.T.);
#302=EDGE_CURVE('',#252,#245,#118,.T.);
#303=EDGE_CURVE('',#253,#252,#119,.T.);
#304=EDGE_CURVE('',#246,#253,#120,.T.);
#305=EDGE_CURVE('',#254,#253,#121,.T.);
#306=EDGE_CURVE('',#247,#254,#122,.T.);
#307=EDGE_CURVE('',#255,#254,#123,.T.);
#308=EDGE_CURVE('',#248,#255,#124,.T.);
#309=EDGE_CURVE('',#256,#255,#125,.T.);
#310=EDGE_CURVE('',#249,#256,#126,.T.);
#311=EDGE_CURVE('',#257,#256,#127,.T.);
#312=EDGE_CURVE('',#250,#257,#128,.T.);
#313=EDGE_CURVE('',#258,#257,#129,.T.);
#314=EDGE_CURVE('',#251,#258,#130,.T.);
#315=EDGE_CURVE('',#259,#244,#131,.T.);
#316=EDGE_CURVE('',#252,#259,#132,.T.);
#317=EDGE_CURVE('',#258,#259,#133,.T.);
#318=EDGE_CURVE('',#260,#261,#134,.T.);
#319=EDGE_CURVE('',#261,#262,#135,.T.);
#320=EDGE_CURVE('',#262,#263,#136,.T.);
#321=EDGE_CURVE('',#264,#263,#137,.T.);
#322=EDGE_CURVE('',#264,#265,#138,.T.);
#323=EDGE_CURVE('',#265,#266,#139,.T.);
#324=EDGE_CURVE('',#266,#267,#140,.T.);
#325=EDGE_CURVE('',#267,#260,#141,.T.);
#326=EDGE_CURVE('',#268,#261,#142,.T.);
#327=EDGE_CURVE('',#269,#268,#143,.T.);
#328=EDGE_CURVE('',#262,#269,#144,.T.);
#329=EDGE_CURVE('',#270,#269,#145,.T.);
#330=EDGE_CURVE('',#263,#270,#146,.T.);
#331=EDGE_CURVE('',#271,#264,#147,.T.);
#332=EDGE_CURVE('',#272,#271,#148,.T.);
#333=EDGE_CURVE('',#265,#272,#149,.T.);
#334=EDGE_CURVE('',#273,#272,#150,.T.);
#335=EDGE_CURVE('',#266,#273,#151,.T.);
#336=EDGE_CURVE('',#274,#273,#152,.T.);
#337=EDGE_CURVE('',#267,#274,#153,.T.);
#338=EDGE_CURVE('',#275,#274,#154,.T.);
#339=EDGE_CURVE('',#260,#275,#155,.T.);
#340=EDGE_CURVE('',#268,#275,#156,.T.);
#341=EDGE_CURVE('',#270,#271,#157,.T.);
#342=EDGE_CURVE('',#276,#276,#34,.T.);
#343=EDGE_CURVE('',#276,#277,#158,.T.);
#344=EDGE_CURVE('',#277,#277,#28,.T.);
#345=EDGE_CURVE('',#278,#278,#29,.T.);
#346=EDGE_CURVE('',#279,#279,#35,.T.);
#347=EDGE_CURVE('',#279,#280,#159,.T.);
#348=EDGE_CURVE('',#280,#280,#30,.T.);
#349=EDGE_CURVE('',#281,#281,#31,.T.);
#350=EDGE_CURVE('',#282,#282,#32,.T.);
#351=EDGE_CURVE('',#282,#278,#160,.T.);
#352=EDGE_CURVE('',#283,#283,#33,.T.);
#353=EDGE_CURVE('',#283,#281,#161,.T.);
#354=EDGE_CURVE('',#284,#285,#162,.T.);
#355=EDGE_CURVE('',#285,#286,#163,.T.);
#356=EDGE_CURVE('',#286,#287,#164,.T.);
#357=EDGE_CURVE('',#287,#288,#165,.T.);
#358=EDGE_CURVE('',#288,#284,#166,.T.);
#359=EDGE_CURVE('',#289,#285,#167,.T.);
#360=EDGE_CURVE('',#290,#289,#168,.T.);
#361=EDGE_CURVE('',#286,#290,#169,.T.);
#362=EDGE_CURVE('',#291,#290,#170,.T.);
#363=EDGE_CURVE('',#287,#291,#171,.T.);
#364=EDGE_CURVE('',#292,#291,#172,.T.);
#365=EDGE_CURVE('',#288,#292,#173,.T.);
#366=EDGE_CURVE('',#293,#292,#174,.T.);
#367=EDGE_CURVE('',#284,#293,#175,.T.);
#368=EDGE_CURVE('',#289,#293,#176,.T.);
#369=ORIENTED_EDGE('',*,*,#294,.T.);
#370=ORIENTED_EDGE('',*,*,#295,.T.);
#371=ORIENTED_EDGE('',*,*,#296,.T.);
#372=ORIENTED_EDGE('',*,*,#297,.T.);
#373=ORIENTED_EDGE('',*,*,#298,.T.);
#374=ORIENTED_EDGE('',*,*,#299,.T.);
#375=ORIENTED_EDGE('',*,*,#300,.T.);
#376=ORIENTED_EDGE('',*,*,#301,.F.);
#377=ORIENTED_EDGE('',*,*,#302,.F.);
#378=ORIENTED_EDGE('',*,*,#303,.F.);
#379=ORIENTED_EDGE('',*,*,#304,.F.);
#380=ORIENTED_EDGE('',*,*,#295,.F.);
#381=ORIENTED_EDGE('',*,*,#304,.T.);
#382=ORIENTED_EDGE('',*,*,#305,.F.);
#383=ORIENTED_EDGE('',*,*,#306,.F.);
#384=ORIENTED_EDGE('',*,*,#296,.F.);
#385=ORIENTED_EDGE('',*,*,#306,.T.);
#386=ORIENTED_EDGE('',*,*,#307,.F.);
#387=ORIENTED_EDGE('',*,*,#308,.F.);
#388=ORIENTED_EDGE('',*,*,#297,.F.);
#389=ORIENTED_EDGE('',*,*,#308,.T.);
#390=ORIENTED_EDGE('',*,*,#309,.F.);
#391=ORIENTED_EDGE('',*,*,#310,.F.);
#392=ORIENTED_EDGE('',*,*,#298,.F.);
#393=ORIENTED_EDGE('',*,*,#310,.T.);
#394=ORIENTED_EDGE('',*,*,#311,.F.);
#395=ORIENTED_EDGE('',*,*,#312,.F.);
#396=ORIENTED_EDGE('',*,*,#299,.F.);
#397=ORIENTED_EDGE('',*,*,#312,.T.);
#398=ORIENTED_EDGE('',*,*,#313,.F.);
#399=ORIENTED_EDGE('',*,*,#314,.F.);
#400=ORIENTED_EDGE('',*,*,#300,.F.);
#401=ORIENTED_EDGE('',*,*,#315,.F.);
#402=ORIENTED_EDGE('',*,*,#316,.F.);
#403=ORIENTED_EDGE('',*,*,#302,.T.);
#404=ORIENTED_EDGE('',*,*,#294,.F.);
#405=ORIENTED_EDGE('',*,*,#316,.T.);
#406=ORIENTED_EDGE('',*,*,#317,.F.);
#407=ORIENTED_EDGE('',*,*,#313,.T.);
#408=ORIENTED_EDGE('',*,*,#311,.T.);
#409=ORIENTED_EDGE('',*,*,#309,.T.);
#410=ORIENTED_EDGE('',*,*,#307,.T.);
#411=ORIENTED_EDGE('',*,*,#305,.T.);
#412=ORIENTED_EDGE('',*,*,#303,.T.);
#413=ORIENTED_EDGE('',*,*,#318,.T.);
#414=ORIENTED_EDGE('',*,*,#319,.T.);
#415=ORIENTED_EDGE('',*,*,#320,.T.);
#416=ORIENTED_EDGE('',*,*,#321,.F.);
#417=ORIENTED_EDGE('',*,*,#322,.T.);
#418=ORIENTED_EDGE('',*,*,#323,.T.);
#419=ORIENTED_EDGE('',*,*,#324,.T.);
#420=ORIENTED_EDGE('',*,*,#325,.T.);
#421=ORIENTED_EDGE('',*,*,#326,.F.);
#422=ORIENTED_EDGE('',*,*,#327,.F.);
#423=ORIENTED_EDGE('',*,*,#328,.F.);
#424=ORIENTED_EDGE('',*,*,#319,.F.);
#425=ORIENTED_EDGE('',*,*,#328,.T.);
#426=ORIENTED_EDGE('',*,*,#329,.F.);
#427=ORIENTED_EDGE('',*,*,#330,.F.);
#428=ORIENTED_EDGE('',*,*,#320,.F.);
#429=ORIENTED_EDGE('',*,*,#331,.F.);
#430=ORIENTED_EDGE('',*,*,#332,.F.);
#431=ORIENTED_EDGE('',*,*,#333,.F.);
#432=ORIENTED_EDGE('',*,*,#322,.F.);
#433=ORIENTED_EDGE('',*,*,#333,.T.);
#434=ORIENTED_EDGE('',*,*,#334,.F.);
#435=ORIENTED_EDGE('',*,*,#335,.F.);
#436=ORIENTED_EDGE('',*,*,#323,.F.);
#437=ORIENTED_EDGE('',*,*,#335,.T.);
#438=ORIENTED_EDGE('',*,*,#336,.F.);
#439=ORIENTED_EDGE('',*,*,#337,.F.);
#440=ORIENTED_EDGE('',*,*,#324,.F.);
#441=ORIENTED_EDGE('',*,*,#337,.T.);
#442=ORIENTED_EDGE('',*,*,#338,.F.);
#443=ORIENTED_EDGE('',*,*,#339,.F.);
#444=ORIENTED_EDGE('',*,*,#325,.F.);
#445=ORIENTED_EDGE('',*,*,#339,.T.);
#446=ORIENTED_EDGE('',*,*,#340,.F.);
#447=ORIENTED_EDGE('',*,*,#326,.T.);
#448=ORIENTED_EDGE('',*,*,#318,.F.);
#449=ORIENTED_EDGE('',*,*,#340,.T.);
#450=ORIENTED_EDGE('',*,*,#338,.T.);
#451=ORIENTED_EDGE('',*,*,#336,.T.);
#452=ORIENTED_EDGE('',*,*,#334,.T.);
#453=ORIENTED_EDGE('',*,*,#332,.T.);
#454=ORIENTED_EDGE('',*,*,#341,.F.);
#455=ORIENTED_EDGE('',*,*,#329,.T.);
#456=ORIENTED_EDGE('',*,*,#327,.T.);
#457=ORIENTED_EDGE('',*,*,#342,.F.);
#458=ORIENTED_EDGE('',*,*,#343,.T.);
#459=ORIENTED_EDGE('',*,*,#344,.T.);
#460=ORIENTED_EDGE('',*,*,#343,.F.);
#461=ORIENTED_EDGE('',*,*,#344,.F.);
#462=ORIENTED_EDGE('',*,*,#345,.F.);
#463=ORIENTED_EDGE('',*,*,#346,.F.);
#464=ORIENTED_EDGE('',*,*,#347,.T.);
#465=ORIENTED_EDGE('',*,*,#348,.T.);
#466=ORIENTED_EDGE('',*,*,#347,.F.);
#467=ORIENTED_EDGE('',*,*,#348,.F.);
#468=ORIENTED_EDGE('',*,*,#349,.F.);
#469=ORIENTED_EDGE('',*,*,#350,.F.);
#470=ORIENTED_EDGE('',*,*,#351,.T.);
#471=ORIENTED_EDGE('',*,*,#345,.T.);
#472=ORIENTED_EDGE('',*,*,#351,.F.);
#473=ORIENTED_EDGE('',*,*,#352,.F.);
#474=ORIENTED_EDGE('',*,*,#353,.T.);
#475=ORIENTED_EDGE('',*,*,#349,.T.);
#476=ORIENTED_EDGE('',*,*,#353,.F.);
#477=ORIENTED_EDGE('',*,*,#354,.T.);
#478=ORIENTED_EDGE('',*,*,#355,.T.);
#479=ORIENTED_EDGE('',*,*,#356,.T.);
#480=ORIENTED_EDGE('',*,*,#357,.T.);
#481=ORIENTED_EDGE('',*,*,#358,.T.);
#482=ORIENTED_EDGE('',*,*,#359,.F.);
#483=ORIENTED_EDGE('',*,*,#360,.F.);
#484=ORIENTED_EDGE('',*,*,#361,.F.);
#485=ORIENTED_EDGE('',*,*,#355,.F.);
#486=ORIENTED_EDGE('',*,*,#301,.T.);
#487=ORIENTED_EDGE('',*,*,#314,.T.);
#488=ORIENTED_EDGE('',*,*,#317,.T.);
#489=ORIENTED_EDGE('',*,*,#315,.T.);
#490=ORIENTED_EDGE('',*,*,#321,.T.);
#491=ORIENTED_EDGE('',*,*,#330,.T.);
#492=ORIENTED_EDGE('',*,*,#341,.T.);
#493=ORIENTED_EDGE('',*,*,#331,.T.);
#494=ORIENTED_EDGE('',*,*,#346,.T.);
#495=ORIENTED_EDGE('',*,*,#361,.T.);
#496=ORIENTED_EDGE('',*,*,#362,.F.);
#497=ORIENTED_EDGE('',*,*,#363,.F.);
#498=ORIENTED_EDGE('',*,*,#356,.F.);
#499=ORIENTED_EDGE('',*,*,#363,.T.);
#500=ORIENTED_EDGE('',*,*,#364,.F.);
#501=ORIENTED_EDGE('',*,*,#365,.F.);
#502=ORIENTED_EDGE('',*,*,#357,.F.);
#503=ORIENTED_EDGE('',*,*,#350,.T.);
#504=ORIENTED_EDGE('',*,*,#352,.T.);
#505=ORIENTED_EDGE('',*,*,#365,.T.);
#506=ORIENTED_EDGE('',*,*,#366,.F.);
#507=ORIENTED_EDGE('',*,*,#367,.F.);
#508=ORIENTED_EDGE('',*,*,#358,.F.);
#509=ORIENTED_EDGE('',*,*,#367,.T.);
#510=ORIENTED_EDGE('',*,*,#368,.F.);
#511=ORIENTED_EDGE('',*,*,#359,.T.);
#512=ORIENTED_EDGE('',*,*,#354,.F.);
#513=ORIENTED_EDGE('',*,*,#342,.T.);
#514=ORIENTED_EDGE('',*,*,#368,.T.);
#515=ORIENTED_EDGE('',*,*,#366,.T.);
#516=ORIENTED_EDGE('',*,*,#364,.T.);
#517=ORIENTED_EDGE('',*,*,#362,.T.);
#518=ORIENTED_EDGE('',*,*,#360,.T.);
#519=PLANE('',#600);
#520=PLANE('',#601);
#521=PLANE('',#602);
#522=PLANE('',#603);
#523=PLANE('',#604);
#524=PLANE('',#605);
#525=PLANE('',#606);
#526=PLANE('',#607);
#527=PLANE('',#608);
#528=PLANE('',#609);
#529=PLANE('',#610);
#530=PLANE('',#611);
#531=PLANE('',#612);
#532=PLANE('',#613);
#533=PLANE('',#614);
#534=PLANE('',#615);
#535=PLANE('',#616);
#536=PLANE('',#617);
#537=PLANE('',#621);
#538=PLANE('',#626);
#539=PLANE('',#632);
#540=PLANE('',#633);
#541=PLANE('',#634);
#542=PLANE('',#635);
#543=PLANE('',#636);
#544=PLANE('',#637);
#545=PLANE('',#638);
#546=ADVANCED_FACE('',(#40),#519,.T.);
#547=ADVANCED_FACE('',(#41),#520,.T.);
#548=ADVANCED_FACE('',(#42),#521,.T.);
#549=ADVANCED_FACE('',(#43),#522,.T.);
#550=ADVANCED_FACE('',(#44),#523,.T.);
#551=ADVANCED_FACE('',(#45),#524,.T.);
#552=ADVANCED_FACE('',(#46),#525,.T.);
#553=ADVANCED_FACE('',(#47),#526,.T.);
#554=ADVANCED_FACE('',(#48),#527,.T.);
#555=ADVANCED_FACE('',(#49),#528,.T.);
#556=ADVANCED_FACE('',(#50),#529,.T.);
#557=ADVANCED_FACE('',(#51),#530,.T.);
#558=ADVANCED_FACE('',(#52),#531,.T.);
#559=ADVANCED_FACE('',(#53),#532,.T.);
#560=ADVANCED_FACE('',(#54),#533,.T.);
#561=ADVANCED_FACE('',(#55),#534,.T.);
#562=ADVANCED_FACE('',(#56),#535,.T.);
#563=ADVANCED_FACE('',(#57),#536,.T.);
#564=ADVANCED_FACE('',(#58),#36,.F.);
#565=ADVANCED_FACE('',(#59,#20),#537,.T.);
#566=ADVANCED_FACE('',(#60),#37,.F.);
#567=ADVANCED_FACE('',(#61,#21),#538,.T.);
#568=ADVANCED_FACE('',(#62),#38,.F.);
#569=ADVANCED_FACE('',(#63),#39,.F.);
#570=ADVANCED_FACE('',(#64),#539,.T.);
#571=ADVANCED_FACE('',(#65,#22,#23,#24),#540,.T.);
#572=ADVANCED_FACE('',(#66),#541,.T.);
#573=ADVANCED_FACE('',(#67,#25,#26),#542,.T.);
#574=ADVANCED_FACE('',(#68),#543,.T.);
#575=ADVANCED_FACE('',(#69,#27),#544,.T.);
#576=ADVANCED_FACE('',(#70),#545,.T.);
#577=CLOSED_SHELL('',(#546,#547,#548,#549,#550,#551,#552,#553,#554,#555,
#556,#557,#558,#559,#560,#561,#562,#563,#564,#565,#566,#567,#568,#569,#570,
#571,#572,#573,#574,#575,#576));
#578=DERIVED_UNIT_ELEMENT(#581,1.);
#579=DERIVED_UNIT_ELEMENT(#951,-3.);
#580=DIMENSIONAL_EXPONENTS(0.,1.,0.,0.,0.,0.,0.);
#581=(
CONVERSION_BASED_UNIT('gram',#583)
MASS_UNIT()
NAMED_UNIT(#580)
);
#582=(
MASS_UNIT()
NAMED_UNIT(*)
SI_UNIT(.KILO.,.GRAM.)
);
#583=MASS_MEASURE_WITH_UNIT(MASS_MEASURE(0.001),#582);
#584=DERIVED_UNIT((#578,#579));
#585=MEASURE_REPRESENTATION_ITEM('density measure',
POSITIVE_RATIO_MEASURE(1.),#584);
#586=PROPERTY_DEFINITION_REPRESENTATION(#591,#588);
#587=PROPERTY_DEFINITION_REPRESENTATION(#592,#589);
#588=REPRESENTATION('material name',(#590),#948);
#589=REPRESENTATION('density',(#585),#948);
#590=DESCRIPTIVE_REPRESENTATION_ITEM('\X2\C77CBC18\X0\','\X2\C77CBC18\X0\');
#591=PROPERTY_DEFINITION('material property','material name',#958);
#592=PROPERTY_DEFINITION('material property','density of part',#958);
#593=DATE_TIME_ROLE('creation_date');
#594=APPLIED_DATE_AND_TIME_ASSIGNMENT(#595,#593,(#958));
#595=DATE_AND_TIME(#596,#597);
#596=CALENDAR_DATE(2026,14,8);
#597=LOCAL_TIME(0,0,0.,#598);
#598=COORDINATED_UNIVERSAL_TIME_OFFSET(0,0,.BEHIND.);
#599=AXIS2_PLACEMENT_3D('',#786,#639,#640);
#600=AXIS2_PLACEMENT_3D('',#787,#641,#642);
#601=AXIS2_PLACEMENT_3D('',#804,#651,#652);
#602=AXIS2_PLACEMENT_3D('',#810,#656,#657);
#603=AXIS2_PLACEMENT_3D('',#814,#660,#661);
#604=AXIS2_PLACEMENT_3D('',#818,#664,#665);
#605=AXIS2_PLACEMENT_3D('',#822,#668,#669);
#606=AXIS2_PLACEMENT_3D('',#826,#672,#673);
#607=AXIS2_PLACEMENT_3D('',#830,#676,#677);
#608=AXIS2_PLACEMENT_3D('',#834,#680,#681);
#609=AXIS2_PLACEMENT_3D('',#836,#683,#684);
#610=AXIS2_PLACEMENT_3D('',#853,#693,#694);
#611=AXIS2_PLACEMENT_3D('',#859,#698,#699);
#612=AXIS2_PLACEMENT_3D('',#863,#702,#703);
#613=AXIS2_PLACEMENT_3D('',#869,#707,#708);
#614=AXIS2_PLACEMENT_3D('',#873,#711,#712);
#615=AXIS2_PLACEMENT_3D('',#877,#715,#716);
#616=AXIS2_PLACEMENT_3D('',#881,#719,#720);
#617=AXIS2_PLACEMENT_3D('',#883,#722,#723);
#618=AXIS2_PLACEMENT_3D('',#885,#725,#726);
#619=AXIS2_PLACEMENT_3D('',#887,#727,#728);
#620=AXIS2_PLACEMENT_3D('',#890,#730,#731);
#621=AXIS2_PLACEMENT_3D('',#891,#732,#733);
#622=AXIS2_PLACEMENT_3D('',#893,#734,#735);
#623=AXIS2_PLACEMENT_3D('',#894,#736,#737);
#624=AXIS2_PLACEMENT_3D('',#896,#738,#739);
#625=AXIS2_PLACEMENT_3D('',#899,#741,#742);
#626=AXIS2_PLACEMENT_3D('',#900,#743,#744);
#627=AXIS2_PLACEMENT_3D('',#902,#745,#746);
#628=AXIS2_PLACEMENT_3D('',#903,#747,#748);
#629=AXIS2_PLACEMENT_3D('',#905,#749,#750);
#630=AXIS2_PLACEMENT_3D('',#907,#752,#753);
#631=AXIS2_PLACEMENT_3D('',#909,#754,#755);
#632=AXIS2_PLACEMENT_3D('',#911,#757,#758);
#633=AXIS2_PLACEMENT_3D('',#922,#764,#765);
#634=AXIS2_PLACEMENT_3D('',#928,#769,#770);
#635=AXIS2_PLACEMENT_3D('',#932,#773,#774);
#636=AXIS2_PLACEMENT_3D('',#936,#777,#778);
#637=AXIS2_PLACEMENT_3D('',#940,#781,#782);
#638=AXIS2_PLACEMENT_3D('',#942,#784,#785);
#639=DIRECTION('axis',(0.,0.,1.));
#640=DIRECTION('refdir',(1.,0.,0.));
#641=DIRECTION('center_axis',(0.,0.939692620785908,-0.342020143325669));
#642=DIRECTION('ref_axis',(0.,0.342020143325669,0.939692620785908));
#643=DIRECTION('',(0.,0.342020143325669,0.939692620785908));
#644=DIRECTION('',(-1.,-1.74297079740345E-15,-4.7887729086348E-15));
#645=DIRECTION('',(0.,0.342020143325669,0.939692620785908));
#646=DIRECTION('',(1.,7.11972446260787E-17,1.95612821937538E-16));
#647=DIRECTION('',(0.,-0.342020143325669,-0.939692620785908));
#648=DIRECTION('',(-1.,-3.11244785250618E-17,-8.55138019399076E-17));
#649=DIRECTION('',(0.,-0.342020143325669,-0.939692620785908));
#650=DIRECTION('',(1.,0.,0.));
#651=DIRECTION('center_axis',(5.09610568680397E-15,-0.342020143325669,-0.939692620785909));
#652=DIRECTION('ref_axis',(1.,1.74297079740345E-15,4.7887729086348E-15));
#653=DIRECTION('',(0.,0.939692620785908,-0.342020143325669));
#654=DIRECTION('',(1.,1.74297079740345E-15,4.7887729086348E-15));
#655=DIRECTION('',(0.,-0.939692620785909,0.342020143325669));
#656=DIRECTION('center_axis',(-1.,0.,0.));
#657=DIRECTION('ref_axis',(0.,-0.342020143325669,-0.939692620785908));
#658=DIRECTION('',(0.,-0.342020143325669,-0.939692620785908));
#659=DIRECTION('',(0.,-0.939692620785909,0.342020143325669));
#660=DIRECTION('center_axis',(-2.08166817117217E-16,0.342020143325669,0.939692620785909));
#661=DIRECTION('ref_axis',(-1.,-7.11972446260787E-17,-1.95612821937538E-16));
#662=DIRECTION('',(-1.,-7.11972446260787E-17,-1.95612821937538E-16));
#663=DIRECTION('',(0.,-0.939692620785909,0.342020143325669));
#664=DIRECTION('center_axis',(1.,0.,0.));
#665=DIRECTION('ref_axis',(0.,0.342020143325669,0.939692620785908));
#666=DIRECTION('',(0.,0.342020143325669,0.939692620785908));
#667=DIRECTION('',(0.,-0.939692620785909,0.342020143325669));
#668=DIRECTION('center_axis',(9.10018872643572E-17,-0.342020143325669,-0.939692620785909));
#669=DIRECTION('ref_axis',(1.,3.11244785250618E-17,8.55138019399076E-17));
#670=DIRECTION('',(1.,3.11244785250618E-17,8.55138019399076E-17));
#671=DIRECTION('',(0.,-0.939692620785909,0.342020143325669));
#672=DIRECTION('center_axis',(1.,0.,0.));
#673=DIRECTION('ref_axis',(0.,0.342020143325669,0.939692620785908));
#674=DIRECTION('',(0.,0.342020143325669,0.939692620785908));
#675=DIRECTION('',(0.,-0.939692620785908,0.342020143325669));
#676=DIRECTION('center_axis',(-1.,0.,0.));
#677=DIRECTION('ref_axis',(0.,-0.342020143325669,-0.939692620785908));
#678=DIRECTION('',(0.,0.939692620785908,-0.342020143325669));
#679=DIRECTION('',(0.,-0.342020143325669,-0.939692620785908));
#680=DIRECTION('center_axis',(0.,-0.939692620785909,0.342020143325669));
#681=DIRECTION('ref_axis',(0.,-0.342020143325669,-0.939692620785909));
#682=DIRECTION('',(-1.,0.,0.));
#683=DIRECTION('center_axis',(0.,0.939692620785908,-0.342020143325669));
#684=DIRECTION('ref_axis',(0.,0.342020143325669,0.939692620785908));
#685=DIRECTION('',(0.,-0.342020143325669,-0.939692620785908));
#686=DIRECTION('',(-1.,1.64959736182827E-15,4.53223150281509E-15));
#687=DIRECTION('',(0.,-0.342020143325669,-0.939692620785908));
#688=DIRECTION('',(1.,0.,0.));
#689=DIRECTION('',(0.,0.342020143325669,0.939692620785908));
#690=DIRECTION('',(-1.,-3.11244785250618E-17,-8.55138019399075E-17));
#691=DIRECTION('',(2.96059473233375E-15,0.342020143325669,0.939692620785908));
#692=DIRECTION('',(1.,0.,0.));
#693=DIRECTION('center_axis',(-4.82310002501092E-15,-0.342020143325669,
-0.939692620785908));
#694=DIRECTION('ref_axis',(1.,-1.64959736182827E-15,-4.53223150281509E-15));
#695=DIRECTION('',(0.,0.939692620785908,-0.342020143325669));
#696=DIRECTION('',(1.,-1.64959736182827E-15,-4.53223150281509E-15));
#697=DIRECTION('',(0.,-0.939692620785908,0.342020143325669));
#698=DIRECTION('center_axis',(1.,0.,0.));
#699=DIRECTION('ref_axis',(0.,0.342020143325669,0.939692620785908));
#700=DIRECTION('',(0.,0.342020143325669,0.939692620785908));
#701=DIRECTION('',(0.,-0.939692620785908,0.342020143325669));
#702=DIRECTION('center_axis',(-1.,0.,0.));
#703=DIRECTION('ref_axis',(0.,-0.342020143325669,-0.939692620785908));
#704=DIRECTION('',(0.,0.939692620785908,-0.342020143325669));
#705=DIRECTION('',(0.,-0.342020143325669,-0.939692620785908));
#706=DIRECTION('',(0.,-0.939692620785908,0.342020143325669));
#707=DIRECTION('center_axis',(9.1001887264357E-17,-0.342020143325669,-0.939692620785908));
#708=DIRECTION('ref_axis',(1.,3.11244785250618E-17,8.55138019399075E-17));
#709=DIRECTION('',(1.,3.11244785250618E-17,8.55138019399075E-17));
#710=DIRECTION('',(0.,-0.939692620785908,0.342020143325669));
#711=DIRECTION('center_axis',(-1.,1.01258303468201E-15,2.78204902311166E-15));
#712=DIRECTION('ref_axis',(-2.96059473233375E-15,-0.342020143325669,-0.939692620785908));
#713=DIRECTION('',(-2.96059473233375E-15,-0.342020143325669,-0.939692620785908));
#714=DIRECTION('',(0.,-0.939692620785908,0.342020143325669));
#715=DIRECTION('center_axis',(0.,0.342020143325669,0.939692620785908));
#716=DIRECTION('ref_axis',(-1.,0.,0.));
#717=DIRECTION('',(-1.,0.,0.));
#718=DIRECTION('',(0.,-0.939692620785908,0.342020143325669));
#719=DIRECTION('center_axis',(1.,0.,0.));
#720=DIRECTION('ref_axis',(0.,0.342020143325669,0.939692620785908));
#721=DIRECTION('',(0.,0.342020143325669,0.939692620785908));
#722=DIRECTION('center_axis',(0.,-0.939692620785908,0.342020143325669));
#723=DIRECTION('ref_axis',(0.,-0.342020143325669,-0.939692620785908));
#724=DIRECTION('',(-1.,0.,0.));
#725=DIRECTION('center_axis',(0.,0.,-1.));
#726=DIRECTION('ref_axis',(1.,0.,0.));
#727=DIRECTION('center_axis',(0.,0.879241933897177,-0.47637550490842));
#728=DIRECTION('ref_axis',(0.,-0.47637550490842,-0.879241933897177));
#729=DIRECTION('',(0.,0.,-1.));
#730=DIRECTION('center_axis',(0.,0.,-1.));
#731=DIRECTION('ref_axis',(1.,0.,0.));
#732=DIRECTION('center_axis',(0.,0.,1.));
#733=DIRECTION('ref_axis',(1.,0.,0.));
#734=DIRECTION('center_axis',(0.,0.,1.));
#735=DIRECTION('ref_axis',(-1.,0.,0.));
#736=DIRECTION('center_axis',(0.,0.,-1.));
#737=DIRECTION('ref_axis',(1.,0.,0.));
#738=DIRECTION('center_axis',(0.,-0.342020143325669,-0.939692620785908));
#739=DIRECTION('ref_axis',(0.,-0.939692620785908,0.342020143325669));
#740=DIRECTION('',(0.,0.,-1.));
#741=DIRECTION('center_axis',(0.,0.,-1.));
#742=DIRECTION('ref_axis',(1.,0.,0.));
#743=DIRECTION('center_axis',(0.,0.,1.));
#744=DIRECTION('ref_axis',(1.,0.,0.));
#745=DIRECTION('center_axis',(0.,0.,1.));
#746=DIRECTION('ref_axis',(-1.,0.,0.));
#747=DIRECTION('center_axis',(0.,-2.22044604925031E-16,1.));
#748=DIRECTION('ref_axis',(-1.,0.,0.));
#749=DIRECTION('center_axis',(0.,-2.46716227694479E-16,1.));
#750=DIRECTION('ref_axis',(-1.,0.,0.));
#751=DIRECTION('',(0.,-2.22044604925031E-16,1.));
#752=DIRECTION('center_axis',(0.,-2.22044604925031E-16,1.));
#753=DIRECTION('ref_axis',(-1.,0.,0.));
#754=DIRECTION('center_axis',(0.,-2.46716227694479E-16,1.));
#755=DIRECTION('ref_axis',(-1.,0.,0.));
#756=DIRECTION('',(0.,-2.22044604925031E-16,1.));
#757=DIRECTION('center_axis',(-1.,0.,0.));
#758=DIRECTION('ref_axis',(0.,0.,1.));
#759=DIRECTION('',(0.,0.47637550490842,0.879241933897177));
#760=DIRECTION('',(0.,0.939692620785908,-0.342020143325669));
#761=DIRECTION('',(0.,0.,-1.));
#762=DIRECTION('',(0.,-1.,-2.46716227694479E-16));
#763=DIRECTION('',(0.,0.,1.));
#764=DIRECTION('center_axis',(0.,0.342020143325669,0.939692620785908));
#765=DIRECTION('ref_axis',(0.,-0.939692620785908,0.342020143325669));
#766=DIRECTION('',(-1.,0.,0.));
#767=DIRECTION('',(0.,-0.939692620785908,0.342020143325669));
#768=DIRECTION('',(1.,0.,0.));
#769=DIRECTION('center_axis',(0.,1.,0.));
#770=DIRECTION('ref_axis',(0.,0.,1.));
#771=DIRECTION('',(0.,0.,1.));
#772=DIRECTION('',(1.,0.,0.));
#773=DIRECTION('center_axis',(0.,2.46716227694479E-16,-1.));
#774=DIRECTION('ref_axis',(0.,1.,2.46716227694479E-16));
#775=DIRECTION('',(0.,1.,2.46716227694479E-16));
#776=DIRECTION('',(1.,0.,0.));
#777=DIRECTION('center_axis',(0.,-1.,0.));
#778=DIRECTION('ref_axis',(0.,0.,-1.));
#779=DIRECTION('',(0.,0.,-1.));
#780=DIRECTION('',(1.,0.,0.));
#781=DIRECTION('center_axis',(0.,-0.879241933897177,0.47637550490842));
#782=DIRECTION('ref_axis',(0.,-0.47637550490842,-0.879241933897177));
#783=DIRECTION('',(0.,-0.47637550490842,-0.879241933897177));
#784=DIRECTION('center_axis',(1.,0.,0.));
#785=DIRECTION('ref_axis',(0.,0.,-1.));
#786=CARTESIAN_POINT('',(0.,0.,0.));
#787=CARTESIAN_POINT('Origin',(9.94999999999999,35.0898973833466,6.43274409293471));
#788=CARTESIAN_POINT('',(9.,34.4913621325267,4.78828200655936));
#789=CARTESIAN_POINT('',(9.,35.175402419178,6.6676672481312));
#790=CARTESIAN_POINT('',(9.,35.175402419178,6.66766724813119));
#791=CARTESIAN_POINT('',(5.94999999999999,35.175402419178,6.66766724813118));
#792=CARTESIAN_POINT('',(5.94999999999999,35.175402419178,6.66766724813118));
#793=CARTESIAN_POINT('',(5.94999999999999,35.6884326341665,8.07720617931004));
#794=CARTESIAN_POINT('',(5.94999999999999,35.6884326341665,8.07720617931004));
#795=CARTESIAN_POINT('',(13.95,35.6884326341665,8.07720617931005));
#796=CARTESIAN_POINT('',(13.95,35.6884326341665,8.07720617931004));
#797=CARTESIAN_POINT('',(13.95,35.175402419178,6.66766724813118));
#798=CARTESIAN_POINT('',(13.95,35.175402419178,6.66766724813118));
#799=CARTESIAN_POINT('',(10.9,35.175402419178,6.66766724813118));
#800=CARTESIAN_POINT('',(10.9,35.175402419178,6.66766724813118));
#801=CARTESIAN_POINT('',(10.9,34.4913621325267,4.78828200655936));
#802=CARTESIAN_POINT('',(10.9,34.4913621325267,4.78828200655936));
#803=CARTESIAN_POINT('',(4.975,34.4913621325267,4.78828200655936));
#804=CARTESIAN_POINT('Origin',(5.94999999999999,29.5372466944626,8.7197881080852));
#805=CARTESIAN_POINT('',(9.,23.8990909697471,10.7719089680392));
#806=CARTESIAN_POINT('',(9.,29.5372466944626,8.71978810808521));
#807=CARTESIAN_POINT('',(5.94999999999999,23.8990909697471,10.7719089680392));
#808=CARTESIAN_POINT('',(5.94999999999999,23.8990909697471,10.7719089680392));
#809=CARTESIAN_POINT('',(5.94999999999999,29.5372466944626,8.7197881080852));
#810=CARTESIAN_POINT('Origin',(5.94999999999999,30.0502769094511,10.1293270392641));
#811=CARTESIAN_POINT('',(5.94999999999999,24.4121211847356,12.1814478992181));
#812=CARTESIAN_POINT('',(5.94999999999999,24.4121211847356,12.1814478992181));
#813=CARTESIAN_POINT('',(5.94999999999999,30.0502769094511,10.1293270392641));
#814=CARTESIAN_POINT('Origin',(13.95,30.0502769094511,10.1293270392641));
#815=CARTESIAN_POINT('',(13.95,24.4121211847356,12.1814478992181));
#816=CARTESIAN_POINT('',(13.95,24.4121211847356,12.1814478992181));
#817=CARTESIAN_POINT('',(13.95,30.0502769094511,10.1293270392641));
#818=CARTESIAN_POINT('Origin',(13.95,29.5372466944626,8.7197881080852));
#819=CARTESIAN_POINT('',(13.95,23.8990909697471,10.7719089680392));
#820=CARTESIAN_POINT('',(13.95,23.8990909697471,10.7719089680392));
#821=CARTESIAN_POINT('',(13.95,29.5372466944626,8.7197881080852));
#822=CARTESIAN_POINT('Origin',(10.9,29.5372466944626,8.7197881080852));
#823=CARTESIAN_POINT('',(10.9,23.8990909697471,10.7719089680392));
#824=CARTESIAN_POINT('',(10.9,23.8990909697471,10.7719089680392));
#825=CARTESIAN_POINT('',(10.9,29.5372466944626,8.7197881080852));
#826=CARTESIAN_POINT('Origin',(10.9,28.8532064078112,6.84040286651338));
#827=CARTESIAN_POINT('',(10.9,23.2150506830958,8.89252372646739));
#828=CARTESIAN_POINT('',(10.9,23.2150506830958,8.89252372646739));
#829=CARTESIAN_POINT('',(10.9,38.2501326156703,3.42020143325669));
#830=CARTESIAN_POINT('Origin',(9.,29.5372466944626,8.71978810808521));
#831=CARTESIAN_POINT('',(9.,23.2150506830958,8.89252372646739));
#832=CARTESIAN_POINT('',(9.,38.2501326156703,3.42020143325669));
#833=CARTESIAN_POINT('',(9.,23.8990909697471,10.7719089680392));
#834=CARTESIAN_POINT('Origin',(9.94999999999999,23.8135859339157,10.5369858128427));
#835=CARTESIAN_POINT('',(4.975,23.2150506830958,8.89252372646739));
#836=CARTESIAN_POINT('Origin',(-9.95,35.0898973833466,6.4327440929347));
#837=CARTESIAN_POINT('',(-5.95,35.6884326341665,8.07720617931004));
#838=CARTESIAN_POINT('',(-5.95,35.175402419178,6.66766724813118));
#839=CARTESIAN_POINT('',(-5.95,35.175402419178,6.66766724813118));
#840=CARTESIAN_POINT('',(-9.,35.175402419178,6.6676672481312));
#841=CARTESIAN_POINT('',(-9.,35.175402419178,6.66766724813119));
#842=CARTESIAN_POINT('',(-9.,34.4913621325267,4.78828200655936));
#843=CARTESIAN_POINT('',(-9.,34.4913621325267,4.78828200655936));
#844=CARTESIAN_POINT('',(-10.9,34.4913621325267,4.78828200655936));
#845=CARTESIAN_POINT('',(-4.975,34.4913621325267,4.78828200655936));
#846=CARTESIAN_POINT('',(-10.9,35.175402419178,6.66766724813118));
#847=CARTESIAN_POINT('',(-10.9,35.175402419178,6.66766724813118));
#848=CARTESIAN_POINT('',(-13.95,35.175402419178,6.66766724813118));
#849=CARTESIAN_POINT('',(-13.95,35.175402419178,6.66766724813118));
#850=CARTESIAN_POINT('',(-13.95,35.6884326341665,8.07720617931004));
#851=CARTESIAN_POINT('',(-13.95,35.6884326341665,8.07720617931004));
#852=CARTESIAN_POINT('',(-5.95,35.6884326341665,8.07720617931004));
#853=CARTESIAN_POINT('Origin',(-9.,29.5372466944626,8.71978810808521));
#854=CARTESIAN_POINT('',(-5.95,23.8990909697471,10.7719089680392));
#855=CARTESIAN_POINT('',(-5.95,29.5372466944626,8.7197881080852));
#856=CARTESIAN_POINT('',(-9.,23.8990909697471,10.7719089680392));
#857=CARTESIAN_POINT('',(-9.,23.8990909697471,10.7719089680392));
#858=CARTESIAN_POINT('',(-9.,29.5372466944626,8.71978810808521));
#859=CARTESIAN_POINT('Origin',(-9.,28.8532064078112,6.84040286651338));
#860=CARTESIAN_POINT('',(-9.,23.2150506830958,8.89252372646739));
#861=CARTESIAN_POINT('',(-9.,23.2150506830958,8.89252372646739));
#862=CARTESIAN_POINT('',(-9.,38.2501326156703,3.42020143325669));
#863=CARTESIAN_POINT('Origin',(-10.9,29.5372466944626,8.7197881080852));
#864=CARTESIAN_POINT('',(-10.9,23.2150506830958,8.89252372646739));
#865=CARTESIAN_POINT('',(-10.9,38.2501326156703,3.42020143325669));
#866=CARTESIAN_POINT('',(-10.9,23.8990909697471,10.7719089680392));
#867=CARTESIAN_POINT('',(-10.9,23.8990909697471,10.7719089680392));
#868=CARTESIAN_POINT('',(-10.9,29.5372466944626,8.7197881080852));
#869=CARTESIAN_POINT('Origin',(-13.95,29.5372466944626,8.7197881080852));
#870=CARTESIAN_POINT('',(-13.95,23.8990909697471,10.7719089680392));
#871=CARTESIAN_POINT('',(-13.95,23.8990909697471,10.7719089680392));
#872=CARTESIAN_POINT('',(-13.95,29.5372466944626,8.71978810808519));
#873=CARTESIAN_POINT('Origin',(-13.95,30.0502769094511,10.1293270392641));
#874=CARTESIAN_POINT('',(-13.95,24.4121211847356,12.1814478992181));
#875=CARTESIAN_POINT('',(-13.95,24.4121211847356,12.1814478992181));
#876=CARTESIAN_POINT('',(-13.95,30.0502769094511,10.1293270392641));
#877=CARTESIAN_POINT('Origin',(-5.95,30.0502769094511,10.1293270392641));
#878=CARTESIAN_POINT('',(-5.95,24.4121211847356,12.1814478992181));
#879=CARTESIAN_POINT('',(-5.95,24.4121211847356,12.1814478992181));
#880=CARTESIAN_POINT('',(-5.95,30.0502769094511,10.1293270392641));
#881=CARTESIAN_POINT('Origin',(-5.95,29.5372466944626,8.7197881080852));
#882=CARTESIAN_POINT('',(-5.95,23.8990909697471,10.7719089680392));
#883=CARTESIAN_POINT('Origin',(-9.95,23.8135859339157,10.5369858128427));
#884=CARTESIAN_POINT('',(-4.975,23.2150506830958,8.89252372646739));
#885=CARTESIAN_POINT('Origin',(0.,-32.3529411764706,27.));
#886=CARTESIAN_POINT('',(-3.5,-32.3529411764706,18.4569089896049));
#887=CARTESIAN_POINT('Origin',(0.,-32.3529411764706,18.4569089896049));
#888=CARTESIAN_POINT('',(-3.5,-32.3529411764706,0.));
#889=CARTESIAN_POINT('',(-3.5,-32.3529411764706,27.));
#890=CARTESIAN_POINT('Origin',(0.,-32.3529411764706,0.));
#891=CARTESIAN_POINT('Origin',(0.,-32.3529411764706,0.));
#892=CARTESIAN_POINT('',(2.5,-32.3529411764706,0.));
#893=CARTESIAN_POINT('Origin',(0.,-32.3529411764706,0.));
#894=CARTESIAN_POINT('Origin',(0.,37.6470588235294,27.));
#895=CARTESIAN_POINT('',(-3.5,37.6470588235294,3.63970234266203));
#896=CARTESIAN_POINT('Origin',(0.,37.6470588235294,3.63970234266203));
#897=CARTESIAN_POINT('',(-3.5,37.6470588235294,0.));
#898=CARTESIAN_POINT('',(-3.5,37.6470588235294,27.));
#899=CARTESIAN_POINT('Origin',(0.,37.6470588235294,0.));
#900=CARTESIAN_POINT('Origin',(0.,37.6470588235294,0.));
#901=CARTESIAN_POINT('',(2.5,37.6470588235294,0.));
#902=CARTESIAN_POINT('Origin',(0.,37.6470588235294,0.));
#903=CARTESIAN_POINT('Origin',(0.,-32.3529411764706,-4.));
#904=CARTESIAN_POINT('',(2.5,-32.3529411764706,-4.));
#905=CARTESIAN_POINT('Origin',(0.,-32.3529411764706,-4.));
#906=CARTESIAN_POINT('',(2.5,-32.3529411764706,-4.));
#907=CARTESIAN_POINT('Origin',(0.,37.6470588235294,-3.99999999999998));
#908=CARTESIAN_POINT('',(2.5,37.6470588235294,-3.99999999999999));
#909=CARTESIAN_POINT('Origin',(0.,37.6470588235294,-3.99999999999999));
#910=CARTESIAN_POINT('',(2.5,37.6470588235294,-3.99999999999998));
#911=CARTESIAN_POINT('Origin',(-40.,2.64705882352942,11.6808057330267));
#912=CARTESIAN_POINT('',(-40.,-42.3529411764706,0.));
#913=CARTESIAN_POINT('',(-40.,-27.5283508393433,27.3616114660535));
#914=CARTESIAN_POINT('',(-40.,-27.5283508393433,27.3616114660535));
#915=CARTESIAN_POINT('',(-40.,47.6470588235294,0.));
#916=CARTESIAN_POINT('',(-40.,47.6470588235294,0.));
#917=CARTESIAN_POINT('',(-40.,47.6470588235294,-3.99999999999998));
#918=CARTESIAN_POINT('',(-40.,47.6470588235294,-3.99999999999998));
#919=CARTESIAN_POINT('',(-40.,-42.3529411764706,-4.));
#920=CARTESIAN_POINT('',(-40.,-42.3529411764706,-4.));
#921=CARTESIAN_POINT('',(-40.,-42.3529411764706,0.));
#922=CARTESIAN_POINT('Origin',(0.,47.6470588235294,0.));
#923=CARTESIAN_POINT('',(40.,-27.5283508393433,27.3616114660535));
#924=CARTESIAN_POINT('',(0.,-27.5283508393433,27.3616114660535));
#925=CARTESIAN_POINT('',(40.,47.6470588235294,0.));
#926=CARTESIAN_POINT('',(40.,47.6470588235294,0.));
#927=CARTESIAN_POINT('',(0.,47.6470588235294,0.));
#928=CARTESIAN_POINT('Origin',(0.,47.6470588235294,-3.99999999999998));
#929=CARTESIAN_POINT('',(40.,47.6470588235294,-3.99999999999998));
#930=CARTESIAN_POINT('',(40.,47.6470588235294,-3.99999999999998));
#931=CARTESIAN_POINT('',(0.,47.6470588235294,-3.99999999999998));
#932=CARTESIAN_POINT('Origin',(0.,-42.3529411764706,-4.));
#933=CARTESIAN_POINT('',(40.,-42.3529411764706,-4.));
#934=CARTESIAN_POINT('',(40.,-42.3529411764706,-4.));
#935=CARTESIAN_POINT('',(0.,-42.3529411764706,-4.));
#936=CARTESIAN_POINT('Origin',(0.,-42.3529411764706,0.));
#937=CARTESIAN_POINT('',(40.,-42.3529411764706,0.));
#938=CARTESIAN_POINT('',(40.,-42.3529411764706,0.));
#939=CARTESIAN_POINT('',(0.,-42.3529411764706,0.));
#940=CARTESIAN_POINT('Origin',(0.,-27.5283508393433,27.3616114660535));
#941=CARTESIAN_POINT('',(40.,-27.5283508393433,27.3616114660535));
#942=CARTESIAN_POINT('Origin',(40.,2.64705882352942,11.6808057330267));
#943=CARTESIAN_POINT('polyline point',(-40.,47.6470588235294,0.));
#944=CARTESIAN_POINT('polyline point',(40.,47.6470588235294,0.));
#945=CARTESIAN_POINT('',(0.,5.57364709040082,15.3134695248852));
#946=UNCERTAINTY_MEASURE_WITH_UNIT(LENGTH_MEASURE(0.01),#950,
'DISTANCE_ACCURACY_VALUE',
'Maximum model space distance between geometric entities at asserted c
onnectivities');
#947=UNCERTAINTY_MEASURE_WITH_UNIT(LENGTH_MEASURE(0.01),#950,
'DISTANCE_ACCURACY_VALUE',
'Maximum model space distance between geometric entities at asserted c
onnectivities');
#948=(
GEOMETRIC_REPRESENTATION_CONTEXT(3)
GLOBAL_UNCERTAINTY_ASSIGNED_CONTEXT((#946))
GLOBAL_UNIT_ASSIGNED_CONTEXT((#950,#952,#953))
REPRESENTATION_CONTEXT('','3D')
);
#949=(
GEOMETRIC_REPRESENTATION_CONTEXT(3)
GLOBAL_UNCERTAINTY_ASSIGNED_CONTEXT((#947))
GLOBAL_UNIT_ASSIGNED_CONTEXT((#950,#952,#953))
REPRESENTATION_CONTEXT('','3D')
);
#950=(
LENGTH_UNIT()
NAMED_UNIT(*)
SI_UNIT(.MILLI.,.METRE.)
);
#951=(
LENGTH_UNIT()
NAMED_UNIT(*)
SI_UNIT(.CENTI.,.METRE.)
);
#952=(
NAMED_UNIT(*)
PLANE_ANGLE_UNIT()
SI_UNIT($,.RADIAN.)
);
#953=(
NAMED_UNIT(*)
SI_UNIT($,.STERADIAN.)
SOLID_ANGLE_UNIT()
);
#954=SHAPE_DEFINITION_REPRESENTATION(#955,#956);
#955=PRODUCT_DEFINITION_SHAPE('',$,#958);
#956=SHAPE_REPRESENTATION('',(#599),#948);
#957=PRODUCT_DEFINITION_CONTEXT('part definition',#962,'design');
#958=PRODUCT_DEFINITION('LCD_Mount_20degrees','LCD_Mount_20degrees',#959,
#957);
#959=PRODUCT_DEFINITION_FORMATION('',$,#964);
#960=PRODUCT_RELATED_PRODUCT_CATEGORY('LCD_Mount_20degrees',
'LCD_Mount_20degrees',(#964));
#961=APPLICATION_PROTOCOL_DEFINITION('international standard',
'automotive_design',2009,#962);
#962=APPLICATION_CONTEXT(
'Core Data for Automotive Mechanical Design Process');
#963=PRODUCT_CONTEXT('part definition',#962,'mechanical');
#964=PRODUCT('LCD_Mount_20degrees','LCD_Mount_20degrees',$,(#963));
#965=PRESENTATION_STYLE_ASSIGNMENT((#967));
#966=PRESENTATION_STYLE_ASSIGNMENT((#968));
#967=SURFACE_STYLE_USAGE(.BOTH.,#971);
#968=SURFACE_STYLE_USAGE(.BOTH.,#972);
#969=SURFACE_STYLE_RENDERING_WITH_PROPERTIES($,#979,(#970));
#970=SURFACE_STYLE_TRANSPARENT(0.);
#971=SURFACE_SIDE_STYLE('',(#973,#969));
#972=SURFACE_SIDE_STYLE('',(#974));
#973=SURFACE_STYLE_FILL_AREA(#975);
#974=SURFACE_STYLE_FILL_AREA(#976);
#975=FILL_AREA_STYLE('',(#977));
#976=FILL_AREA_STYLE('',(#978));
#977=FILL_AREA_STYLE_COLOUR('',#979);
#978=FILL_AREA_STYLE_COLOUR('',#980);
#979=COLOUR_RGB('',0.749019607843137,0.749019607843137,0.749019607843137);
#980=COLOUR_RGB('',0.913725490196078,0.913725490196078,0.);
ENDSEC;
END-ISO-10303-21;
