ISO-10303-21;
HEADER;
/* Generated by software containing ST-Developer
 * from STEP Tools, Inc. (www.steptools.com) 
 */

FILE_DESCRIPTION(
/* description */ (''),
/* implementation_level */ '2;1');

FILE_NAME(
/* name */ 'Motor_Cover_RH.stp',
/* time_stamp */ '2026-08-28T15:31:12+09:00',
/* author */ ('dalbi'),
/* organization */ (''),
/* preprocessor_version */ 'ST-DEVELOPER v20',
/* originating_system */ 'Autodesk Inventor 2025',
/* authorisation */ '');

FILE_SCHEMA (('AUTOMOTIVE_DESIGN { 1 0 10303 214 3 1 1 }'));
ENDSEC;

DATA;
#10=MECHANICAL_DESIGN_GEOMETRIC_PRESENTATION_REPRESENTATION('',(#1198,#1199,
#1200,#1201,#1202,#1203,#1204,#1205,#1206,#1207,#1208,#1209,#1210,#1211,
#1212,#1213,#1214,#1215,#1216,#1217,#1218,#1219,#1220,#1221,#1222,#1223,
#1224,#1225,#1226,#1227,#1228,#1229,#1230,#1231,#1232,#1233,#1234,#1235,
#1236,#1237,#1238,#1239,#1240,#1241,#1242,#1243),#2148);
#11=SHAPE_REPRESENTATION_RELATIONSHIP('SRR','None',#2155,#12);
#12=ADVANCED_BREP_SHAPE_REPRESENTATION('',(#13),#2147);
#13=MANIFOLD_SOLID_BREP('\X2\C194B9ACB4DC\X0\1',#1305);
#14=FACE_BOUND('',#134,.T.);
#15=FACE_BOUND('',#140,.T.);
#16=FACE_BOUND('',#153,.T.);
#17=FACE_BOUND('',#154,.T.);
#18=FACE_BOUND('',#155,.T.);
#19=FACE_BOUND('',#156,.T.);
#20=FACE_BOUND('',#159,.T.);
#21=FACE_BOUND('',#160,.T.);
#22=FACE_BOUND('',#170,.T.);
#23=FACE_BOUND('',#171,.T.);
#24=CYLINDRICAL_SURFACE('',#1336,6.);
#25=CYLINDRICAL_SURFACE('',#1340,6.);
#26=CYLINDRICAL_SURFACE('',#1348,22.);
#27=CYLINDRICAL_SURFACE('',#1373,24.);
#28=CYLINDRICAL_SURFACE('',#1376,4.5);
#29=CYLINDRICAL_SURFACE('',#1380,4.5);
#30=CYLINDRICAL_SURFACE('',#1387,4.5);
#31=CYLINDRICAL_SURFACE('',#1391,4.5);
#32=CYLINDRICAL_SURFACE('',#1398,3.);
#33=CYLINDRICAL_SURFACE('',#1401,3.);
#34=CYLINDRICAL_SURFACE('',#1404,3.);
#35=CYLINDRICAL_SURFACE('',#1408,3.);
#36=CYLINDRICAL_SURFACE('',#1410,9.);
#37=CYLINDRICAL_SURFACE('',#1414,8.99999999999999);
#38=CYLINDRICAL_SURFACE('',#1420,2.5);
#39=CYLINDRICAL_SURFACE('',#1426,2.5);
#40=FACE_OUTER_BOUND('',#101,.T.);
#41=FACE_OUTER_BOUND('',#102,.T.);
#42=FACE_OUTER_BOUND('',#103,.T.);
#43=FACE_OUTER_BOUND('',#104,.T.);
#44=FACE_OUTER_BOUND('',#105,.T.);
#45=FACE_OUTER_BOUND('',#106,.T.);
#46=FACE_OUTER_BOUND('',#107,.T.);
#47=FACE_OUTER_BOUND('',#108,.T.);
#48=FACE_OUTER_BOUND('',#109,.T.);
#49=FACE_OUTER_BOUND('',#110,.T.);
#50=FACE_OUTER_BOUND('',#111,.T.);
#51=FACE_OUTER_BOUND('',#112,.T.);
#52=FACE_OUTER_BOUND('',#113,.T.);
#53=FACE_OUTER_BOUND('',#114,.T.);
#54=FACE_OUTER_BOUND('',#115,.T.);
#55=FACE_OUTER_BOUND('',#116,.T.);
#56=FACE_OUTER_BOUND('',#117,.T.);
#57=FACE_OUTER_BOUND('',#118,.T.);
#58=FACE_OUTER_BOUND('',#119,.T.);
#59=FACE_OUTER_BOUND('',#120,.T.);
#60=FACE_OUTER_BOUND('',#121,.T.);
#61=FACE_OUTER_BOUND('',#122,.T.);
#62=FACE_OUTER_BOUND('',#123,.T.);
#63=FACE_OUTER_BOUND('',#124,.T.);
#64=FACE_OUTER_BOUND('',#125,.T.);
#65=FACE_OUTER_BOUND('',#126,.T.);
#66=FACE_OUTER_BOUND('',#127,.T.);
#67=FACE_OUTER_BOUND('',#128,.T.);
#68=FACE_OUTER_BOUND('',#129,.T.);
#69=FACE_OUTER_BOUND('',#130,.T.);
#70=FACE_OUTER_BOUND('',#131,.T.);
#71=FACE_OUTER_BOUND('',#132,.T.);
#72=FACE_OUTER_BOUND('',#133,.T.);
#73=FACE_OUTER_BOUND('',#135,.T.);
#74=FACE_OUTER_BOUND('',#136,.T.);
#75=FACE_OUTER_BOUND('',#137,.T.);
#76=FACE_OUTER_BOUND('',#138,.T.);
#77=FACE_OUTER_BOUND('',#139,.T.);
#78=FACE_OUTER_BOUND('',#141,.T.);
#79=FACE_OUTER_BOUND('',#142,.T.);
#80=FACE_OUTER_BOUND('',#143,.T.);
#81=FACE_OUTER_BOUND('',#144,.T.);
#82=FACE_OUTER_BOUND('',#145,.T.);
#83=FACE_OUTER_BOUND('',#146,.T.);
#84=FACE_OUTER_BOUND('',#147,.T.);
#85=FACE_OUTER_BOUND('',#148,.T.);
#86=FACE_OUTER_BOUND('',#149,.T.);
#87=FACE_OUTER_BOUND('',#150,.T.);
#88=FACE_OUTER_BOUND('',#151,.T.);
#89=FACE_OUTER_BOUND('',#152,.T.);
#90=FACE_OUTER_BOUND('',#157,.T.);
#91=FACE_OUTER_BOUND('',#158,.T.);
#92=FACE_OUTER_BOUND('',#161,.T.);
#93=FACE_OUTER_BOUND('',#162,.T.);
#94=FACE_OUTER_BOUND('',#163,.T.);
#95=FACE_OUTER_BOUND('',#164,.T.);
#96=FACE_OUTER_BOUND('',#165,.T.);
#97=FACE_OUTER_BOUND('',#166,.T.);
#98=FACE_OUTER_BOUND('',#167,.T.);
#99=FACE_OUTER_BOUND('',#168,.T.);
#100=FACE_OUTER_BOUND('',#169,.T.);
#101=EDGE_LOOP('',(#791,#792,#793,#794));
#102=EDGE_LOOP('',(#795,#796,#797,#798,#799,#800,#801));
#103=EDGE_LOOP('',(#802,#803,#804,#805));
#104=EDGE_LOOP('',(#806,#807,#808,#809,#810,#811,#812));
#105=EDGE_LOOP('',(#813,#814,#815,#816));
#106=EDGE_LOOP('',(#817,#818,#819,#820));
#107=EDGE_LOOP('',(#821,#822,#823,#824));
#108=EDGE_LOOP('',(#825,#826,#827,#828));
#109=EDGE_LOOP('',(#829,#830,#831,#832,#833,#834));
#110=EDGE_LOOP('',(#835,#836,#837,#838,#839,#840));
#111=EDGE_LOOP('',(#841,#842,#843,#844,#845,#846,#847,#848,#849,#850,#851,
#852,#853,#854,#855,#856));
#112=EDGE_LOOP('',(#857,#858,#859,#860,#861,#862));
#113=EDGE_LOOP('',(#863,#864,#865,#866));
#114=EDGE_LOOP('',(#867,#868,#869,#870));
#115=EDGE_LOOP('',(#871,#872,#873,#874,#875,#876));
#116=EDGE_LOOP('',(#877,#878,#879,#880,#881,#882));
#117=EDGE_LOOP('',(#883,#884,#885,#886,#887,#888));
#118=EDGE_LOOP('',(#889,#890,#891,#892,#893,#894,#895));
#119=EDGE_LOOP('',(#896,#897,#898,#899,#900,#901));
#120=EDGE_LOOP('',(#902,#903,#904,#905,#906,#907));
#121=EDGE_LOOP('',(#908,#909,#910,#911));
#122=EDGE_LOOP('',(#912,#913,#914,#915,#916,#917,#918));
#123=EDGE_LOOP('',(#919,#920,#921,#922));
#124=EDGE_LOOP('',(#923,#924,#925,#926));
#125=EDGE_LOOP('',(#927,#928,#929,#930));
#126=EDGE_LOOP('',(#931,#932,#933,#934,#935,#936));
#127=EDGE_LOOP('',(#937,#938,#939,#940,#941,#942,#943,#944,#945,#946,#947,
#948,#949,#950,#951,#952));
#128=EDGE_LOOP('',(#953,#954,#955,#956));
#129=EDGE_LOOP('',(#957,#958,#959,#960));
#130=EDGE_LOOP('',(#961,#962,#963,#964));
#131=EDGE_LOOP('',(#965,#966,#967,#968));
#132=EDGE_LOOP('',(#969,#970,#971,#972));
#133=EDGE_LOOP('',(#973,#974,#975,#976));
#134=EDGE_LOOP('',(#977,#978,#979,#980));
#135=EDGE_LOOP('',(#981,#982,#983,#984));
#136=EDGE_LOOP('',(#985,#986,#987,#988));
#137=EDGE_LOOP('',(#989,#990,#991,#992));
#138=EDGE_LOOP('',(#993,#994,#995,#996));
#139=EDGE_LOOP('',(#997,#998,#999,#1000));
#140=EDGE_LOOP('',(#1001,#1002,#1003,#1004));
#141=EDGE_LOOP('',(#1005,#1006,#1007,#1008));
#142=EDGE_LOOP('',(#1009,#1010,#1011,#1012));
#143=EDGE_LOOP('',(#1013,#1014,#1015,#1016));
#144=EDGE_LOOP('',(#1017,#1018,#1019,#1020));
#145=EDGE_LOOP('',(#1021,#1022,#1023,#1024));
#146=EDGE_LOOP('',(#1025,#1026,#1027,#1028));
#147=EDGE_LOOP('',(#1029,#1030,#1031,#1032));
#148=EDGE_LOOP('',(#1033,#1034,#1035,#1036));
#149=EDGE_LOOP('',(#1037,#1038,#1039,#1040));
#150=EDGE_LOOP('',(#1041,#1042,#1043,#1044));
#151=EDGE_LOOP('',(#1045,#1046,#1047,#1048));
#152=EDGE_LOOP('',(#1049,#1050,#1051,#1052,#1053,#1054,#1055,#1056,#1057,
#1058,#1059,#1060,#1061,#1062,#1063,#1064,#1065,#1066,#1067,#1068));
#153=EDGE_LOOP('',(#1069));
#154=EDGE_LOOP('',(#1070));
#155=EDGE_LOOP('',(#1071,#1072,#1073,#1074));
#156=EDGE_LOOP('',(#1075,#1076,#1077,#1078));
#157=EDGE_LOOP('',(#1079,#1080,#1081,#1082));
#158=EDGE_LOOP('',(#1083,#1084,#1085,#1086,#1087,#1088));
#159=EDGE_LOOP('',(#1089));
#160=EDGE_LOOP('',(#1090));
#161=EDGE_LOOP('',(#1091,#1092,#1093,#1094,#1095,#1096,#1097,#1098,#1099,
#1100));
#162=EDGE_LOOP('',(#1101,#1102,#1103,#1104));
#163=EDGE_LOOP('',(#1105,#1106,#1107,#1108));
#164=EDGE_LOOP('',(#1109,#1110,#1111,#1112));
#165=EDGE_LOOP('',(#1113,#1114,#1115,#1116,#1117,#1118,#1119,#1120));
#166=EDGE_LOOP('',(#1121,#1122,#1123,#1124,#1125,#1126,#1127,#1128));
#167=EDGE_LOOP('',(#1129,#1130,#1131,#1132));
#168=EDGE_LOOP('',(#1133,#1134,#1135,#1136,#1137,#1138));
#169=EDGE_LOOP('',(#1139,#1140,#1141,#1142,#1143,#1144));
#170=EDGE_LOOP('',(#1145,#1146,#1147,#1148));
#171=EDGE_LOOP('',(#1149,#1150,#1151,#1152));
#172=CIRCLE('',#1329,22.);
#173=CIRCLE('',#1331,24.);
#174=CIRCLE('',#1333,22.);
#175=CIRCLE('',#1335,24.);
#176=CIRCLE('',#1337,6.);
#177=CIRCLE('',#1338,5.99999999999998);
#178=CIRCLE('',#1341,6.);
#179=CIRCLE('',#1342,6.00000000000005);
#180=CIRCLE('',#1344,22.);
#181=CIRCLE('',#1345,24.);
#182=CIRCLE('',#1349,22.);
#183=CIRCLE('',#1350,22.);
#184=CIRCLE('',#1351,22.);
#185=CIRCLE('',#1352,22.);
#186=CIRCLE('',#1353,22.);
#187=CIRCLE('',#1361,24.);
#188=CIRCLE('',#1364,24.);
#189=CIRCLE('',#1367,24.);
#190=CIRCLE('',#1372,24.);
#191=CIRCLE('',#1374,24.);
#192=CIRCLE('',#1377,4.5);
#193=CIRCLE('',#1378,4.5);
#194=CIRCLE('',#1381,4.5);
#195=CIRCLE('',#1382,4.5);
#196=CIRCLE('',#1385,3.);
#197=CIRCLE('',#1386,3.);
#198=CIRCLE('',#1388,4.5);
#199=CIRCLE('',#1389,4.5);
#200=CIRCLE('',#1392,4.5);
#201=CIRCLE('',#1393,4.5);
#202=CIRCLE('',#1396,3.);
#203=CIRCLE('',#1397,3.);
#204=CIRCLE('',#1399,3.);
#205=CIRCLE('',#1402,3.);
#206=CIRCLE('',#1405,3.);
#207=CIRCLE('',#1409,3.);
#208=CIRCLE('',#1411,9.);
#209=CIRCLE('',#1412,9.);
#210=CIRCLE('',#1415,8.99999999999999);
#211=CIRCLE('',#1416,8.99999999999999);
#212=CIRCLE('',#1418,2.5);
#213=CIRCLE('',#1419,2.5);
#214=CIRCLE('',#1421,2.5);
#215=CIRCLE('',#1423,2.5);
#216=LINE('',#1786,#353);
#217=LINE('',#1790,#354);
#218=LINE('',#1791,#355);
#219=LINE('',#1795,#356);
#220=LINE('',#1799,#357);
#221=LINE('',#1801,#358);
#222=LINE('',#1803,#359);
#223=LINE('',#1805,#360);
#224=LINE('',#1806,#361);
#225=LINE('',#1810,#362);
#226=LINE('',#1812,#363);
#227=LINE('',#1814,#364);
#228=LINE('',#1819,#365);
#229=LINE('',#1821,#366);
#230=LINE('',#1823,#367);
#231=LINE('',#1825,#368);
#232=LINE('',#1827,#369);
#233=LINE('',#1829,#370);
#234=LINE('',#1835,#371);
#235=LINE('',#1839,#372);
#236=LINE('',#1841,#373);
#237=LINE('',#1842,#374);
#238=LINE('',#1847,#375);
#239=LINE('',#1854,#376);
#240=LINE('',#1857,#377);
#241=LINE('',#1859,#378);
#242=LINE('',#1860,#379);
#243=LINE('',#1861,#380);
#244=LINE('',#1863,#381);
#245=LINE('',#1864,#382);
#246=LINE('',#1865,#383);
#247=LINE('',#1868,#384);
#248=LINE('',#1872,#385);
#249=LINE('',#1876,#386);
#250=LINE('',#1880,#387);
#251=LINE('',#1884,#388);
#252=LINE('',#1887,#389);
#253=LINE('',#1891,#390);
#254=LINE('',#1893,#391);
#255=LINE('',#1895,#392);
#256=LINE('',#1897,#393);
#257=LINE('',#1899,#394);
#258=LINE('',#1900,#395);
#259=LINE('',#1904,#396);
#260=LINE('',#1905,#397);
#261=LINE('',#1906,#398);
#262=LINE('',#1909,#399);
#263=LINE('',#1910,#400);
#264=LINE('',#1914,#401);
#265=LINE('',#1915,#402);
#266=LINE('',#1917,#403);
#267=LINE('',#1918,#404);
#268=LINE('',#1921,#405);
#269=LINE('',#1922,#406);
#270=LINE('',#1924,#407);
#271=LINE('',#1925,#408);
#272=LINE('',#1927,#409);
#273=LINE('',#1928,#410);
#274=LINE('',#1931,#411);
#275=LINE('',#1933,#412);
#276=LINE('',#1936,#413);
#277=LINE('',#1939,#414);
#278=LINE('',#1941,#415);
#279=LINE('',#1942,#416);
#280=LINE('',#1945,#417);
#281=LINE('',#1949,#418);
#282=LINE('',#1951,#419);
#283=LINE('',#1952,#420);
#284=LINE('',#1954,#421);
#285=LINE('',#1959,#422);
#286=LINE('',#1960,#423);
#287=LINE('',#1962,#424);
#288=LINE('',#1965,#425);
#289=LINE('',#1966,#426);
#290=LINE('',#1969,#427);
#291=LINE('',#1971,#428);
#292=LINE('',#1972,#429);
#293=LINE('',#1974,#430);
#294=LINE('',#1976,#431);
#295=LINE('',#1979,#432);
#296=LINE('',#1981,#433);
#297=LINE('',#1984,#434);
#298=LINE('',#1985,#435);
#299=LINE('',#1988,#436);
#300=LINE('',#1989,#437);
#301=LINE('',#1995,#438);
#302=LINE('',#1998,#439);
#303=LINE('',#2001,#440);
#304=LINE('',#2003,#441);
#305=LINE('',#2004,#442);
#306=LINE('',#2009,#443);
#307=LINE('',#2012,#444);
#308=LINE('',#2013,#445);
#309=LINE('',#2019,#446);
#310=LINE('',#2022,#447);
#311=LINE('',#2028,#448);
#312=LINE('',#2031,#449);
#313=LINE('',#2034,#450);
#314=LINE('',#2036,#451);
#315=LINE('',#2037,#452);
#316=LINE('',#2042,#453);
#317=LINE('',#2045,#454);
#318=LINE('',#2046,#455);
#319=LINE('',#2050,#456);
#320=LINE('',#2054,#457);
#321=LINE('',#2058,#458);
#322=LINE('',#2061,#459);
#323=LINE('',#2064,#460);
#324=LINE('',#2065,#461);
#325=LINE('',#2068,#462);
#326=LINE('',#2071,#463);
#327=LINE('',#2074,#464);
#328=LINE('',#2075,#465);
#329=LINE('',#2078,#466);
#330=LINE('',#2081,#467);
#331=LINE('',#2084,#468);
#332=LINE('',#2085,#469);
#333=LINE('',#2093,#470);
#334=LINE('',#2096,#471);
#335=LINE('',#2099,#472);
#336=LINE('',#2101,#473);
#337=LINE('',#2102,#474);
#338=LINE('',#2108,#475);
#339=LINE('',#2109,#476);
#340=LINE('',#2110,#477);
#341=LINE('',#2117,#478);
#342=LINE('',#2121,#479);
#343=LINE('',#2122,#480);
#344=LINE('',#2127,#481);
#345=LINE('',#2128,#482);
#346=LINE('',#2130,#483);
#347=LINE('',#2131,#484);
#348=LINE('',#2133,#485);
#349=LINE('',#2135,#486);
#350=LINE('',#2137,#487);
#351=LINE('',#2141,#488);
#352=LINE('',#2143,#489);
#353=VECTOR('',#1437,10.);
#354=VECTOR('',#1440,1.);
#355=VECTOR('',#1441,10.);
#356=VECTOR('',#1444,10.);
#357=VECTOR('',#1447,1.);
#358=VECTOR('',#1448,1.00000000000064);
#359=VECTOR('',#1449,1.);
#360=VECTOR('',#1450,10.);
#361=VECTOR('',#1451,10.);
#362=VECTOR('',#1454,10.);
#363=VECTOR('',#1455,10.);
#364=VECTOR('',#1456,10.);
#365=VECTOR('',#1461,10.);
#366=VECTOR('',#1462,10.);
#367=VECTOR('',#1463,1.);
#368=VECTOR('',#1464,1.);
#369=VECTOR('',#1465,1.00000000000064);
#370=VECTOR('',#1466,1.);
#371=VECTOR('',#1473,1.);
#372=VECTOR('',#1478,10.);
#373=VECTOR('',#1479,1.);
#374=VECTOR('',#1480,1.);
#375=VECTOR('',#1485,1.);
#376=VECTOR('',#1492,10.);
#377=VECTOR('',#1495,10.);
#378=VECTOR('',#1498,10.);
#379=VECTOR('',#1499,10.);
#380=VECTOR('',#1500,10.);
#381=VECTOR('',#1503,10.);
#382=VECTOR('',#1504,10.);
#383=VECTOR('',#1505,10.);
#384=VECTOR('',#1508,1.);
#385=VECTOR('',#1511,10.);
#386=VECTOR('',#1514,1.);
#387=VECTOR('',#1517,1.);
#388=VECTOR('',#1520,10.);
#389=VECTOR('',#1523,1.);
#390=VECTOR('',#1526,10.);
#391=VECTOR('',#1527,10.);
#392=VECTOR('',#1528,10.);
#393=VECTOR('',#1529,10.);
#394=VECTOR('',#1530,10.);
#395=VECTOR('',#1531,10.);
#396=VECTOR('',#1534,10.);
#397=VECTOR('',#1535,10.);
#398=VECTOR('',#1536,10.);
#399=VECTOR('',#1539,10.);
#400=VECTOR('',#1540,10.);
#401=VECTOR('',#1543,10.);
#402=VECTOR('',#1544,10.);
#403=VECTOR('',#1545,10.);
#404=VECTOR('',#1546,10.);
#405=VECTOR('',#1549,10.);
#406=VECTOR('',#1550,1.);
#407=VECTOR('',#1551,10.);
#408=VECTOR('',#1552,10.);
#409=VECTOR('',#1555,10.);
#410=VECTOR('',#1556,10.);
#411=VECTOR('',#1559,10.);
#412=VECTOR('',#1560,10.);
#413=VECTOR('',#1563,10.);
#414=VECTOR('',#1566,10.);
#415=VECTOR('',#1567,10.);
#416=VECTOR('',#1568,1.);
#417=VECTOR('',#1571,10.);
#418=VECTOR('',#1574,10.);
#419=VECTOR('',#1575,10.);
#420=VECTOR('',#1576,10.);
#421=VECTOR('',#1579,10.);
#422=VECTOR('',#1584,10.);
#423=VECTOR('',#1585,10.);
#424=VECTOR('',#1588,10.);
#425=VECTOR('',#1591,10.);
#426=VECTOR('',#1592,10.);
#427=VECTOR('',#1595,10.);
#428=VECTOR('',#1596,10.);
#429=VECTOR('',#1597,10.);
#430=VECTOR('',#1600,10.);
#431=VECTOR('',#1601,10.);
#432=VECTOR('',#1606,1.);
#433=VECTOR('',#1607,1.);
#434=VECTOR('',#1610,1.);
#435=VECTOR('',#1611,1.);
#436=VECTOR('',#1614,1.);
#437=VECTOR('',#1615,1.);
#438=VECTOR('',#1620,10.);
#439=VECTOR('',#1623,10.);
#440=VECTOR('',#1626,10.);
#441=VECTOR('',#1627,10.);
#442=VECTOR('',#1628,10.);
#443=VECTOR('',#1633,10.);
#444=VECTOR('',#1638,10.);
#445=VECTOR('',#1639,10.);
#446=VECTOR('',#1644,10.);
#447=VECTOR('',#1647,10.);
#448=VECTOR('',#1652,10.);
#449=VECTOR('',#1655,10.);
#450=VECTOR('',#1658,10.);
#451=VECTOR('',#1659,10.);
#452=VECTOR('',#1660,10.);
#453=VECTOR('',#1665,10.);
#454=VECTOR('',#1670,10.);
#455=VECTOR('',#1671,10.);
#456=VECTOR('',#1674,10.);
#457=VECTOR('',#1677,10.);
#458=VECTOR('',#1682,10.);
#459=VECTOR('',#1685,10.);
#460=VECTOR('',#1688,10.);
#461=VECTOR('',#1689,10.);
#462=VECTOR('',#1692,10.);
#463=VECTOR('',#1695,10.);
#464=VECTOR('',#1698,10.);
#465=VECTOR('',#1699,10.);
#466=VECTOR('',#1702,10.);
#467=VECTOR('',#1707,10.);
#468=VECTOR('',#1710,10.);
#469=VECTOR('',#1711,10.);
#470=VECTOR('',#1720,10.);
#471=VECTOR('',#1723,10.);
#472=VECTOR('',#1726,10.);
#473=VECTOR('',#1727,10.);
#474=VECTOR('',#1728,10.);
#475=VECTOR('',#1737,10.);
#476=VECTOR('',#1738,10.);
#477=VECTOR('',#1739,10.);
#478=VECTOR('',#1746,2.5);
#479=VECTOR('',#1751,1.);
#480=VECTOR('',#1752,1.);
#481=VECTOR('',#1757,1.);
#482=VECTOR('',#1758,1.00000000000064);
#483=VECTOR('',#1759,1.);
#484=VECTOR('',#1760,1.00000000000064);
#485=VECTOR('',#1763,1.);
#486=VECTOR('',#1766,2.5);
#487=VECTOR('',#1769,1.);
#488=VECTOR('',#1776,1.);
#489=VECTOR('',#1779,1.);
#490=VERTEX_POINT('',#1784);
#491=VERTEX_POINT('',#1785);
#492=VERTEX_POINT('',#1787);
#493=VERTEX_POINT('',#1789);
#494=VERTEX_POINT('',#1793);
#495=VERTEX_POINT('',#1794);
#496=VERTEX_POINT('',#1796);
#497=VERTEX_POINT('',#1798);
#498=VERTEX_POINT('',#1800);
#499=VERTEX_POINT('',#1802);
#500=VERTEX_POINT('',#1804);
#501=VERTEX_POINT('',#1808);
#502=VERTEX_POINT('',#1809);
#503=VERTEX_POINT('',#1811);
#504=VERTEX_POINT('',#1813);
#505=VERTEX_POINT('',#1817);
#506=VERTEX_POINT('',#1818);
#507=VERTEX_POINT('',#1820);
#508=VERTEX_POINT('',#1822);
#509=VERTEX_POINT('',#1824);
#510=VERTEX_POINT('',#1826);
#511=VERTEX_POINT('',#1828);
#512=VERTEX_POINT('',#1832);
#513=VERTEX_POINT('',#1834);
#514=VERTEX_POINT('',#1838);
#515=VERTEX_POINT('',#1840);
#516=VERTEX_POINT('',#1844);
#517=VERTEX_POINT('',#1846);
#518=VERTEX_POINT('',#1850);
#519=VERTEX_POINT('',#1851);
#520=VERTEX_POINT('',#1853);
#521=VERTEX_POINT('',#1855);
#522=VERTEX_POINT('',#1867);
#523=VERTEX_POINT('',#1869);
#524=VERTEX_POINT('',#1871);
#525=VERTEX_POINT('',#1873);
#526=VERTEX_POINT('',#1875);
#527=VERTEX_POINT('',#1877);
#528=VERTEX_POINT('',#1879);
#529=VERTEX_POINT('',#1881);
#530=VERTEX_POINT('',#1883);
#531=VERTEX_POINT('',#1885);
#532=VERTEX_POINT('',#1889);
#533=VERTEX_POINT('',#1890);
#534=VERTEX_POINT('',#1892);
#535=VERTEX_POINT('',#1894);
#536=VERTEX_POINT('',#1896);
#537=VERTEX_POINT('',#1898);
#538=VERTEX_POINT('',#1902);
#539=VERTEX_POINT('',#1903);
#540=VERTEX_POINT('',#1908);
#541=VERTEX_POINT('',#1912);
#542=VERTEX_POINT('',#1913);
#543=VERTEX_POINT('',#1916);
#544=VERTEX_POINT('',#1920);
#545=VERTEX_POINT('',#1923);
#546=VERTEX_POINT('',#1930);
#547=VERTEX_POINT('',#1932);
#548=VERTEX_POINT('',#1934);
#549=VERTEX_POINT('',#1938);
#550=VERTEX_POINT('',#1940);
#551=VERTEX_POINT('',#1944);
#552=VERTEX_POINT('',#1946);
#553=VERTEX_POINT('',#1948);
#554=VERTEX_POINT('',#1950);
#555=VERTEX_POINT('',#1956);
#556=VERTEX_POINT('',#1957);
#557=VERTEX_POINT('',#1964);
#558=VERTEX_POINT('',#1968);
#559=VERTEX_POINT('',#1970);
#560=VERTEX_POINT('',#1975);
#561=VERTEX_POINT('',#1980);
#562=VERTEX_POINT('',#1982);
#563=VERTEX_POINT('',#1987);
#564=VERTEX_POINT('',#1991);
#565=VERTEX_POINT('',#1992);
#566=VERTEX_POINT('',#1994);
#567=VERTEX_POINT('',#1996);
#568=VERTEX_POINT('',#2000);
#569=VERTEX_POINT('',#2002);
#570=VERTEX_POINT('',#2006);
#571=VERTEX_POINT('',#2008);
#572=VERTEX_POINT('',#2015);
#573=VERTEX_POINT('',#2016);
#574=VERTEX_POINT('',#2018);
#575=VERTEX_POINT('',#2020);
#576=VERTEX_POINT('',#2024);
#577=VERTEX_POINT('',#2025);
#578=VERTEX_POINT('',#2027);
#579=VERTEX_POINT('',#2029);
#580=VERTEX_POINT('',#2033);
#581=VERTEX_POINT('',#2035);
#582=VERTEX_POINT('',#2039);
#583=VERTEX_POINT('',#2041);
#584=VERTEX_POINT('',#2048);
#585=VERTEX_POINT('',#2049);
#586=VERTEX_POINT('',#2051);
#587=VERTEX_POINT('',#2053);
#588=VERTEX_POINT('',#2057);
#589=VERTEX_POINT('',#2059);
#590=VERTEX_POINT('',#2063);
#591=VERTEX_POINT('',#2067);
#592=VERTEX_POINT('',#2069);
#593=VERTEX_POINT('',#2073);
#594=VERTEX_POINT('',#2077);
#595=VERTEX_POINT('',#2083);
#596=VERTEX_POINT('',#2089);
#597=VERTEX_POINT('',#2090);
#598=VERTEX_POINT('',#2092);
#599=VERTEX_POINT('',#2094);
#600=VERTEX_POINT('',#2098);
#601=VERTEX_POINT('',#2100);
#602=VERTEX_POINT('',#2107);
#603=VERTEX_POINT('',#2111);
#604=VERTEX_POINT('',#2113);
#605=VERTEX_POINT('',#2116);
#606=VERTEX_POINT('',#2120);
#607=VERTEX_POINT('',#2123);
#608=VERTEX_POINT('',#2126);
#609=VERTEX_POINT('',#2129);
#610=EDGE_CURVE('',#490,#491,#216,.T.);
#611=EDGE_CURVE('',#492,#491,#172,.T.);
#612=EDGE_CURVE('',#493,#492,#217,.T.);
#613=EDGE_CURVE('',#493,#490,#218,.T.);
#614=EDGE_CURVE('',#494,#495,#219,.T.);
#615=EDGE_CURVE('',#495,#496,#173,.T.);
#616=EDGE_CURVE('',#497,#496,#220,.T.);
#617=EDGE_CURVE('',#498,#497,#221,.F.);
#618=EDGE_CURVE('',#499,#498,#222,.T.);
#619=EDGE_CURVE('',#499,#500,#223,.T.);
#620=EDGE_CURVE('',#500,#494,#224,.T.);
#621=EDGE_CURVE('',#501,#502,#225,.T.);
#622=EDGE_CURVE('',#502,#503,#226,.T.);
#623=EDGE_CURVE('',#503,#504,#227,.T.);
#624=EDGE_CURVE('',#501,#504,#174,.T.);
#625=EDGE_CURVE('',#505,#506,#228,.T.);
#626=EDGE_CURVE('',#506,#507,#229,.T.);
#627=EDGE_CURVE('',#508,#507,#230,.F.);
#628=EDGE_CURVE('',#509,#508,#231,.T.);
#629=EDGE_CURVE('',#510,#509,#232,.F.);
#630=EDGE_CURVE('',#510,#511,#233,.T.);
#631=EDGE_CURVE('',#511,#505,#175,.T.);
#632=EDGE_CURVE('',#507,#512,#176,.T.);
#633=EDGE_CURVE('',#513,#512,#234,.T.);
#634=EDGE_CURVE('',#508,#513,#177,.F.);
#635=EDGE_CURVE('',#512,#514,#235,.T.);
#636=EDGE_CURVE('',#515,#514,#236,.F.);
#637=EDGE_CURVE('',#515,#513,#237,.T.);
#638=EDGE_CURVE('',#514,#516,#178,.T.);
#639=EDGE_CURVE('',#517,#516,#238,.T.);
#640=EDGE_CURVE('',#515,#517,#179,.F.);
#641=EDGE_CURVE('',#518,#519,#180,.T.);
#642=EDGE_CURVE('',#520,#518,#239,.T.);
#643=EDGE_CURVE('',#521,#520,#181,.T.);
#644=EDGE_CURVE('',#519,#521,#240,.T.);
#645=EDGE_CURVE('',#519,#501,#241,.T.);
#646=EDGE_CURVE('',#495,#521,#242,.T.);
#647=EDGE_CURVE('',#502,#494,#243,.T.);
#648=EDGE_CURVE('',#491,#518,#244,.T.);
#649=EDGE_CURVE('',#506,#490,#245,.T.);
#650=EDGE_CURVE('',#520,#505,#246,.T.);
#651=EDGE_CURVE('',#504,#522,#247,.F.);
#652=EDGE_CURVE('',#522,#523,#182,.T.);
#653=EDGE_CURVE('',#523,#524,#248,.T.);
#654=EDGE_CURVE('',#524,#525,#183,.T.);
#655=EDGE_CURVE('',#525,#526,#249,.F.);
#656=EDGE_CURVE('',#527,#526,#184,.T.);
#657=EDGE_CURVE('',#528,#527,#250,.T.);
#658=EDGE_CURVE('',#528,#529,#185,.T.);
#659=EDGE_CURVE('',#529,#530,#251,.T.);
#660=EDGE_CURVE('',#530,#531,#186,.T.);
#661=EDGE_CURVE('',#492,#531,#252,.T.);
#662=EDGE_CURVE('',#532,#533,#253,.T.);
#663=EDGE_CURVE('',#534,#532,#254,.T.);
#664=EDGE_CURVE('',#535,#534,#255,.T.);
#665=EDGE_CURVE('',#536,#535,#256,.T.);
#666=EDGE_CURVE('',#537,#536,#257,.T.);
#667=EDGE_CURVE('',#533,#537,#258,.T.);
#668=EDGE_CURVE('',#538,#539,#259,.T.);
#669=EDGE_CURVE('',#538,#535,#260,.T.);
#670=EDGE_CURVE('',#539,#534,#261,.T.);
#671=EDGE_CURVE('',#540,#538,#262,.T.);
#672=EDGE_CURVE('',#540,#536,#263,.T.);
#673=EDGE_CURVE('',#541,#542,#264,.T.);
#674=EDGE_CURVE('',#537,#541,#265,.T.);
#675=EDGE_CURVE('',#543,#540,#266,.T.);
#676=EDGE_CURVE('',#542,#543,#267,.T.);
#677=EDGE_CURVE('',#544,#543,#268,.T.);
#678=EDGE_CURVE('',#544,#526,#269,.F.);
#679=EDGE_CURVE('',#525,#545,#270,.T.);
#680=EDGE_CURVE('',#545,#542,#271,.T.);
#681=EDGE_CURVE('',#532,#522,#272,.T.);
#682=EDGE_CURVE('',#539,#503,#273,.T.);
#683=EDGE_CURVE('',#546,#533,#274,.T.);
#684=EDGE_CURVE('',#547,#546,#275,.T.);
#685=EDGE_CURVE('',#548,#547,#187,.T.);
#686=EDGE_CURVE('',#523,#548,#276,.T.);
#687=EDGE_CURVE('',#541,#549,#277,.T.);
#688=EDGE_CURVE('',#549,#550,#278,.T.);
#689=EDGE_CURVE('',#546,#550,#279,.F.);
#690=EDGE_CURVE('',#551,#530,#280,.T.);
#691=EDGE_CURVE('',#552,#551,#188,.T.);
#692=EDGE_CURVE('',#553,#552,#281,.T.);
#693=EDGE_CURVE('',#553,#554,#282,.T.);
#694=EDGE_CURVE('',#531,#554,#283,.T.);
#695=EDGE_CURVE('',#545,#549,#284,.T.);
#696=EDGE_CURVE('',#555,#556,#189,.T.);
#697=EDGE_CURVE('',#550,#555,#285,.T.);
#698=EDGE_CURVE('',#524,#556,#286,.T.);
#699=EDGE_CURVE('',#556,#548,#287,.T.);
#700=EDGE_CURVE('',#557,#529,#288,.T.);
#701=EDGE_CURVE('',#551,#557,#289,.T.);
#702=EDGE_CURVE('',#554,#558,#290,.T.);
#703=EDGE_CURVE('',#559,#553,#291,.T.);
#704=EDGE_CURVE('',#559,#558,#292,.T.);
#705=EDGE_CURVE('',#558,#528,#293,.T.);
#706=EDGE_CURVE('',#560,#559,#294,.T.);
#707=EDGE_CURVE('',#557,#560,#190,.T.);
#708=EDGE_CURVE('',#511,#552,#295,.T.);
#709=EDGE_CURVE('',#560,#561,#296,.T.);
#710=EDGE_CURVE('',#561,#562,#191,.T.);
#711=EDGE_CURVE('',#555,#562,#297,.F.);
#712=EDGE_CURVE('',#496,#547,#298,.F.);
#713=EDGE_CURVE('',#563,#562,#299,.T.);
#714=EDGE_CURVE('',#550,#563,#300,.F.);
#715=EDGE_CURVE('',#564,#565,#192,.T.);
#716=EDGE_CURVE('',#564,#566,#301,.T.);
#717=EDGE_CURVE('',#566,#567,#193,.T.);
#718=EDGE_CURVE('',#565,#567,#302,.T.);
#719=EDGE_CURVE('',#568,#564,#303,.T.);
#720=EDGE_CURVE('',#568,#569,#304,.T.);
#721=EDGE_CURVE('',#569,#566,#305,.T.);
#722=EDGE_CURVE('',#570,#568,#194,.T.);
#723=EDGE_CURVE('',#570,#571,#306,.T.);
#724=EDGE_CURVE('',#571,#569,#195,.T.);
#725=EDGE_CURVE('',#565,#570,#307,.T.);
#726=EDGE_CURVE('',#567,#571,#308,.T.);
#727=EDGE_CURVE('',#572,#573,#196,.T.);
#728=EDGE_CURVE('',#574,#572,#309,.T.);
#729=EDGE_CURVE('',#575,#574,#197,.T.);
#730=EDGE_CURVE('',#573,#575,#310,.T.);
#731=EDGE_CURVE('',#576,#577,#198,.T.);
#732=EDGE_CURVE('',#576,#578,#311,.T.);
#733=EDGE_CURVE('',#578,#579,#199,.T.);
#734=EDGE_CURVE('',#577,#579,#312,.T.);
#735=EDGE_CURVE('',#580,#576,#313,.T.);
#736=EDGE_CURVE('',#580,#581,#314,.T.);
#737=EDGE_CURVE('',#581,#578,#315,.T.);
#738=EDGE_CURVE('',#582,#580,#200,.T.);
#739=EDGE_CURVE('',#582,#583,#316,.T.);
#740=EDGE_CURVE('',#583,#581,#201,.T.);
#741=EDGE_CURVE('',#577,#582,#317,.T.);
#742=EDGE_CURVE('',#579,#583,#318,.T.);
#743=EDGE_CURVE('',#584,#585,#319,.T.);
#744=EDGE_CURVE('',#586,#584,#202,.T.);
#745=EDGE_CURVE('',#587,#586,#320,.T.);
#746=EDGE_CURVE('',#585,#587,#203,.T.);
#747=EDGE_CURVE('',#574,#588,#321,.T.);
#748=EDGE_CURVE('',#589,#588,#204,.T.);
#749=EDGE_CURVE('',#575,#589,#322,.T.);
#750=EDGE_CURVE('',#572,#590,#323,.T.);
#751=EDGE_CURVE('',#588,#590,#324,.T.);
#752=EDGE_CURVE('',#584,#591,#325,.T.);
#753=EDGE_CURVE('',#592,#591,#205,.T.);
#754=EDGE_CURVE('',#586,#592,#326,.T.);
#755=EDGE_CURVE('',#585,#593,#327,.T.);
#756=EDGE_CURVE('',#591,#593,#328,.T.);
#757=EDGE_CURVE('',#573,#594,#329,.T.);
#758=EDGE_CURVE('',#590,#594,#206,.T.);
#759=EDGE_CURVE('',#594,#589,#330,.T.);
#760=EDGE_CURVE('',#595,#592,#331,.T.);
#761=EDGE_CURVE('',#587,#595,#332,.T.);
#762=EDGE_CURVE('',#593,#595,#207,.T.);
#763=EDGE_CURVE('',#596,#597,#208,.T.);
#764=EDGE_CURVE('',#598,#597,#333,.T.);
#765=EDGE_CURVE('',#599,#598,#209,.T.);
#766=EDGE_CURVE('',#599,#596,#334,.T.);
#767=EDGE_CURVE('',#597,#600,#335,.T.);
#768=EDGE_CURVE('',#601,#600,#336,.T.);
#769=EDGE_CURVE('',#598,#601,#337,.T.);
#770=EDGE_CURVE('',#600,#500,#210,.T.);
#771=EDGE_CURVE('',#601,#499,#211,.T.);
#772=EDGE_CURVE('',#602,#493,#338,.T.);
#773=EDGE_CURVE('',#544,#602,#339,.T.);
#774=EDGE_CURVE('',#516,#596,#340,.T.);
#775=EDGE_CURVE('',#603,#603,#212,.T.);
#776=EDGE_CURVE('',#604,#604,#213,.T.);
#777=EDGE_CURVE('',#604,#605,#341,.T.);
#778=EDGE_CURVE('',#605,#605,#214,.F.);
#779=EDGE_CURVE('',#509,#606,#342,.F.);
#780=EDGE_CURVE('',#606,#517,#343,.T.);
#781=EDGE_CURVE('',#607,#607,#215,.T.);
#782=EDGE_CURVE('',#599,#608,#344,.T.);
#783=EDGE_CURVE('',#563,#608,#345,.F.);
#784=EDGE_CURVE('',#609,#561,#346,.T.);
#785=EDGE_CURVE('',#606,#609,#347,.F.);
#786=EDGE_CURVE('',#510,#609,#348,.F.);
#787=EDGE_CURVE('',#603,#607,#349,.T.);
#788=EDGE_CURVE('',#602,#527,#350,.F.);
#789=EDGE_CURVE('',#497,#546,#351,.F.);
#790=EDGE_CURVE('',#498,#608,#352,.F.);
#791=ORIENTED_EDGE('',*,*,#610,.T.);
#792=ORIENTED_EDGE('',*,*,#611,.F.);
#793=ORIENTED_EDGE('',*,*,#612,.F.);
#794=ORIENTED_EDGE('',*,*,#613,.T.);
#795=ORIENTED_EDGE('',*,*,#614,.T.);
#796=ORIENTED_EDGE('',*,*,#615,.T.);
#797=ORIENTED_EDGE('',*,*,#616,.F.);
#798=ORIENTED_EDGE('',*,*,#617,.F.);
#799=ORIENTED_EDGE('',*,*,#618,.F.);
#800=ORIENTED_EDGE('',*,*,#619,.T.);
#801=ORIENTED_EDGE('',*,*,#620,.T.);
#802=ORIENTED_EDGE('',*,*,#621,.T.);
#803=ORIENTED_EDGE('',*,*,#622,.T.);
#804=ORIENTED_EDGE('',*,*,#623,.T.);
#805=ORIENTED_EDGE('',*,*,#624,.F.);
#806=ORIENTED_EDGE('',*,*,#625,.T.);
#807=ORIENTED_EDGE('',*,*,#626,.T.);
#808=ORIENTED_EDGE('',*,*,#627,.F.);
#809=ORIENTED_EDGE('',*,*,#628,.F.);
#810=ORIENTED_EDGE('',*,*,#629,.F.);
#811=ORIENTED_EDGE('',*,*,#630,.T.);
#812=ORIENTED_EDGE('',*,*,#631,.T.);
#813=ORIENTED_EDGE('',*,*,#632,.T.);
#814=ORIENTED_EDGE('',*,*,#633,.F.);
#815=ORIENTED_EDGE('',*,*,#634,.F.);
#816=ORIENTED_EDGE('',*,*,#627,.T.);
#817=ORIENTED_EDGE('',*,*,#635,.T.);
#818=ORIENTED_EDGE('',*,*,#636,.F.);
#819=ORIENTED_EDGE('',*,*,#637,.T.);
#820=ORIENTED_EDGE('',*,*,#633,.T.);
#821=ORIENTED_EDGE('',*,*,#638,.T.);
#822=ORIENTED_EDGE('',*,*,#639,.F.);
#823=ORIENTED_EDGE('',*,*,#640,.F.);
#824=ORIENTED_EDGE('',*,*,#636,.T.);
#825=ORIENTED_EDGE('',*,*,#641,.F.);
#826=ORIENTED_EDGE('',*,*,#642,.F.);
#827=ORIENTED_EDGE('',*,*,#643,.F.);
#828=ORIENTED_EDGE('',*,*,#644,.F.);
#829=ORIENTED_EDGE('',*,*,#645,.F.);
#830=ORIENTED_EDGE('',*,*,#644,.T.);
#831=ORIENTED_EDGE('',*,*,#646,.F.);
#832=ORIENTED_EDGE('',*,*,#614,.F.);
#833=ORIENTED_EDGE('',*,*,#647,.F.);
#834=ORIENTED_EDGE('',*,*,#621,.F.);
#835=ORIENTED_EDGE('',*,*,#648,.F.);
#836=ORIENTED_EDGE('',*,*,#610,.F.);
#837=ORIENTED_EDGE('',*,*,#649,.F.);
#838=ORIENTED_EDGE('',*,*,#625,.F.);
#839=ORIENTED_EDGE('',*,*,#650,.F.);
#840=ORIENTED_EDGE('',*,*,#642,.T.);
#841=ORIENTED_EDGE('',*,*,#648,.T.);
#842=ORIENTED_EDGE('',*,*,#641,.T.);
#843=ORIENTED_EDGE('',*,*,#645,.T.);
#844=ORIENTED_EDGE('',*,*,#624,.T.);
#845=ORIENTED_EDGE('',*,*,#651,.T.);
#846=ORIENTED_EDGE('',*,*,#652,.T.);
#847=ORIENTED_EDGE('',*,*,#653,.T.);
#848=ORIENTED_EDGE('',*,*,#654,.T.);
#849=ORIENTED_EDGE('',*,*,#655,.T.);
#850=ORIENTED_EDGE('',*,*,#656,.F.);
#851=ORIENTED_EDGE('',*,*,#657,.F.);
#852=ORIENTED_EDGE('',*,*,#658,.T.);
#853=ORIENTED_EDGE('',*,*,#659,.T.);
#854=ORIENTED_EDGE('',*,*,#660,.T.);
#855=ORIENTED_EDGE('',*,*,#661,.F.);
#856=ORIENTED_EDGE('',*,*,#611,.T.);
#857=ORIENTED_EDGE('',*,*,#662,.F.);
#858=ORIENTED_EDGE('',*,*,#663,.F.);
#859=ORIENTED_EDGE('',*,*,#664,.F.);
#860=ORIENTED_EDGE('',*,*,#665,.F.);
#861=ORIENTED_EDGE('',*,*,#666,.F.);
#862=ORIENTED_EDGE('',*,*,#667,.F.);
#863=ORIENTED_EDGE('',*,*,#668,.F.);
#864=ORIENTED_EDGE('',*,*,#669,.T.);
#865=ORIENTED_EDGE('',*,*,#664,.T.);
#866=ORIENTED_EDGE('',*,*,#670,.F.);
#867=ORIENTED_EDGE('',*,*,#671,.F.);
#868=ORIENTED_EDGE('',*,*,#672,.T.);
#869=ORIENTED_EDGE('',*,*,#665,.T.);
#870=ORIENTED_EDGE('',*,*,#669,.F.);
#871=ORIENTED_EDGE('',*,*,#673,.F.);
#872=ORIENTED_EDGE('',*,*,#674,.F.);
#873=ORIENTED_EDGE('',*,*,#666,.T.);
#874=ORIENTED_EDGE('',*,*,#672,.F.);
#875=ORIENTED_EDGE('',*,*,#675,.F.);
#876=ORIENTED_EDGE('',*,*,#676,.F.);
#877=ORIENTED_EDGE('',*,*,#676,.T.);
#878=ORIENTED_EDGE('',*,*,#677,.F.);
#879=ORIENTED_EDGE('',*,*,#678,.T.);
#880=ORIENTED_EDGE('',*,*,#655,.F.);
#881=ORIENTED_EDGE('',*,*,#679,.T.);
#882=ORIENTED_EDGE('',*,*,#680,.T.);
#883=ORIENTED_EDGE('',*,*,#670,.T.);
#884=ORIENTED_EDGE('',*,*,#663,.T.);
#885=ORIENTED_EDGE('',*,*,#681,.T.);
#886=ORIENTED_EDGE('',*,*,#651,.F.);
#887=ORIENTED_EDGE('',*,*,#623,.F.);
#888=ORIENTED_EDGE('',*,*,#682,.F.);
#889=ORIENTED_EDGE('',*,*,#662,.T.);
#890=ORIENTED_EDGE('',*,*,#683,.F.);
#891=ORIENTED_EDGE('',*,*,#684,.F.);
#892=ORIENTED_EDGE('',*,*,#685,.F.);
#893=ORIENTED_EDGE('',*,*,#686,.F.);
#894=ORIENTED_EDGE('',*,*,#652,.F.);
#895=ORIENTED_EDGE('',*,*,#681,.F.);
#896=ORIENTED_EDGE('',*,*,#667,.T.);
#897=ORIENTED_EDGE('',*,*,#674,.T.);
#898=ORIENTED_EDGE('',*,*,#687,.T.);
#899=ORIENTED_EDGE('',*,*,#688,.T.);
#900=ORIENTED_EDGE('',*,*,#689,.F.);
#901=ORIENTED_EDGE('',*,*,#683,.T.);
#902=ORIENTED_EDGE('',*,*,#660,.F.);
#903=ORIENTED_EDGE('',*,*,#690,.F.);
#904=ORIENTED_EDGE('',*,*,#691,.F.);
#905=ORIENTED_EDGE('',*,*,#692,.F.);
#906=ORIENTED_EDGE('',*,*,#693,.T.);
#907=ORIENTED_EDGE('',*,*,#694,.F.);
#908=ORIENTED_EDGE('',*,*,#673,.T.);
#909=ORIENTED_EDGE('',*,*,#680,.F.);
#910=ORIENTED_EDGE('',*,*,#695,.T.);
#911=ORIENTED_EDGE('',*,*,#687,.F.);
#912=ORIENTED_EDGE('',*,*,#696,.F.);
#913=ORIENTED_EDGE('',*,*,#697,.F.);
#914=ORIENTED_EDGE('',*,*,#688,.F.);
#915=ORIENTED_EDGE('',*,*,#695,.F.);
#916=ORIENTED_EDGE('',*,*,#679,.F.);
#917=ORIENTED_EDGE('',*,*,#654,.F.);
#918=ORIENTED_EDGE('',*,*,#698,.T.);
#919=ORIENTED_EDGE('',*,*,#699,.F.);
#920=ORIENTED_EDGE('',*,*,#698,.F.);
#921=ORIENTED_EDGE('',*,*,#653,.F.);
#922=ORIENTED_EDGE('',*,*,#686,.T.);
#923=ORIENTED_EDGE('',*,*,#659,.F.);
#924=ORIENTED_EDGE('',*,*,#700,.F.);
#925=ORIENTED_EDGE('',*,*,#701,.F.);
#926=ORIENTED_EDGE('',*,*,#690,.T.);
#927=ORIENTED_EDGE('',*,*,#702,.F.);
#928=ORIENTED_EDGE('',*,*,#693,.F.);
#929=ORIENTED_EDGE('',*,*,#703,.F.);
#930=ORIENTED_EDGE('',*,*,#704,.T.);
#931=ORIENTED_EDGE('',*,*,#658,.F.);
#932=ORIENTED_EDGE('',*,*,#705,.F.);
#933=ORIENTED_EDGE('',*,*,#704,.F.);
#934=ORIENTED_EDGE('',*,*,#706,.F.);
#935=ORIENTED_EDGE('',*,*,#707,.F.);
#936=ORIENTED_EDGE('',*,*,#700,.T.);
#937=ORIENTED_EDGE('',*,*,#650,.T.);
#938=ORIENTED_EDGE('',*,*,#631,.F.);
#939=ORIENTED_EDGE('',*,*,#708,.T.);
#940=ORIENTED_EDGE('',*,*,#691,.T.);
#941=ORIENTED_EDGE('',*,*,#701,.T.);
#942=ORIENTED_EDGE('',*,*,#707,.T.);
#943=ORIENTED_EDGE('',*,*,#709,.T.);
#944=ORIENTED_EDGE('',*,*,#710,.T.);
#945=ORIENTED_EDGE('',*,*,#711,.F.);
#946=ORIENTED_EDGE('',*,*,#696,.T.);
#947=ORIENTED_EDGE('',*,*,#699,.T.);
#948=ORIENTED_EDGE('',*,*,#685,.T.);
#949=ORIENTED_EDGE('',*,*,#712,.F.);
#950=ORIENTED_EDGE('',*,*,#615,.F.);
#951=ORIENTED_EDGE('',*,*,#646,.T.);
#952=ORIENTED_EDGE('',*,*,#643,.T.);
#953=ORIENTED_EDGE('',*,*,#697,.T.);
#954=ORIENTED_EDGE('',*,*,#711,.T.);
#955=ORIENTED_EDGE('',*,*,#713,.F.);
#956=ORIENTED_EDGE('',*,*,#714,.F.);
#957=ORIENTED_EDGE('',*,*,#715,.F.);
#958=ORIENTED_EDGE('',*,*,#716,.T.);
#959=ORIENTED_EDGE('',*,*,#717,.T.);
#960=ORIENTED_EDGE('',*,*,#718,.F.);
#961=ORIENTED_EDGE('',*,*,#719,.F.);
#962=ORIENTED_EDGE('',*,*,#720,.T.);
#963=ORIENTED_EDGE('',*,*,#721,.T.);
#964=ORIENTED_EDGE('',*,*,#716,.F.);
#965=ORIENTED_EDGE('',*,*,#722,.F.);
#966=ORIENTED_EDGE('',*,*,#723,.T.);
#967=ORIENTED_EDGE('',*,*,#724,.T.);
#968=ORIENTED_EDGE('',*,*,#720,.F.);
#969=ORIENTED_EDGE('',*,*,#725,.F.);
#970=ORIENTED_EDGE('',*,*,#718,.T.);
#971=ORIENTED_EDGE('',*,*,#726,.T.);
#972=ORIENTED_EDGE('',*,*,#723,.F.);
#973=ORIENTED_EDGE('',*,*,#726,.F.);
#974=ORIENTED_EDGE('',*,*,#717,.F.);
#975=ORIENTED_EDGE('',*,*,#721,.F.);
#976=ORIENTED_EDGE('',*,*,#724,.F.);
#977=ORIENTED_EDGE('',*,*,#727,.F.);
#978=ORIENTED_EDGE('',*,*,#728,.F.);
#979=ORIENTED_EDGE('',*,*,#729,.F.);
#980=ORIENTED_EDGE('',*,*,#730,.F.);
#981=ORIENTED_EDGE('',*,*,#731,.F.);
#982=ORIENTED_EDGE('',*,*,#732,.T.);
#983=ORIENTED_EDGE('',*,*,#733,.T.);
#984=ORIENTED_EDGE('',*,*,#734,.F.);
#985=ORIENTED_EDGE('',*,*,#735,.F.);
#986=ORIENTED_EDGE('',*,*,#736,.T.);
#987=ORIENTED_EDGE('',*,*,#737,.T.);
#988=ORIENTED_EDGE('',*,*,#732,.F.);
#989=ORIENTED_EDGE('',*,*,#738,.F.);
#990=ORIENTED_EDGE('',*,*,#739,.T.);
#991=ORIENTED_EDGE('',*,*,#740,.T.);
#992=ORIENTED_EDGE('',*,*,#736,.F.);
#993=ORIENTED_EDGE('',*,*,#741,.F.);
#994=ORIENTED_EDGE('',*,*,#734,.T.);
#995=ORIENTED_EDGE('',*,*,#742,.T.);
#996=ORIENTED_EDGE('',*,*,#739,.F.);
#997=ORIENTED_EDGE('',*,*,#742,.F.);
#998=ORIENTED_EDGE('',*,*,#733,.F.);
#999=ORIENTED_EDGE('',*,*,#737,.F.);
#1000=ORIENTED_EDGE('',*,*,#740,.F.);
#1001=ORIENTED_EDGE('',*,*,#743,.F.);
#1002=ORIENTED_EDGE('',*,*,#744,.F.);
#1003=ORIENTED_EDGE('',*,*,#745,.F.);
#1004=ORIENTED_EDGE('',*,*,#746,.F.);
#1005=ORIENTED_EDGE('',*,*,#729,.T.);
#1006=ORIENTED_EDGE('',*,*,#747,.T.);
#1007=ORIENTED_EDGE('',*,*,#748,.F.);
#1008=ORIENTED_EDGE('',*,*,#749,.F.);
#1009=ORIENTED_EDGE('',*,*,#728,.T.);
#1010=ORIENTED_EDGE('',*,*,#750,.T.);
#1011=ORIENTED_EDGE('',*,*,#751,.F.);
#1012=ORIENTED_EDGE('',*,*,#747,.F.);
#1013=ORIENTED_EDGE('',*,*,#744,.T.);
#1014=ORIENTED_EDGE('',*,*,#752,.T.);
#1015=ORIENTED_EDGE('',*,*,#753,.F.);
#1016=ORIENTED_EDGE('',*,*,#754,.F.);
#1017=ORIENTED_EDGE('',*,*,#743,.T.);
#1018=ORIENTED_EDGE('',*,*,#755,.T.);
#1019=ORIENTED_EDGE('',*,*,#756,.F.);
#1020=ORIENTED_EDGE('',*,*,#752,.F.);
#1021=ORIENTED_EDGE('',*,*,#727,.T.);
#1022=ORIENTED_EDGE('',*,*,#757,.T.);
#1023=ORIENTED_EDGE('',*,*,#758,.F.);
#1024=ORIENTED_EDGE('',*,*,#750,.F.);
#1025=ORIENTED_EDGE('',*,*,#730,.T.);
#1026=ORIENTED_EDGE('',*,*,#749,.T.);
#1027=ORIENTED_EDGE('',*,*,#759,.F.);
#1028=ORIENTED_EDGE('',*,*,#757,.F.);
#1029=ORIENTED_EDGE('',*,*,#745,.T.);
#1030=ORIENTED_EDGE('',*,*,#754,.T.);
#1031=ORIENTED_EDGE('',*,*,#760,.F.);
#1032=ORIENTED_EDGE('',*,*,#761,.F.);
#1033=ORIENTED_EDGE('',*,*,#746,.T.);
#1034=ORIENTED_EDGE('',*,*,#761,.T.);
#1035=ORIENTED_EDGE('',*,*,#762,.F.);
#1036=ORIENTED_EDGE('',*,*,#755,.F.);
#1037=ORIENTED_EDGE('',*,*,#763,.T.);
#1038=ORIENTED_EDGE('',*,*,#764,.F.);
#1039=ORIENTED_EDGE('',*,*,#765,.F.);
#1040=ORIENTED_EDGE('',*,*,#766,.T.);
#1041=ORIENTED_EDGE('',*,*,#767,.T.);
#1042=ORIENTED_EDGE('',*,*,#768,.F.);
#1043=ORIENTED_EDGE('',*,*,#769,.F.);
#1044=ORIENTED_EDGE('',*,*,#764,.T.);
#1045=ORIENTED_EDGE('',*,*,#770,.T.);
#1046=ORIENTED_EDGE('',*,*,#619,.F.);
#1047=ORIENTED_EDGE('',*,*,#771,.F.);
#1048=ORIENTED_EDGE('',*,*,#768,.T.);
#1049=ORIENTED_EDGE('',*,*,#649,.T.);
#1050=ORIENTED_EDGE('',*,*,#613,.F.);
#1051=ORIENTED_EDGE('',*,*,#772,.F.);
#1052=ORIENTED_EDGE('',*,*,#773,.F.);
#1053=ORIENTED_EDGE('',*,*,#677,.T.);
#1054=ORIENTED_EDGE('',*,*,#675,.T.);
#1055=ORIENTED_EDGE('',*,*,#671,.T.);
#1056=ORIENTED_EDGE('',*,*,#668,.T.);
#1057=ORIENTED_EDGE('',*,*,#682,.T.);
#1058=ORIENTED_EDGE('',*,*,#622,.F.);
#1059=ORIENTED_EDGE('',*,*,#647,.T.);
#1060=ORIENTED_EDGE('',*,*,#620,.F.);
#1061=ORIENTED_EDGE('',*,*,#770,.F.);
#1062=ORIENTED_EDGE('',*,*,#767,.F.);
#1063=ORIENTED_EDGE('',*,*,#763,.F.);
#1064=ORIENTED_EDGE('',*,*,#774,.F.);
#1065=ORIENTED_EDGE('',*,*,#638,.F.);
#1066=ORIENTED_EDGE('',*,*,#635,.F.);
#1067=ORIENTED_EDGE('',*,*,#632,.F.);
#1068=ORIENTED_EDGE('',*,*,#626,.F.);
#1069=ORIENTED_EDGE('',*,*,#775,.F.);
#1070=ORIENTED_EDGE('',*,*,#776,.F.);
#1071=ORIENTED_EDGE('',*,*,#758,.T.);
#1072=ORIENTED_EDGE('',*,*,#759,.T.);
#1073=ORIENTED_EDGE('',*,*,#748,.T.);
#1074=ORIENTED_EDGE('',*,*,#751,.T.);
#1075=ORIENTED_EDGE('',*,*,#756,.T.);
#1076=ORIENTED_EDGE('',*,*,#762,.T.);
#1077=ORIENTED_EDGE('',*,*,#760,.T.);
#1078=ORIENTED_EDGE('',*,*,#753,.T.);
#1079=ORIENTED_EDGE('',*,*,#776,.T.);
#1080=ORIENTED_EDGE('',*,*,#777,.T.);
#1081=ORIENTED_EDGE('',*,*,#778,.F.);
#1082=ORIENTED_EDGE('',*,*,#777,.F.);
#1083=ORIENTED_EDGE('',*,*,#779,.F.);
#1084=ORIENTED_EDGE('',*,*,#628,.T.);
#1085=ORIENTED_EDGE('',*,*,#634,.T.);
#1086=ORIENTED_EDGE('',*,*,#637,.F.);
#1087=ORIENTED_EDGE('',*,*,#640,.T.);
#1088=ORIENTED_EDGE('',*,*,#780,.F.);
#1089=ORIENTED_EDGE('',*,*,#778,.T.);
#1090=ORIENTED_EDGE('',*,*,#781,.T.);
#1091=ORIENTED_EDGE('',*,*,#774,.T.);
#1092=ORIENTED_EDGE('',*,*,#766,.F.);
#1093=ORIENTED_EDGE('',*,*,#782,.T.);
#1094=ORIENTED_EDGE('',*,*,#783,.F.);
#1095=ORIENTED_EDGE('',*,*,#713,.T.);
#1096=ORIENTED_EDGE('',*,*,#710,.F.);
#1097=ORIENTED_EDGE('',*,*,#784,.F.);
#1098=ORIENTED_EDGE('',*,*,#785,.F.);
#1099=ORIENTED_EDGE('',*,*,#780,.T.);
#1100=ORIENTED_EDGE('',*,*,#639,.T.);
#1101=ORIENTED_EDGE('',*,*,#786,.F.);
#1102=ORIENTED_EDGE('',*,*,#629,.T.);
#1103=ORIENTED_EDGE('',*,*,#779,.T.);
#1104=ORIENTED_EDGE('',*,*,#785,.T.);
#1105=ORIENTED_EDGE('',*,*,#775,.T.);
#1106=ORIENTED_EDGE('',*,*,#787,.T.);
#1107=ORIENTED_EDGE('',*,*,#781,.F.);
#1108=ORIENTED_EDGE('',*,*,#787,.F.);
#1109=ORIENTED_EDGE('',*,*,#773,.T.);
#1110=ORIENTED_EDGE('',*,*,#788,.T.);
#1111=ORIENTED_EDGE('',*,*,#656,.T.);
#1112=ORIENTED_EDGE('',*,*,#678,.F.);
#1113=ORIENTED_EDGE('',*,*,#772,.T.);
#1114=ORIENTED_EDGE('',*,*,#612,.T.);
#1115=ORIENTED_EDGE('',*,*,#661,.T.);
#1116=ORIENTED_EDGE('',*,*,#694,.T.);
#1117=ORIENTED_EDGE('',*,*,#702,.T.);
#1118=ORIENTED_EDGE('',*,*,#705,.T.);
#1119=ORIENTED_EDGE('',*,*,#657,.T.);
#1120=ORIENTED_EDGE('',*,*,#788,.F.);
#1121=ORIENTED_EDGE('',*,*,#692,.T.);
#1122=ORIENTED_EDGE('',*,*,#708,.F.);
#1123=ORIENTED_EDGE('',*,*,#630,.F.);
#1124=ORIENTED_EDGE('',*,*,#786,.T.);
#1125=ORIENTED_EDGE('',*,*,#784,.T.);
#1126=ORIENTED_EDGE('',*,*,#709,.F.);
#1127=ORIENTED_EDGE('',*,*,#706,.T.);
#1128=ORIENTED_EDGE('',*,*,#703,.T.);
#1129=ORIENTED_EDGE('',*,*,#684,.T.);
#1130=ORIENTED_EDGE('',*,*,#789,.F.);
#1131=ORIENTED_EDGE('',*,*,#616,.T.);
#1132=ORIENTED_EDGE('',*,*,#712,.T.);
#1133=ORIENTED_EDGE('',*,*,#790,.F.);
#1134=ORIENTED_EDGE('',*,*,#617,.T.);
#1135=ORIENTED_EDGE('',*,*,#789,.T.);
#1136=ORIENTED_EDGE('',*,*,#689,.T.);
#1137=ORIENTED_EDGE('',*,*,#714,.T.);
#1138=ORIENTED_EDGE('',*,*,#783,.T.);
#1139=ORIENTED_EDGE('',*,*,#790,.T.);
#1140=ORIENTED_EDGE('',*,*,#782,.F.);
#1141=ORIENTED_EDGE('',*,*,#765,.T.);
#1142=ORIENTED_EDGE('',*,*,#769,.T.);
#1143=ORIENTED_EDGE('',*,*,#771,.T.);
#1144=ORIENTED_EDGE('',*,*,#618,.T.);
#1145=ORIENTED_EDGE('',*,*,#715,.T.);
#1146=ORIENTED_EDGE('',*,*,#725,.T.);
#1147=ORIENTED_EDGE('',*,*,#722,.T.);
#1148=ORIENTED_EDGE('',*,*,#719,.T.);
#1149=ORIENTED_EDGE('',*,*,#731,.T.);
#1150=ORIENTED_EDGE('',*,*,#741,.T.);
#1151=ORIENTED_EDGE('',*,*,#738,.T.);
#1152=ORIENTED_EDGE('',*,*,#735,.T.);
#1153=PLANE('',#1328);
#1154=PLANE('',#1330);
#1155=PLANE('',#1332);
#1156=PLANE('',#1334);
#1157=PLANE('',#1339);
#1158=PLANE('',#1343);
#1159=PLANE('',#1346);
#1160=PLANE('',#1347);
#1161=PLANE('',#1354);
#1162=PLANE('',#1355);
#1163=PLANE('',#1356);
#1164=PLANE('',#1357);
#1165=PLANE('',#1358);
#1166=PLANE('',#1359);
#1167=PLANE('',#1360);
#1168=PLANE('',#1362);
#1169=PLANE('',#1363);
#1170=PLANE('',#1365);
#1171=PLANE('',#1366);
#1172=PLANE('',#1368);
#1173=PLANE('',#1369);
#1174=PLANE('',#1370);
#1175=PLANE('',#1371);
#1176=PLANE('',#1375);
#1177=PLANE('',#1379);
#1178=PLANE('',#1383);
#1179=PLANE('',#1384);
#1180=PLANE('',#1390);
#1181=PLANE('',#1394);
#1182=PLANE('',#1395);
#1183=PLANE('',#1400);
#1184=PLANE('',#1403);
#1185=PLANE('',#1406);
#1186=PLANE('',#1407);
#1187=PLANE('',#1413);
#1188=PLANE('',#1417);
#1189=PLANE('',#1422);
#1190=PLANE('',#1424);
#1191=PLANE('',#1425);
#1192=PLANE('',#1427);
#1193=PLANE('',#1428);
#1194=PLANE('',#1429);
#1195=PLANE('',#1430);
#1196=PLANE('',#1431);
#1197=PLANE('',#1432);
#1198=STYLED_ITEM('',(#2165),#1244);
#1199=STYLED_ITEM('',(#2165),#1245);
#1200=STYLED_ITEM('',(#2165),#1246);
#1201=STYLED_ITEM('',(#2165),#1247);
#1202=STYLED_ITEM('',(#2165),#1248);
#1203=STYLED_ITEM('',(#2165),#1249);
#1204=STYLED_ITEM('',(#2165),#1250);
#1205=STYLED_ITEM('',(#2165),#1254);
#1206=STYLED_ITEM('',(#2165),#1259);
#1207=STYLED_ITEM('',(#2165),#1260);
#1208=STYLED_ITEM('',(#2165),#1270);
#1209=STYLED_ITEM('',(#2165),#1271);
#1210=STYLED_ITEM('',(#2165),#1272);
#1211=STYLED_ITEM('',(#2165),#1273);
#1212=STYLED_ITEM('',(#2165),#1274);
#1213=STYLED_ITEM('',(#2165),#1275);
#1214=STYLED_ITEM('',(#2165),#1276);
#1215=STYLED_ITEM('',(#2165),#1277);
#1216=STYLED_ITEM('',(#2165),#1278);
#1217=STYLED_ITEM('',(#2165),#1279);
#1218=STYLED_ITEM('',(#2165),#1280);
#1219=STYLED_ITEM('',(#2165),#1281);
#1220=STYLED_ITEM('',(#2165),#1282);
#1221=STYLED_ITEM('',(#2165),#1283);
#1222=STYLED_ITEM('',(#2165),#1284);
#1223=STYLED_ITEM('',(#2165),#1285);
#1224=STYLED_ITEM('',(#2165),#1286);
#1225=STYLED_ITEM('',(#2165),#1287);
#1226=STYLED_ITEM('',(#2165),#1288);
#1227=STYLED_ITEM('',(#2165),#1289);
#1228=STYLED_ITEM('',(#2165),#1290);
#1229=STYLED_ITEM('',(#2165),#1291);
#1230=STYLED_ITEM('',(#2165),#1292);
#1231=STYLED_ITEM('',(#2165),#1293);
#1232=STYLED_ITEM('',(#2165),#1294);
#1233=STYLED_ITEM('',(#2165),#1295);
#1234=STYLED_ITEM('',(#2165),#1296);
#1235=STYLED_ITEM('',(#2165),#1297);
#1236=STYLED_ITEM('',(#2165),#1298);
#1237=STYLED_ITEM('',(#2165),#1299);
#1238=STYLED_ITEM('',(#2165),#1300);
#1239=STYLED_ITEM('',(#2165),#1301);
#1240=STYLED_ITEM('',(#2165),#1302);
#1241=STYLED_ITEM('',(#2165),#1303);
#1242=STYLED_ITEM('',(#2165),#1304);
#1243=STYLED_ITEM('',(#2164),#13);
#1244=ADVANCED_FACE('',(#40),#1153,.F.);
#1245=ADVANCED_FACE('',(#41),#1154,.T.);
#1246=ADVANCED_FACE('',(#42),#1155,.F.);
#1247=ADVANCED_FACE('',(#43),#1156,.T.);
#1248=ADVANCED_FACE('',(#44),#24,.T.);
#1249=ADVANCED_FACE('',(#45),#1157,.F.);
#1250=ADVANCED_FACE('',(#46),#25,.T.);
#1251=ADVANCED_FACE('',(#47),#1158,.T.);
#1252=ADVANCED_FACE('',(#48),#1159,.F.);
#1253=ADVANCED_FACE('',(#49),#1160,.F.);
#1254=ADVANCED_FACE('',(#50),#26,.F.);
#1255=ADVANCED_FACE('',(#51),#1161,.F.);
#1256=ADVANCED_FACE('',(#52),#1162,.F.);
#1257=ADVANCED_FACE('',(#53),#1163,.F.);
#1258=ADVANCED_FACE('',(#54),#1164,.F.);
#1259=ADVANCED_FACE('',(#55),#1165,.F.);
#1260=ADVANCED_FACE('',(#56),#1166,.F.);
#1261=ADVANCED_FACE('',(#57),#1167,.F.);
#1262=ADVANCED_FACE('',(#58),#1168,.F.);
#1263=ADVANCED_FACE('',(#59),#1169,.F.);
#1264=ADVANCED_FACE('',(#60),#1170,.F.);
#1265=ADVANCED_FACE('',(#61),#1171,.F.);
#1266=ADVANCED_FACE('',(#62),#1172,.F.);
#1267=ADVANCED_FACE('',(#63),#1173,.F.);
#1268=ADVANCED_FACE('',(#64),#1174,.F.);
#1269=ADVANCED_FACE('',(#65),#1175,.F.);
#1270=ADVANCED_FACE('',(#66),#27,.T.);
#1271=ADVANCED_FACE('',(#67),#1176,.T.);
#1272=ADVANCED_FACE('',(#68),#28,.F.);
#1273=ADVANCED_FACE('',(#69),#1177,.F.);
#1274=ADVANCED_FACE('',(#70),#29,.F.);
#1275=ADVANCED_FACE('',(#71),#1178,.F.);
#1276=ADVANCED_FACE('',(#72,#14),#1179,.T.);
#1277=ADVANCED_FACE('',(#73),#30,.F.);
#1278=ADVANCED_FACE('',(#74),#1180,.F.);
#1279=ADVANCED_FACE('',(#75),#31,.F.);
#1280=ADVANCED_FACE('',(#76),#1181,.F.);
#1281=ADVANCED_FACE('',(#77,#15),#1182,.T.);
#1282=ADVANCED_FACE('',(#78),#32,.F.);
#1283=ADVANCED_FACE('',(#79),#1183,.F.);
#1284=ADVANCED_FACE('',(#80),#33,.F.);
#1285=ADVANCED_FACE('',(#81),#1184,.F.);
#1286=ADVANCED_FACE('',(#82),#34,.F.);
#1287=ADVANCED_FACE('',(#83),#1185,.F.);
#1288=ADVANCED_FACE('',(#84),#1186,.F.);
#1289=ADVANCED_FACE('',(#85),#35,.F.);
#1290=ADVANCED_FACE('',(#86),#36,.T.);
#1291=ADVANCED_FACE('',(#87),#1187,.T.);
#1292=ADVANCED_FACE('',(#88),#37,.T.);
#1293=ADVANCED_FACE('',(#89,#16,#17,#18,#19),#1188,.T.);
#1294=ADVANCED_FACE('',(#90),#38,.F.);
#1295=ADVANCED_FACE('',(#91,#20,#21),#1189,.F.);
#1296=ADVANCED_FACE('',(#92),#1190,.F.);
#1297=ADVANCED_FACE('',(#93),#1191,.F.);
#1298=ADVANCED_FACE('',(#94),#39,.F.);
#1299=ADVANCED_FACE('',(#95),#1192,.T.);
#1300=ADVANCED_FACE('',(#96),#1193,.T.);
#1301=ADVANCED_FACE('',(#97),#1194,.F.);
#1302=ADVANCED_FACE('',(#98),#1195,.T.);
#1303=ADVANCED_FACE('',(#99),#1196,.F.);
#1304=ADVANCED_FACE('',(#100,#22,#23),#1197,.F.);
#1305=CLOSED_SHELL('',(#1244,#1245,#1246,#1247,#1248,#1249,#1250,#1251,
#1252,#1253,#1254,#1255,#1256,#1257,#1258,#1259,#1260,#1261,#1262,#1263,
#1264,#1265,#1266,#1267,#1268,#1269,#1270,#1271,#1272,#1273,#1274,#1275,
#1276,#1277,#1278,#1279,#1280,#1281,#1282,#1283,#1284,#1285,#1286,#1287,
#1288,#1289,#1290,#1291,#1292,#1293,#1294,#1295,#1296,#1297,#1298,#1299,
#1300,#1301,#1302,#1303,#1304));
#1306=DERIVED_UNIT_ELEMENT(#1309,1.);
#1307=DERIVED_UNIT_ELEMENT(#2150,-3.);
#1308=DIMENSIONAL_EXPONENTS(0.,1.,0.,0.,0.,0.,0.);
#1309=(
CONVERSION_BASED_UNIT('gram',#1311)
MASS_UNIT()
NAMED_UNIT(#1308)
);
#1310=(
MASS_UNIT()
NAMED_UNIT(*)
SI_UNIT(.KILO.,.GRAM.)
);
#1311=MASS_MEASURE_WITH_UNIT(MASS_MEASURE(0.001),#1310);
#1312=DERIVED_UNIT((#1306,#1307));
#1313=MEASURE_REPRESENTATION_ITEM('density measure',
POSITIVE_RATIO_MEASURE(1.),#1312);
#1314=PROPERTY_DEFINITION_REPRESENTATION(#1319,#1316);
#1315=PROPERTY_DEFINITION_REPRESENTATION(#1320,#1317);
#1316=REPRESENTATION('material name',(#1318),#2147);
#1317=REPRESENTATION('density',(#1313),#2147);
#1318=DESCRIPTIVE_REPRESENTATION_ITEM('\X2\C77CBC18\X0\','\X2\C77CBC18\X0\');
#1319=PROPERTY_DEFINITION('material property','material name',#2157);
#1320=PROPERTY_DEFINITION('material property','density of part',#2157);
#1321=DATE_TIME_ROLE('creation_date');
#1322=APPLIED_DATE_AND_TIME_ASSIGNMENT(#1323,#1321,(#2157));
#1323=DATE_AND_TIME(#1324,#1325);
#1324=CALENDAR_DATE(2026,12,6);
#1325=LOCAL_TIME(0,0,0.,#1326);
#1326=COORDINATED_UNIVERSAL_TIME_OFFSET(0,0,.BEHIND.);
#1327=AXIS2_PLACEMENT_3D('',#1782,#1433,#1434);
#1328=AXIS2_PLACEMENT_3D('',#1783,#1435,#1436);
#1329=AXIS2_PLACEMENT_3D('',#1788,#1438,#1439);
#1330=AXIS2_PLACEMENT_3D('',#1792,#1442,#1443);
#1331=AXIS2_PLACEMENT_3D('',#1797,#1445,#1446);
#1332=AXIS2_PLACEMENT_3D('',#1807,#1452,#1453);
#1333=AXIS2_PLACEMENT_3D('',#1815,#1457,#1458);
#1334=AXIS2_PLACEMENT_3D('',#1816,#1459,#1460);
#1335=AXIS2_PLACEMENT_3D('',#1830,#1467,#1468);
#1336=AXIS2_PLACEMENT_3D('',#1831,#1469,#1470);
#1337=AXIS2_PLACEMENT_3D('',#1833,#1471,#1472);
#1338=AXIS2_PLACEMENT_3D('',#1836,#1474,#1475);
#1339=AXIS2_PLACEMENT_3D('',#1837,#1476,#1477);
#1340=AXIS2_PLACEMENT_3D('',#1843,#1481,#1482);
#1341=AXIS2_PLACEMENT_3D('',#1845,#1483,#1484);
#1342=AXIS2_PLACEMENT_3D('',#1848,#1486,#1487);
#1343=AXIS2_PLACEMENT_3D('',#1849,#1488,#1489);
#1344=AXIS2_PLACEMENT_3D('',#1852,#1490,#1491);
#1345=AXIS2_PLACEMENT_3D('',#1856,#1493,#1494);
#1346=AXIS2_PLACEMENT_3D('',#1858,#1496,#1497);
#1347=AXIS2_PLACEMENT_3D('',#1862,#1501,#1502);
#1348=AXIS2_PLACEMENT_3D('',#1866,#1506,#1507);
#1349=AXIS2_PLACEMENT_3D('',#1870,#1509,#1510);
#1350=AXIS2_PLACEMENT_3D('',#1874,#1512,#1513);
#1351=AXIS2_PLACEMENT_3D('',#1878,#1515,#1516);
#1352=AXIS2_PLACEMENT_3D('',#1882,#1518,#1519);
#1353=AXIS2_PLACEMENT_3D('',#1886,#1521,#1522);
#1354=AXIS2_PLACEMENT_3D('',#1888,#1524,#1525);
#1355=AXIS2_PLACEMENT_3D('',#1901,#1532,#1533);
#1356=AXIS2_PLACEMENT_3D('',#1907,#1537,#1538);
#1357=AXIS2_PLACEMENT_3D('',#1911,#1541,#1542);
#1358=AXIS2_PLACEMENT_3D('',#1919,#1547,#1548);
#1359=AXIS2_PLACEMENT_3D('',#1926,#1553,#1554);
#1360=AXIS2_PLACEMENT_3D('',#1929,#1557,#1558);
#1361=AXIS2_PLACEMENT_3D('',#1935,#1561,#1562);
#1362=AXIS2_PLACEMENT_3D('',#1937,#1564,#1565);
#1363=AXIS2_PLACEMENT_3D('',#1943,#1569,#1570);
#1364=AXIS2_PLACEMENT_3D('',#1947,#1572,#1573);
#1365=AXIS2_PLACEMENT_3D('',#1953,#1577,#1578);
#1366=AXIS2_PLACEMENT_3D('',#1955,#1580,#1581);
#1367=AXIS2_PLACEMENT_3D('',#1958,#1582,#1583);
#1368=AXIS2_PLACEMENT_3D('',#1961,#1586,#1587);
#1369=AXIS2_PLACEMENT_3D('',#1963,#1589,#1590);
#1370=AXIS2_PLACEMENT_3D('',#1967,#1593,#1594);
#1371=AXIS2_PLACEMENT_3D('',#1973,#1598,#1599);
#1372=AXIS2_PLACEMENT_3D('',#1977,#1602,#1603);
#1373=AXIS2_PLACEMENT_3D('',#1978,#1604,#1605);
#1374=AXIS2_PLACEMENT_3D('',#1983,#1608,#1609);
#1375=AXIS2_PLACEMENT_3D('',#1986,#1612,#1613);
#1376=AXIS2_PLACEMENT_3D('',#1990,#1616,#1617);
#1377=AXIS2_PLACEMENT_3D('',#1993,#1618,#1619);
#1378=AXIS2_PLACEMENT_3D('',#1997,#1621,#1622);
#1379=AXIS2_PLACEMENT_3D('',#1999,#1624,#1625);
#1380=AXIS2_PLACEMENT_3D('',#2005,#1629,#1630);
#1381=AXIS2_PLACEMENT_3D('',#2007,#1631,#1632);
#1382=AXIS2_PLACEMENT_3D('',#2010,#1634,#1635);
#1383=AXIS2_PLACEMENT_3D('',#2011,#1636,#1637);
#1384=AXIS2_PLACEMENT_3D('',#2014,#1640,#1641);
#1385=AXIS2_PLACEMENT_3D('',#2017,#1642,#1643);
#1386=AXIS2_PLACEMENT_3D('',#2021,#1645,#1646);
#1387=AXIS2_PLACEMENT_3D('',#2023,#1648,#1649);
#1388=AXIS2_PLACEMENT_3D('',#2026,#1650,#1651);
#1389=AXIS2_PLACEMENT_3D('',#2030,#1653,#1654);
#1390=AXIS2_PLACEMENT_3D('',#2032,#1656,#1657);
#1391=AXIS2_PLACEMENT_3D('',#2038,#1661,#1662);
#1392=AXIS2_PLACEMENT_3D('',#2040,#1663,#1664);
#1393=AXIS2_PLACEMENT_3D('',#2043,#1666,#1667);
#1394=AXIS2_PLACEMENT_3D('',#2044,#1668,#1669);
#1395=AXIS2_PLACEMENT_3D('',#2047,#1672,#1673);
#1396=AXIS2_PLACEMENT_3D('',#2052,#1675,#1676);
#1397=AXIS2_PLACEMENT_3D('',#2055,#1678,#1679);
#1398=AXIS2_PLACEMENT_3D('',#2056,#1680,#1681);
#1399=AXIS2_PLACEMENT_3D('',#2060,#1683,#1684);
#1400=AXIS2_PLACEMENT_3D('',#2062,#1686,#1687);
#1401=AXIS2_PLACEMENT_3D('',#2066,#1690,#1691);
#1402=AXIS2_PLACEMENT_3D('',#2070,#1693,#1694);
#1403=AXIS2_PLACEMENT_3D('',#2072,#1696,#1697);
#1404=AXIS2_PLACEMENT_3D('',#2076,#1700,#1701);
#1405=AXIS2_PLACEMENT_3D('',#2079,#1703,#1704);
#1406=AXIS2_PLACEMENT_3D('',#2080,#1705,#1706);
#1407=AXIS2_PLACEMENT_3D('',#2082,#1708,#1709);
#1408=AXIS2_PLACEMENT_3D('',#2086,#1712,#1713);
#1409=AXIS2_PLACEMENT_3D('',#2087,#1714,#1715);
#1410=AXIS2_PLACEMENT_3D('',#2088,#1716,#1717);
#1411=AXIS2_PLACEMENT_3D('',#2091,#1718,#1719);
#1412=AXIS2_PLACEMENT_3D('',#2095,#1721,#1722);
#1413=AXIS2_PLACEMENT_3D('',#2097,#1724,#1725);
#1414=AXIS2_PLACEMENT_3D('',#2103,#1729,#1730);
#1415=AXIS2_PLACEMENT_3D('',#2104,#1731,#1732);
#1416=AXIS2_PLACEMENT_3D('',#2105,#1733,#1734);
#1417=AXIS2_PLACEMENT_3D('',#2106,#1735,#1736);
#1418=AXIS2_PLACEMENT_3D('',#2112,#1740,#1741);
#1419=AXIS2_PLACEMENT_3D('',#2114,#1742,#1743);
#1420=AXIS2_PLACEMENT_3D('',#2115,#1744,#1745);
#1421=AXIS2_PLACEMENT_3D('',#2118,#1747,#1748);
#1422=AXIS2_PLACEMENT_3D('',#2119,#1749,#1750);
#1423=AXIS2_PLACEMENT_3D('',#2124,#1753,#1754);
#1424=AXIS2_PLACEMENT_3D('',#2125,#1755,#1756);
#1425=AXIS2_PLACEMENT_3D('',#2132,#1761,#1762);
#1426=AXIS2_PLACEMENT_3D('',#2134,#1764,#1765);
#1427=AXIS2_PLACEMENT_3D('',#2136,#1767,#1768);
#1428=AXIS2_PLACEMENT_3D('',#2138,#1770,#1771);
#1429=AXIS2_PLACEMENT_3D('',#2139,#1772,#1773);
#1430=AXIS2_PLACEMENT_3D('',#2140,#1774,#1775);
#1431=AXIS2_PLACEMENT_3D('',#2142,#1777,#1778);
#1432=AXIS2_PLACEMENT_3D('',#2144,#1780,#1781);
#1433=DIRECTION('axis',(0.,0.,1.));
#1434=DIRECTION('refdir',(1.,0.,0.));
#1435=DIRECTION('center_axis',(7.49879891331E-33,1.,1.22464679915E-16));
#1436=DIRECTION('ref_axis',(-1.,7.49879891331E-33,0.));
#1437=DIRECTION('',(6.4594794162358E-16,1.22464679915E-16,-1.));
#1438=DIRECTION('center_axis',(7.49879891331E-33,1.,1.22464679915E-16));
#1439=DIRECTION('ref_axis',(0.,1.22464679915E-16,-1.));
#1440=DIRECTION('',(0.,0.,-1.));
#1441=DIRECTION('',(-1.,7.49879891331E-33,9.18338008665459E-49));
#1442=DIRECTION('center_axis',(7.49879891331E-33,1.,1.22464679915E-16));
#1443=DIRECTION('ref_axis',(-1.,7.49879891331E-33,0.));
#1444=DIRECTION('',(-3.51497010863136E-16,1.22464679915E-16,-1.));
#1445=DIRECTION('center_axis',(7.49879891331E-33,1.,1.22464679915E-16));
#1446=DIRECTION('ref_axis',(0.,1.22464679915E-16,-1.));
#1447=DIRECTION('',(0.,0.,-1.));
#1448=DIRECTION('',(-0.707106781186548,0.,0.707106781186548));
#1449=DIRECTION('',(1.,0.,0.));
#1450=DIRECTION('',(0.,0.,1.));
#1451=DIRECTION('',(1.,-7.49879891331E-33,-9.18338008665459E-49));
#1452=DIRECTION('center_axis',(7.49879891331E-33,1.,1.22464679915E-16));
#1453=DIRECTION('ref_axis',(-1.,7.49879891331E-33,0.));
#1454=DIRECTION('',(3.51497010863136E-16,-1.22464679915E-16,1.));
#1455=DIRECTION('',(-1.,7.49879891331E-33,9.18338008665459E-49));
#1456=DIRECTION('',(0.,1.22464679915E-16,-1.));
#1457=DIRECTION('center_axis',(7.49879891331E-33,1.,1.22464679915E-16));
#1458=DIRECTION('ref_axis',(0.,1.22464679915E-16,-1.));
#1459=DIRECTION('center_axis',(7.49879891331E-33,1.,1.22464679915E-16));
#1460=DIRECTION('ref_axis',(-1.,7.49879891331E-33,0.));
#1461=DIRECTION('',(-6.4594794162358E-16,-1.22464679915E-16,1.));
#1462=DIRECTION('',(1.,-7.49879891331E-33,-9.18338008665459E-49));
#1463=DIRECTION('',(0.,3.98063157289E-16,-1.));
#1464=DIRECTION('',(1.,0.,0.));
#1465=DIRECTION('',(-0.707106781186548,0.,-0.707106781186548));
#1466=DIRECTION('',(0.,0.,-1.));
#1467=DIRECTION('center_axis',(7.49879891331E-33,1.,1.22464679915E-16));
#1468=DIRECTION('ref_axis',(0.,1.22464679915E-16,-1.));
#1469=DIRECTION('center_axis',(1.83667601733E-48,2.44929359829E-16,-1.));
#1470=DIRECTION('ref_axis',(-1.83697019872E-16,1.,2.44929359829E-16));
#1471=DIRECTION('center_axis',(2.1291827472693E-49,1.5085833031E-16,-1.));
#1472=DIRECTION('ref_axis',(-1.83697019872E-16,1.,2.44929359829E-16));
#1473=DIRECTION('',(0.,0.,1.));
#1474=DIRECTION('center_axis',(0.,0.,1.));
#1475=DIRECTION('ref_axis',(-2.96059473233376E-15,1.,0.));
#1476=DIRECTION('center_axis',(-1.,7.49879891331E-33,0.));
#1477=DIRECTION('ref_axis',(-9.18338008665459E-49,-1.22464679915E-16,1.));
#1478=DIRECTION('',(-7.49879891331E-33,-1.,-1.5085833031E-16));
#1479=DIRECTION('',(0.,-7.96126314577E-16,-1.));
#1480=DIRECTION('',(0.,1.,1.81029996372E-16));
#1481=DIRECTION('center_axis',(-1.01033062679E-47,-5.51196954748E-16,-1.));
#1482=DIRECTION('ref_axis',(1.,-1.49975978266E-32,-1.83667601734286E-48));
#1483=DIRECTION('center_axis',(2.1291827472693E-49,1.5085833031E-16,-1.));
#1484=DIRECTION('ref_axis',(1.,-1.49975978266E-32,-1.83667601734286E-48));
#1485=DIRECTION('',(0.,0.,1.));
#1486=DIRECTION('center_axis',(0.,0.,1.));
#1487=DIRECTION('ref_axis',(1.,-5.92118946466745E-15,0.));
#1488=DIRECTION('center_axis',(7.49879891331E-33,1.,1.22464679915E-16));
#1489=DIRECTION('ref_axis',(0.,-1.22464679915E-16,1.));
#1490=DIRECTION('center_axis',(7.49879891331E-33,1.,1.22464679915E-16));
#1491=DIRECTION('ref_axis',(-1.17145536458E-15,-1.22464679915E-16,1.));
#1492=DIRECTION('',(1.75748505431568E-16,-1.22464679915E-16,1.));
#1493=DIRECTION('center_axis',(-7.49879891331E-33,-1.,-1.22464679915E-16));
#1494=DIRECTION('ref_axis',(1.,-1.85652125553338E-31,1.45473230946E-15));
#1495=DIRECTION('',(-3.51497010863136E-16,1.22464679915E-16,-1.));
#1496=DIRECTION('center_axis',(-1.,0.,3.51497010863136E-16));
#1497=DIRECTION('ref_axis',(-3.51497010863136E-16,1.22464679915E-16,-1.));
#1498=DIRECTION('',(7.49879891331E-33,1.,1.22464679915E-16));
#1499=DIRECTION('',(-7.49879891331E-33,-1.,-1.22464679915E-16));
#1500=DIRECTION('',(-8.64133652855098E-31,1.,1.22464679915E-16));
#1501=DIRECTION('center_axis',(1.,0.,-1.75748505431568E-16));
#1502=DIRECTION('ref_axis',(1.75748505431568E-16,-1.22464679915E-16,1.));
#1503=DIRECTION('',(-7.49879891331E-33,-1.,-1.22464679915E-16));
#1504=DIRECTION('',(7.91058079126849E-32,-1.,-1.22464679915E-16));
#1505=DIRECTION('',(7.49879891331E-33,1.,1.22464679915E-16));
#1506=DIRECTION('center_axis',(7.49879891331E-33,1.,1.22464679915E-16));
#1507=DIRECTION('ref_axis',(-3.83475850554525E-17,1.22464679915E-16,-1.));
#1508=DIRECTION('',(0.,1.,0.));
#1509=DIRECTION('center_axis',(0.,-1.,0.));
#1510=DIRECTION('ref_axis',(-1.17145536458E-15,-1.22464679915E-16,1.));
#1511=DIRECTION('',(-7.49879891331E-33,-1.,-1.22464679915E-16));
#1512=DIRECTION('center_axis',(0.,1.,1.43254583822601E-16));
#1513=DIRECTION('ref_axis',(-1.17145536458E-15,-1.22464679915E-16,1.));
#1514=DIRECTION('',(0.,1.,0.));
#1515=DIRECTION('center_axis',(0.,1.,0.));
#1516=DIRECTION('ref_axis',(-1.,0.,0.));
#1517=DIRECTION('',(0.,-1.,0.));
#1518=DIRECTION('center_axis',(0.,1.,1.43254583822601E-16));
#1519=DIRECTION('ref_axis',(-1.17145536458E-15,-1.22464679915E-16,1.));
#1520=DIRECTION('',(7.49879891331E-33,1.,1.22464679915E-16));
#1521=DIRECTION('center_axis',(0.,-1.,0.));
#1522=DIRECTION('ref_axis',(-1.17145536458E-15,-1.22464679915E-16,1.));
#1523=DIRECTION('',(0.,-1.,0.));
#1524=DIRECTION('center_axis',(0.,0.,-1.));
#1525=DIRECTION('ref_axis',(-1.,0.,0.));
#1526=DIRECTION('',(-1.,0.,0.));
#1527=DIRECTION('',(-7.49879891331E-33,-1.,0.));
#1528=DIRECTION('',(1.,1.40349014033531E-31,0.));
#1529=DIRECTION('',(-1.75876914792104E-16,1.,1.22464679915E-16));
#1530=DIRECTION('',(-1.,-1.40349014033531E-31,0.));
#1531=DIRECTION('',(-7.49879891331E-33,-1.,0.));
#1532=DIRECTION('center_axis',(-1.40349014033531E-31,1.,0.));
#1533=DIRECTION('ref_axis',(1.,1.40349014033531E-31,0.));
#1534=DIRECTION('',(1.,1.40349014033531E-31,1.81061350886652E-47));
#1535=DIRECTION('',(0.,0.,-1.));
#1536=DIRECTION('',(0.,0.,-1.));
#1537=DIRECTION('center_axis',(-1.,-1.75876914792104E-16,0.));
#1538=DIRECTION('ref_axis',(-1.75876914792104E-16,1.,1.22464679915E-16));
#1539=DIRECTION('',(-1.75876914792104E-16,1.,1.22464679915E-16));
#1540=DIRECTION('',(0.,0.,-1.));
#1541=DIRECTION('center_axis',(1.40349014033531E-31,-1.,0.));
#1542=DIRECTION('ref_axis',(-1.,-1.40349014033531E-31,0.));
#1543=DIRECTION('',(1.,1.40349014033531E-31,2.59697844772442E-47));
#1544=DIRECTION('',(0.,0.,1.));
#1545=DIRECTION('',(-1.,-1.40349014033531E-31,-1.81061350886652E-47));
#1546=DIRECTION('',(0.,0.,1.));
#1547=DIRECTION('center_axis',(-1.,7.49879891331E-33,0.));
#1548=DIRECTION('ref_axis',(9.18338008665459E-49,1.22464679915E-16,-1.));
#1549=DIRECTION('',(0.,1.,1.22464679915E-16));
#1550=DIRECTION('',(0.,-5.80034886335E-16,1.));
#1551=DIRECTION('',(-1.0742373174956E-48,-1.43254583822601E-16,1.));
#1552=DIRECTION('',(7.49879891331E-33,1.,1.85037170770859E-16));
#1553=DIRECTION('center_axis',(-1.,7.49879891331E-33,0.));
#1554=DIRECTION('ref_axis',(9.18338008665459E-49,1.22464679915E-16,-1.));
#1555=DIRECTION('',(0.,0.,-1.));
#1556=DIRECTION('',(0.,1.,1.22464679915E-16));
#1557=DIRECTION('center_axis',(0.,1.,0.));
#1558=DIRECTION('ref_axis',(0.,0.,-1.));
#1559=DIRECTION('',(0.,0.,1.));
#1560=DIRECTION('',(0.,0.,1.));
#1561=DIRECTION('center_axis',(0.,1.,0.));
#1562=DIRECTION('ref_axis',(1.,-1.85652125553338E-31,1.45473230946E-15));
#1563=DIRECTION('',(-1.,0.,0.));
#1564=DIRECTION('center_axis',(-1.,7.49879891331E-33,0.));
#1565=DIRECTION('ref_axis',(0.,0.,1.));
#1566=DIRECTION('',(-7.49879891331E-33,-1.,-1.85037170770859E-16));
#1567=DIRECTION('',(1.0742373174956E-48,1.43254583822601E-16,-1.));
#1568=DIRECTION('',(0.,1.,1.81029996372E-16));
#1569=DIRECTION('center_axis',(0.,1.,0.));
#1570=DIRECTION('ref_axis',(0.,0.,-1.));
#1571=DIRECTION('',(-1.,0.,0.));
#1572=DIRECTION('center_axis',(0.,1.,0.));
#1573=DIRECTION('ref_axis',(1.,-1.85652125553338E-31,1.45473230946E-15));
#1574=DIRECTION('',(0.,0.,-1.));
#1575=DIRECTION('',(-1.,0.,0.));
#1576=DIRECTION('',(0.,0.,1.));
#1577=DIRECTION('center_axis',(0.,-1.85037170770859E-16,1.));
#1578=DIRECTION('ref_axis',(7.49879891331E-33,1.,1.85037170770859E-16));
#1579=DIRECTION('',(-1.,0.,0.));
#1580=DIRECTION('center_axis',(0.,-1.,-1.43254583822601E-16));
#1581=DIRECTION('ref_axis',(-1.0742373174956E-48,-1.43254583822601E-16,
1.));
#1582=DIRECTION('center_axis',(0.,-1.,-1.43254583822601E-16));
#1583=DIRECTION('ref_axis',(1.,-1.85652125553338E-31,1.45473230946E-15));
#1584=DIRECTION('',(1.0742373174956E-48,1.43254583822601E-16,-1.));
#1585=DIRECTION('',(-1.,0.,0.));
#1586=DIRECTION('center_axis',(0.,1.48029736616688E-16,-1.));
#1587=DIRECTION('ref_axis',(-7.49879891331E-33,-1.,-1.48029736616688E-16));
#1588=DIRECTION('',(7.49879891331E-33,1.,1.22464679915E-16));
#1589=DIRECTION('center_axis',(0.,1.48029736616688E-16,-1.));
#1590=DIRECTION('ref_axis',(-7.49879891331E-33,-1.,-1.48029736616688E-16));
#1591=DIRECTION('',(-1.,0.,0.));
#1592=DIRECTION('',(-7.49879891331E-33,-1.,-1.22464679915E-16));
#1593=DIRECTION('center_axis',(0.,-1.85037170770859E-16,1.));
#1594=DIRECTION('ref_axis',(7.49879891331E-33,1.,1.85037170770859E-16));
#1595=DIRECTION('',(-7.49879891331E-33,-1.,-1.85037170770859E-16));
#1596=DIRECTION('',(7.49879891331E-33,1.,1.85037170770859E-16));
#1597=DIRECTION('',(-1.,0.,0.));
#1598=DIRECTION('center_axis',(0.,-1.,-1.43254583822601E-16));
#1599=DIRECTION('ref_axis',(-1.0742373174956E-48,-1.43254583822601E-16,
1.));
#1600=DIRECTION('',(1.0742373174956E-48,1.43254583822601E-16,-1.));
#1601=DIRECTION('',(-1.0742373174956E-48,-1.43254583822601E-16,1.));
#1602=DIRECTION('center_axis',(0.,-1.,-1.43254583822601E-16));
#1603=DIRECTION('ref_axis',(1.,-1.85652125553338E-31,1.45473230946E-15));
#1604=DIRECTION('center_axis',(7.49879891331E-33,1.,1.22464679915E-16));
#1605=DIRECTION('ref_axis',(1.,-1.85652125553338E-31,1.45473230946E-15));
#1606=DIRECTION('',(0.,-1.,0.));
#1607=DIRECTION('',(0.,-1.,0.));
#1608=DIRECTION('center_axis',(7.49879891331E-33,1.,1.22464679915E-16));
#1609=DIRECTION('ref_axis',(0.,1.22464679915E-16,-1.));
#1610=DIRECTION('',(0.,1.,0.));
#1611=DIRECTION('',(0.,1.,0.));
#1612=DIRECTION('center_axis',(-1.,7.49879891331E-33,0.));
#1613=DIRECTION('ref_axis',(9.18338008665459E-49,1.22464679915E-16,-1.));
#1614=DIRECTION('',(0.,2.08217651505E-15,-1.));
#1615=DIRECTION('',(0.,1.,1.81029996372E-16));
#1616=DIRECTION('center_axis',(0.,0.,1.));
#1617=DIRECTION('ref_axis',(1.12463970284693E-64,-1.,0.));
#1618=DIRECTION('center_axis',(-9.18338008663E-49,-1.22464679915E-16,1.));
#1619=DIRECTION('ref_axis',(1.12463970284693E-64,-1.,0.));
#1620=DIRECTION('',(0.,0.,1.));
#1621=DIRECTION('center_axis',(-9.18338008663E-49,-1.22464679915E-16,1.));
#1622=DIRECTION('ref_axis',(1.12463970284693E-64,-1.,-1.22464679915E-16));
#1623=DIRECTION('',(0.,0.,1.));
#1624=DIRECTION('center_axis',(0.,1.,0.));
#1625=DIRECTION('ref_axis',(-1.,0.,-9.18338008663E-49));
#1626=DIRECTION('',(-1.,0.,-9.18338008663E-49));
#1627=DIRECTION('',(0.,0.,1.));
#1628=DIRECTION('',(-1.,0.,-9.18338008663E-49));
#1629=DIRECTION('center_axis',(0.,0.,1.));
#1630=DIRECTION('ref_axis',(-1.12463970284693E-64,1.,0.));
#1631=DIRECTION('center_axis',(-9.18338008663E-49,-1.22464679915E-16,1.));
#1632=DIRECTION('ref_axis',(-1.12463970284693E-64,1.,0.));
#1633=DIRECTION('',(0.,0.,1.));
#1634=DIRECTION('center_axis',(-9.18338008663E-49,-1.22464679915E-16,1.));
#1635=DIRECTION('ref_axis',(-1.12463970284693E-64,1.,1.22464679915E-16));
#1636=DIRECTION('center_axis',(0.,-1.,0.));
#1637=DIRECTION('ref_axis',(1.,0.,9.18338008663E-49));
#1638=DIRECTION('',(1.,0.,9.18338008663E-49));
#1639=DIRECTION('',(1.,0.,9.18338008663E-49));
#1640=DIRECTION('center_axis',(9.18338008663E-49,1.22464679915E-16,-1.));
#1641=DIRECTION('ref_axis',(-1.,0.,-9.18338008663E-49));
#1642=DIRECTION('center_axis',(9.18338008663E-49,1.22464679915E-16,-1.));
#1643=DIRECTION('ref_axis',(1.12463970284693E-64,-1.,0.));
#1644=DIRECTION('',(-1.,0.,-9.18338008663E-49));
#1645=DIRECTION('center_axis',(9.18338008663E-49,1.22464679915E-16,-1.));
#1646=DIRECTION('ref_axis',(-1.12463970284693E-64,1.,0.));
#1647=DIRECTION('',(1.,0.,9.18338008663E-49));
#1648=DIRECTION('center_axis',(0.,0.,1.));
#1649=DIRECTION('ref_axis',(-1.12463970284693E-64,1.,0.));
#1650=DIRECTION('center_axis',(-9.18338008663E-49,-1.22464679915E-16,1.));
#1651=DIRECTION('ref_axis',(-1.12463970284693E-64,1.,0.));
#1652=DIRECTION('',(0.,0.,1.));
#1653=DIRECTION('center_axis',(-9.18338008663E-49,-1.22464679915E-16,1.));
#1654=DIRECTION('ref_axis',(-1.12463970284693E-64,1.,1.22464679915E-16));
#1655=DIRECTION('',(0.,0.,1.));
#1656=DIRECTION('center_axis',(0.,-1.,0.));
#1657=DIRECTION('ref_axis',(1.,0.,9.18338008663E-49));
#1658=DIRECTION('',(1.,0.,9.18338008663E-49));
#1659=DIRECTION('',(0.,0.,1.));
#1660=DIRECTION('',(1.,0.,9.18338008663E-49));
#1661=DIRECTION('center_axis',(0.,0.,1.));
#1662=DIRECTION('ref_axis',(1.12463970284693E-64,-1.,0.));
#1663=DIRECTION('center_axis',(-9.18338008663E-49,-1.22464679915E-16,1.));
#1664=DIRECTION('ref_axis',(1.12463970284693E-64,-1.,0.));
#1665=DIRECTION('',(0.,0.,1.));
#1666=DIRECTION('center_axis',(-9.18338008663E-49,-1.22464679915E-16,1.));
#1667=DIRECTION('ref_axis',(1.12463970284693E-64,-1.,-1.22464679915E-16));
#1668=DIRECTION('center_axis',(0.,1.,0.));
#1669=DIRECTION('ref_axis',(-1.,0.,-9.18338008663E-49));
#1670=DIRECTION('',(-1.,0.,-9.18338008663E-49));
#1671=DIRECTION('',(-1.,0.,-9.18338008663E-49));
#1672=DIRECTION('center_axis',(9.18338008663E-49,1.22464679915E-16,-1.));
#1673=DIRECTION('ref_axis',(-1.,0.,-9.18338008663E-49));
#1674=DIRECTION('',(-1.,0.,-9.18338008663E-49));
#1675=DIRECTION('center_axis',(9.18338008663E-49,1.22464679915E-16,-1.));
#1676=DIRECTION('ref_axis',(-1.12463970284693E-64,1.,0.));
#1677=DIRECTION('',(1.,0.,9.18338008663E-49));
#1678=DIRECTION('center_axis',(9.18338008663E-49,1.22464679915E-16,-1.));
#1679=DIRECTION('ref_axis',(1.12463970284693E-64,-1.,0.));
#1680=DIRECTION('center_axis',(0.,0.,1.));
#1681=DIRECTION('ref_axis',(-1.12463970284693E-64,1.,0.));
#1682=DIRECTION('',(0.,0.,1.));
#1683=DIRECTION('center_axis',(9.18338008663E-49,1.22464679915E-16,-1.));
#1684=DIRECTION('ref_axis',(-1.12463970284693E-64,1.,0.));
#1685=DIRECTION('',(0.,0.,1.));
#1686=DIRECTION('center_axis',(0.,-1.,0.));
#1687=DIRECTION('ref_axis',(1.,0.,9.18338008663E-49));
#1688=DIRECTION('',(0.,0.,1.));
#1689=DIRECTION('',(-1.,0.,-9.18338008663E-49));
#1690=DIRECTION('center_axis',(0.,0.,1.));
#1691=DIRECTION('ref_axis',(-1.12463970284693E-64,1.,0.));
#1692=DIRECTION('',(0.,0.,1.));
#1693=DIRECTION('center_axis',(9.18338008663E-49,1.22464679915E-16,-1.));
#1694=DIRECTION('ref_axis',(-1.12463970284693E-64,1.,0.));
#1695=DIRECTION('',(0.,0.,1.));
#1696=DIRECTION('center_axis',(0.,-1.,0.));
#1697=DIRECTION('ref_axis',(1.,0.,9.18338008663E-49));
#1698=DIRECTION('',(0.,0.,1.));
#1699=DIRECTION('',(-1.,0.,-9.18338008663E-49));
#1700=DIRECTION('center_axis',(0.,0.,1.));
#1701=DIRECTION('ref_axis',(1.12463970284693E-64,-1.,0.));
#1702=DIRECTION('',(0.,0.,1.));
#1703=DIRECTION('center_axis',(9.18338008663E-49,1.22464679915E-16,-1.));
#1704=DIRECTION('ref_axis',(1.12463970284693E-64,-1.,0.));
#1705=DIRECTION('center_axis',(0.,1.,0.));
#1706=DIRECTION('ref_axis',(-1.,0.,-9.18338008663E-49));
#1707=DIRECTION('',(1.,0.,9.18338008663E-49));
#1708=DIRECTION('center_axis',(0.,1.,0.));
#1709=DIRECTION('ref_axis',(-1.,0.,-9.18338008663E-49));
#1710=DIRECTION('',(1.,0.,9.18338008663E-49));
#1711=DIRECTION('',(0.,0.,1.));
#1712=DIRECTION('center_axis',(0.,0.,1.));
#1713=DIRECTION('ref_axis',(1.12463970284693E-64,-1.,0.));
#1714=DIRECTION('center_axis',(9.18338008663E-49,1.22464679915E-16,-1.));
#1715=DIRECTION('ref_axis',(1.12463970284693E-64,-1.,0.));
#1716=DIRECTION('center_axis',(0.,0.,1.));
#1717=DIRECTION('ref_axis',(0.,-1.,0.));
#1718=DIRECTION('center_axis',(9.18338008663E-49,1.22464679915E-16,-1.));
#1719=DIRECTION('ref_axis',(0.,-1.,0.));
#1720=DIRECTION('',(0.,0.,1.));
#1721=DIRECTION('center_axis',(9.18338008663E-49,1.22464679915E-16,-1.));
#1722=DIRECTION('ref_axis',(0.,-1.,-1.22464679915E-16));
#1723=DIRECTION('',(0.,0.,1.));
#1724=DIRECTION('center_axis',(-1.,0.,0.));
#1725=DIRECTION('ref_axis',(0.,-1.,-1.22464679915E-16));
#1726=DIRECTION('',(0.,1.,1.22464679915E-16));
#1727=DIRECTION('',(0.,0.,1.));
#1728=DIRECTION('',(0.,1.,1.22464679915E-16));
#1729=DIRECTION('center_axis',(0.,0.,1.));
#1730=DIRECTION('ref_axis',(-1.,-1.97372982155583E-15,0.));
#1731=DIRECTION('center_axis',(9.18338008663E-49,1.22464679915E-16,-1.));
#1732=DIRECTION('ref_axis',(-1.,-1.97372982155583E-15,0.));
#1733=DIRECTION('center_axis',(0.,1.22464679915E-16,-1.));
#1734=DIRECTION('ref_axis',(-1.,-1.97372982155583E-15,-2.41712190835525E-31));
#1735=DIRECTION('center_axis',(-9.18338008663E-49,-1.22464679915E-16,1.));
#1736=DIRECTION('ref_axis',(1.,0.,9.18338008663E-49));
#1737=DIRECTION('',(7.49879891331E-33,1.,1.5085833031E-16));
#1738=DIRECTION('',(1.,-7.49879891331E-33,-9.18338008665459E-49));
#1739=DIRECTION('',(-1.,-3.20731096002823E-15,-3.92782310107729E-31));
#1740=DIRECTION('center_axis',(-2.1291827472693E-49,-1.5085833031E-16,1.));
#1741=DIRECTION('ref_axis',(1.,-1.49975978266E-32,-9.18338008665469E-49));
#1742=DIRECTION('center_axis',(-2.1291827472693E-49,-1.5085833031E-16,1.));
#1743=DIRECTION('ref_axis',(1.,-1.49975978266E-32,-9.18338008665469E-49));
#1744=DIRECTION('center_axis',(9.18338008663E-49,1.22464679915E-16,-1.));
#1745=DIRECTION('ref_axis',(1.,-1.49975978266E-32,-9.18338008665469E-49));
#1746=DIRECTION('',(9.18338008663E-49,1.22464679915E-16,-1.));
#1747=DIRECTION('center_axis',(9.18338008663E-49,1.22464679915E-16,-1.));
#1748=DIRECTION('ref_axis',(1.,0.,9.18338008663E-49));
#1749=DIRECTION('center_axis',(-9.18338008663E-49,-1.22464679915E-16,1.));
#1750=DIRECTION('ref_axis',(1.,-7.49879891331E-33,-2.45897222344196E-60));
#1751=DIRECTION('',(0.,1.,1.81029996372E-16));
#1752=DIRECTION('',(1.,0.,0.));
#1753=DIRECTION('center_axis',(0.,0.,1.));
#1754=DIRECTION('ref_axis',(-1.,0.,0.));
#1755=DIRECTION('center_axis',(7.49879891331E-33,1.,1.22464679915E-16));
#1756=DIRECTION('ref_axis',(-1.,7.49879891331E-33,0.));
#1757=DIRECTION('',(1.,0.,0.));
#1758=DIRECTION('',(0.707106781186548,0.,-0.707106781186548));
#1759=DIRECTION('',(0.,1.35341473478E-15,-1.));
#1760=DIRECTION('',(0.707106781186548,0.,0.707106781186548));
#1761=DIRECTION('center_axis',(-0.707106781186548,9.67670022834381E-18,
0.707106781186548));
#1762=DIRECTION('ref_axis',(-2.86724746400594E-29,1.,-1.36849207019713E-17));
#1763=DIRECTION('',(0.,1.,0.));
#1764=DIRECTION('center_axis',(9.18338008663E-49,1.22464679915E-16,-1.));
#1765=DIRECTION('ref_axis',(1.,-1.49975978266E-32,-9.18338008665469E-49));
#1766=DIRECTION('',(9.18338008663E-49,1.22464679915E-16,-1.));
#1767=DIRECTION('center_axis',(7.49879891331E-33,1.,1.22464679915E-16));
#1768=DIRECTION('ref_axis',(-1.,7.49879891331E-33,0.));
#1769=DIRECTION('',(0.,-5.80034886335E-16,1.));
#1770=DIRECTION('center_axis',(-1.,7.49879891331E-33,0.));
#1771=DIRECTION('ref_axis',(9.18338008665459E-49,1.22464679915E-16,-1.));
#1772=DIRECTION('center_axis',(-1.,7.49879891331E-33,0.));
#1773=DIRECTION('ref_axis',(9.18338008665459E-49,1.22464679915E-16,-1.));
#1774=DIRECTION('center_axis',(-1.,7.49879891331E-33,0.));
#1775=DIRECTION('ref_axis',(9.18338008665459E-49,1.22464679915E-16,-1.));
#1776=DIRECTION('',(0.,1.,1.81029996372E-16));
#1777=DIRECTION('center_axis',(0.707106781186548,-1.73191211246889E-16,
0.707106781186548));
#1778=DIRECTION('ref_axis',(8.719378193021E-29,1.,2.44929359829087E-16));
#1779=DIRECTION('',(0.,1.,2.58614280531E-16));
#1780=DIRECTION('center_axis',(-9.18338008663E-49,-1.22464679915E-16,1.));
#1781=DIRECTION('ref_axis',(1.,-7.49879891331E-33,-2.45897222344196E-60));
#1782=CARTESIAN_POINT('',(0.,0.,0.));
#1783=CARTESIAN_POINT('Origin',(6.18650910348E-31,-114.6,-1.83183733374E-14));
#1784=CARTESIAN_POINT('',(-171.500000001,-114.6,-103.65));
#1785=CARTESIAN_POINT('',(-171.500000001,-114.6,-145.743476940363));
#1786=CARTESIAN_POINT('',(-171.500000001,-114.6,-52.3250000000001));
#1787=CARTESIAN_POINT('',(-164.5,-114.6,-129.65));
#1788=CARTESIAN_POINT('Origin',(-186.5,-114.6,-129.65));
#1789=CARTESIAN_POINT('',(-164.5,-114.6,-103.65));
#1790=CARTESIAN_POINT('',(-164.5,-114.6,-116.14));
#1791=CARTESIAN_POINT('',(-104.569456528262,-114.6,-103.65));
#1792=CARTESIAN_POINT('Origin',(6.33648508175E-31,-112.6,-1.80734439776E-14));
#1793=CARTESIAN_POINT('',(-201.500000001,-112.6,-103.65));
#1794=CARTESIAN_POINT('',(-201.500000001,-112.6,-148.384993994395));
#1795=CARTESIAN_POINT('',(-201.500000001,-112.6,-52.325));
#1796=CARTESIAN_POINT('',(-210.5,-112.6,-129.65));
#1797=CARTESIAN_POINT('Origin',(-186.5,-112.6,-129.65));
#1798=CARTESIAN_POINT('',(-210.5,-112.6,-116.));
#1799=CARTESIAN_POINT('',(-210.5,-112.6,-122.825));
#1800=CARTESIAN_POINT('',(-213.5,-112.6,-113.));
#1801=CARTESIAN_POINT('',(-212.,-112.6,-114.5));
#1802=CARTESIAN_POINT('',(-224.5,-112.6,-113.));
#1803=CARTESIAN_POINT('',(-219.75,-112.6,-113.));
#1804=CARTESIAN_POINT('',(-224.5,-112.6,-103.65));
#1805=CARTESIAN_POINT('',(-224.5,-112.6,-113.));
#1806=CARTESIAN_POINT('',(-104.569456528262,-112.6,-103.65));
#1807=CARTESIAN_POINT('Origin',(6.18650910348E-31,-114.6,-1.83183733374E-14));
#1808=CARTESIAN_POINT('',(-201.500000001,-114.6,-145.743476938499));
#1809=CARTESIAN_POINT('',(-201.500000001,-114.6,-103.65));
#1810=CARTESIAN_POINT('',(-201.500000001,-114.6,-52.325));
#1811=CARTESIAN_POINT('',(-208.5,-114.6,-103.65));
#1812=CARTESIAN_POINT('',(-104.569456528262,-114.6,-103.65));
#1813=CARTESIAN_POINT('',(-208.5,-114.6,-129.65));
#1814=CARTESIAN_POINT('',(-208.5,-114.6,-55.));
#1815=CARTESIAN_POINT('Origin',(-186.5,-114.6,-129.65));
#1816=CARTESIAN_POINT('Origin',(6.33648508175E-31,-112.6,-1.80734439776E-14));
#1817=CARTESIAN_POINT('',(-171.500000001,-112.6,-148.384993995996));
#1818=CARTESIAN_POINT('',(-171.500000001,-112.6,-103.65));
#1819=CARTESIAN_POINT('',(-171.500000001,-112.6,-52.3250000000001));
#1820=CARTESIAN_POINT('',(-154.5,-112.6,-103.65));
#1821=CARTESIAN_POINT('',(-104.569456528262,-112.6,-103.65));
#1822=CARTESIAN_POINT('',(-154.5,-112.6,-105.65));
#1823=CARTESIAN_POINT('',(-154.5,-112.6,-128.15));
#1824=CARTESIAN_POINT('',(-159.5,-112.6,-105.65));
#1825=CARTESIAN_POINT('',(-155.5,-112.6,-105.65));
#1826=CARTESIAN_POINT('',(-162.5,-112.6,-108.65));
#1827=CARTESIAN_POINT('',(-161.,-112.6,-107.15));
#1828=CARTESIAN_POINT('',(-162.5,-112.6,-129.65));
#1829=CARTESIAN_POINT('',(-162.5,-112.6,-119.15));
#1830=CARTESIAN_POINT('Origin',(-186.5,-112.6,-129.65));
#1831=CARTESIAN_POINT('Origin',(-154.5,-118.6,-128.15));
#1832=CARTESIAN_POINT('',(-148.5,-118.6,-103.65));
#1833=CARTESIAN_POINT('Origin',(-154.5,-118.6,-103.65));
#1834=CARTESIAN_POINT('',(-148.5,-118.6,-105.65));
#1835=CARTESIAN_POINT('',(-148.5,-118.6,-104.15));
#1836=CARTESIAN_POINT('Origin',(-154.5,-118.6,-105.65));
#1837=CARTESIAN_POINT('Origin',(-148.5,-191.1,-104.65));
#1838=CARTESIAN_POINT('',(-148.5,-185.1,-103.65));
#1839=CARTESIAN_POINT('',(-148.5,-151.85,-103.65));
#1840=CARTESIAN_POINT('',(-148.5,-185.1,-105.65));
#1841=CARTESIAN_POINT('',(-148.5,-185.1,-128.15));
#1842=CARTESIAN_POINT('',(-148.5,-151.85,-105.65));
#1843=CARTESIAN_POINT('Origin',(-154.5,-185.1,-128.15));
#1844=CARTESIAN_POINT('',(-154.5,-191.1,-103.65));
#1845=CARTESIAN_POINT('Origin',(-154.5,-185.1,-103.65));
#1846=CARTESIAN_POINT('',(-154.5,-191.1,-105.65));
#1847=CARTESIAN_POINT('',(-154.5,-191.1,-104.15));
#1848=CARTESIAN_POINT('Origin',(-154.5,-185.1,-105.65));
#1849=CARTESIAN_POINT('Origin',(-186.500000001,-124.6,-129.918448727889));
#1850=CARTESIAN_POINT('',(-171.500000001,-124.6,-145.743476940363));
#1851=CARTESIAN_POINT('',(-201.500000001,-124.6,-145.743476938499));
#1852=CARTESIAN_POINT('Origin',(-186.5,-124.6,-129.65));
#1853=CARTESIAN_POINT('',(-171.500000001,-124.6,-148.384993995996));
#1854=CARTESIAN_POINT('',(-171.500000001,-124.6,-104.65));
#1855=CARTESIAN_POINT('',(-201.500000001,-124.6,-148.384993994395));
#1856=CARTESIAN_POINT('Origin',(-186.5,-124.6,-129.65));
#1857=CARTESIAN_POINT('',(-201.500000001,-124.6,-155.186897455777));
#1858=CARTESIAN_POINT('Origin',(-201.500000001,-84.6,-104.65));
#1859=CARTESIAN_POINT('',(-201.500000001,-151.85,-145.743476938499));
#1860=CARTESIAN_POINT('',(-201.500000001,-151.85,-148.384993994395));
#1861=CARTESIAN_POINT('',(-201.500000001,-132.225,-103.65));
#1862=CARTESIAN_POINT('Origin',(-171.500000001,-84.6,-155.186897455777));
#1863=CARTESIAN_POINT('',(-171.500000001,-151.85,-145.743476940363));
#1864=CARTESIAN_POINT('',(-171.500000001,-132.225,-103.65));
#1865=CARTESIAN_POINT('',(-171.500000001,-151.85,-148.384993995996));
#1866=CARTESIAN_POINT('Origin',(-186.5,-151.85,-129.65));
#1867=CARTESIAN_POINT('',(-208.5,-156.6,-129.65));
#1868=CARTESIAN_POINT('',(-208.5,-151.85,-129.65));
#1869=CARTESIAN_POINT('',(-205.552558883258,-156.6,-140.65));
#1870=CARTESIAN_POINT('Origin',(-186.5,-156.6,-129.65));
#1871=CARTESIAN_POINT('',(-205.552558883258,-186.6,-140.65));
#1872=CARTESIAN_POINT('',(-205.552558883258,-151.85,-140.65));
#1873=CARTESIAN_POINT('',(-208.5,-186.6,-129.65));
#1874=CARTESIAN_POINT('Origin',(-186.5,-186.6,-129.65));
#1875=CARTESIAN_POINT('',(-208.5,-189.1,-129.65));
#1876=CARTESIAN_POINT('',(-208.5,-151.85,-129.65));
#1877=CARTESIAN_POINT('',(-164.5,-189.1,-129.65));
#1878=CARTESIAN_POINT('Origin',(-186.5,-189.1,-129.65));
#1879=CARTESIAN_POINT('',(-164.5,-186.6,-129.65));
#1880=CARTESIAN_POINT('',(-164.5,-151.85,-129.65));
#1881=CARTESIAN_POINT('',(-167.447441116742,-186.6,-140.65));
#1882=CARTESIAN_POINT('Origin',(-186.5,-186.6,-129.65));
#1883=CARTESIAN_POINT('',(-167.447441116742,-156.6,-140.65));
#1884=CARTESIAN_POINT('',(-167.447441116742,-151.85,-140.65));
#1885=CARTESIAN_POINT('',(-164.5,-156.6,-129.65));
#1886=CARTESIAN_POINT('Origin',(-186.5,-156.6,-129.65));
#1887=CARTESIAN_POINT('',(-164.5,-151.85,-129.65));
#1888=CARTESIAN_POINT('Origin',(-220.25,-151.85,-112.65));
#1889=CARTESIAN_POINT('',(-208.5,-156.6,-112.65));
#1890=CARTESIAN_POINT('',(-210.5,-156.6,-112.65));
#1891=CARTESIAN_POINT('',(-191.375,-156.6,-112.65));
#1892=CARTESIAN_POINT('',(-208.5,-126.6,-112.65));
#1893=CARTESIAN_POINT('',(-208.5,-168.475,-112.65));
#1894=CARTESIAN_POINT('',(-232.,-126.6,-112.65));
#1895=CARTESIAN_POINT('',(-208.5,-126.6,-112.65));
#1896=CARTESIAN_POINT('',(-232.,-177.1,-112.65));
#1897=CARTESIAN_POINT('',(-232.,-126.6,-112.65));
#1898=CARTESIAN_POINT('',(-210.5,-177.1,-112.65));
#1899=CARTESIAN_POINT('',(-232.,-177.1,-112.65));
#1900=CARTESIAN_POINT('',(-210.5,-161.725,-112.65));
#1901=CARTESIAN_POINT('Origin',(-232.,-126.6,-103.65));
#1902=CARTESIAN_POINT('',(-232.,-126.6,-103.65));
#1903=CARTESIAN_POINT('',(-208.5,-126.6,-103.65));
#1904=CARTESIAN_POINT('',(-225.375,-126.6,-103.65));
#1905=CARTESIAN_POINT('',(-232.,-126.6,-103.65));
#1906=CARTESIAN_POINT('',(-208.5,-126.6,-103.15));
#1907=CARTESIAN_POINT('Origin',(-232.,-177.1,-103.65));
#1908=CARTESIAN_POINT('',(-232.,-177.1,-103.65));
#1909=CARTESIAN_POINT('',(-232.,-164.475,-103.65));
#1910=CARTESIAN_POINT('',(-232.,-177.1,-103.65));
#1911=CARTESIAN_POINT('Origin',(-208.5,-177.1,-103.65));
#1912=CARTESIAN_POINT('',(-210.5,-177.1,-109.65));
#1913=CARTESIAN_POINT('',(-208.5,-177.1,-109.65));
#1914=CARTESIAN_POINT('',(-185.5,-177.1,-109.65));
#1915=CARTESIAN_POINT('',(-210.5,-177.1,-114.4));
#1916=CARTESIAN_POINT('',(-208.5,-177.1,-103.65));
#1917=CARTESIAN_POINT('',(-213.625,-177.1,-103.65));
#1918=CARTESIAN_POINT('',(-208.5,-177.1,-103.15));
#1919=CARTESIAN_POINT('Origin',(-208.5,-185.1,-102.65));
#1920=CARTESIAN_POINT('',(-208.5,-189.1,-103.65));
#1921=CARTESIAN_POINT('',(-208.5,-189.1,-103.65));
#1922=CARTESIAN_POINT('',(-208.5,-189.1,-127.13));
#1923=CARTESIAN_POINT('',(-208.5,-186.6,-109.65));
#1924=CARTESIAN_POINT('',(-208.5,-186.6,-121.65));
#1925=CARTESIAN_POINT('',(-208.5,-185.85,-109.65));
#1926=CARTESIAN_POINT('Origin',(-208.5,-185.1,-102.65));
#1927=CARTESIAN_POINT('',(-208.5,-156.6,-106.15));
#1928=CARTESIAN_POINT('',(-208.5,-189.1,-103.65));
#1929=CARTESIAN_POINT('Origin',(-162.5,-156.6,-109.65));
#1930=CARTESIAN_POINT('',(-210.5,-156.6,-116.));
#1931=CARTESIAN_POINT('',(-210.5,-156.6,-117.4));
#1932=CARTESIAN_POINT('',(-210.5,-156.6,-129.65));
#1933=CARTESIAN_POINT('',(-210.5,-156.6,-106.15));
#1934=CARTESIAN_POINT('',(-207.830729007702,-156.6,-140.65));
#1935=CARTESIAN_POINT('Origin',(-186.5,-156.6,-129.65));
#1936=CARTESIAN_POINT('',(-162.5,-156.6,-140.65));
#1937=CARTESIAN_POINT('Origin',(-210.5,-171.6,-125.15));
#1938=CARTESIAN_POINT('',(-210.5,-186.6,-109.65));
#1939=CARTESIAN_POINT('',(-210.5,-179.1,-109.65));
#1940=CARTESIAN_POINT('',(-210.5,-186.6,-116.));
#1941=CARTESIAN_POINT('',(-210.5,-186.6,-132.9));
#1942=CARTESIAN_POINT('',(-210.5,-151.85,-116.));
#1943=CARTESIAN_POINT('Origin',(-162.5,-156.6,-109.65));
#1944=CARTESIAN_POINT('',(-165.169270992298,-156.6,-140.65));
#1945=CARTESIAN_POINT('',(-162.5,-156.6,-140.65));
#1946=CARTESIAN_POINT('',(-162.5,-156.6,-129.65));
#1947=CARTESIAN_POINT('Origin',(-186.5,-156.6,-129.65));
#1948=CARTESIAN_POINT('',(-162.5,-156.6,-109.65));
#1949=CARTESIAN_POINT('',(-162.5,-156.6,-106.15));
#1950=CARTESIAN_POINT('',(-164.5,-156.6,-109.65));
#1951=CARTESIAN_POINT('',(-162.5,-156.6,-109.65));
#1952=CARTESIAN_POINT('',(-164.5,-156.6,-106.15));
#1953=CARTESIAN_POINT('Origin',(-162.5,-186.6,-109.65));
#1954=CARTESIAN_POINT('',(-162.5,-186.6,-109.65));
#1955=CARTESIAN_POINT('Origin',(-162.5,-186.6,-140.65));
#1956=CARTESIAN_POINT('',(-210.5,-186.6,-129.65));
#1957=CARTESIAN_POINT('',(-207.830729007702,-186.6,-140.65));
#1958=CARTESIAN_POINT('Origin',(-186.5,-186.6,-129.65));
#1959=CARTESIAN_POINT('',(-210.5,-186.6,-121.65));
#1960=CARTESIAN_POINT('',(-162.5,-186.6,-140.65));
#1961=CARTESIAN_POINT('Origin',(-162.5,-156.6,-140.65));
#1962=CARTESIAN_POINT('',(-207.830729007702,-151.85,-140.65));
#1963=CARTESIAN_POINT('Origin',(-162.5,-156.6,-140.65));
#1964=CARTESIAN_POINT('',(-165.169270992298,-186.6,-140.65));
#1965=CARTESIAN_POINT('',(-162.5,-186.6,-140.65));
#1966=CARTESIAN_POINT('',(-165.169270992298,-151.85,-140.65));
#1967=CARTESIAN_POINT('Origin',(-162.5,-186.6,-109.65));
#1968=CARTESIAN_POINT('',(-164.5,-186.6,-109.65));
#1969=CARTESIAN_POINT('',(-164.5,-185.85,-109.65));
#1970=CARTESIAN_POINT('',(-162.5,-186.6,-109.65));
#1971=CARTESIAN_POINT('',(-162.5,-185.85,-109.65));
#1972=CARTESIAN_POINT('',(-162.5,-186.6,-109.65));
#1973=CARTESIAN_POINT('Origin',(-162.5,-186.6,-140.65));
#1974=CARTESIAN_POINT('',(-164.5,-186.6,-121.65));
#1975=CARTESIAN_POINT('',(-162.5,-186.6,-129.65));
#1976=CARTESIAN_POINT('',(-162.5,-186.6,-121.65));
#1977=CARTESIAN_POINT('Origin',(-186.5,-186.6,-129.65));
#1978=CARTESIAN_POINT('Origin',(-186.5,-151.85,-129.65));
#1979=CARTESIAN_POINT('',(-162.5,-151.85,-129.65));
#1980=CARTESIAN_POINT('',(-162.5,-191.1,-129.65));
#1981=CARTESIAN_POINT('',(-162.5,-151.85,-129.65));
#1982=CARTESIAN_POINT('',(-210.5,-191.1,-129.65));
#1983=CARTESIAN_POINT('Origin',(-186.5,-191.1,-129.65));
#1984=CARTESIAN_POINT('',(-210.5,-151.85,-129.65));
#1985=CARTESIAN_POINT('',(-210.5,-151.85,-129.65));
#1986=CARTESIAN_POINT('Origin',(-210.5,-185.1,-102.65));
#1987=CARTESIAN_POINT('',(-210.5,-191.1,-116.));
#1988=CARTESIAN_POINT('',(-210.5,-191.1,-122.825));
#1989=CARTESIAN_POINT('',(-210.5,-151.85,-116.));
#1990=CARTESIAN_POINT('Origin',(-225.,-182.1,-113.));
#1991=CARTESIAN_POINT('',(-225.,-177.6,-113.));
#1992=CARTESIAN_POINT('',(-225.,-186.6,-113.));
#1993=CARTESIAN_POINT('Origin',(-225.,-182.1,-113.));
#1994=CARTESIAN_POINT('',(-225.,-177.6,-110.));
#1995=CARTESIAN_POINT('',(-225.,-177.6,-113.));
#1996=CARTESIAN_POINT('',(-225.,-186.6,-110.));
#1997=CARTESIAN_POINT('Origin',(-225.,-182.1,-110.));
#1998=CARTESIAN_POINT('',(-225.,-186.6,-113.));
#1999=CARTESIAN_POINT('Origin',(-220.,-177.6,-113.));
#2000=CARTESIAN_POINT('',(-220.,-177.6,-113.));
#2001=CARTESIAN_POINT('',(-224.5,-177.6,-113.));
#2002=CARTESIAN_POINT('',(-220.,-177.6,-110.));
#2003=CARTESIAN_POINT('',(-220.,-177.6,-113.));
#2004=CARTESIAN_POINT('',(-225.,-177.6,-110.));
#2005=CARTESIAN_POINT('Origin',(-220.,-182.1,-113.));
#2006=CARTESIAN_POINT('',(-220.,-186.6,-113.));
#2007=CARTESIAN_POINT('Origin',(-220.,-182.1,-113.));
#2008=CARTESIAN_POINT('',(-220.,-186.6,-110.));
#2009=CARTESIAN_POINT('',(-220.,-186.6,-113.));
#2010=CARTESIAN_POINT('Origin',(-220.,-182.1,-110.));
#2011=CARTESIAN_POINT('Origin',(-225.,-186.6,-113.));
#2012=CARTESIAN_POINT('',(-227.,-186.6,-113.));
#2013=CARTESIAN_POINT('',(-220.,-186.6,-110.));
#2014=CARTESIAN_POINT('Origin',(-222.5,-182.1,-110.));
#2015=CARTESIAN_POINT('',(-225.,-185.1,-110.));
#2016=CARTESIAN_POINT('',(-225.,-179.1,-110.));
#2017=CARTESIAN_POINT('Origin',(-225.,-182.1,-110.));
#2018=CARTESIAN_POINT('',(-220.,-185.1,-110.));
#2019=CARTESIAN_POINT('',(-223.75,-185.1,-110.));
#2020=CARTESIAN_POINT('',(-220.,-179.1,-110.));
#2021=CARTESIAN_POINT('Origin',(-220.,-182.1,-110.));
#2022=CARTESIAN_POINT('',(-221.25,-179.1,-110.));
#2023=CARTESIAN_POINT('Origin',(-220.,-121.6,-113.));
#2024=CARTESIAN_POINT('',(-220.,-126.1,-113.));
#2025=CARTESIAN_POINT('',(-220.,-117.1,-113.));
#2026=CARTESIAN_POINT('Origin',(-220.,-121.6,-113.));
#2027=CARTESIAN_POINT('',(-220.,-126.1,-110.));
#2028=CARTESIAN_POINT('',(-220.,-126.1,-113.));
#2029=CARTESIAN_POINT('',(-220.,-117.1,-110.));
#2030=CARTESIAN_POINT('Origin',(-220.,-121.6,-110.));
#2031=CARTESIAN_POINT('',(-220.,-117.1,-113.));
#2032=CARTESIAN_POINT('Origin',(-225.,-126.1,-113.));
#2033=CARTESIAN_POINT('',(-225.,-126.1,-113.));
#2034=CARTESIAN_POINT('',(-227.,-126.1,-113.));
#2035=CARTESIAN_POINT('',(-225.,-126.1,-110.));
#2036=CARTESIAN_POINT('',(-225.,-126.1,-113.));
#2037=CARTESIAN_POINT('',(-220.,-126.1,-110.));
#2038=CARTESIAN_POINT('Origin',(-225.,-121.6,-113.));
#2039=CARTESIAN_POINT('',(-225.,-117.1,-113.));
#2040=CARTESIAN_POINT('Origin',(-225.,-121.6,-113.));
#2041=CARTESIAN_POINT('',(-225.,-117.1,-110.));
#2042=CARTESIAN_POINT('',(-225.,-117.1,-113.));
#2043=CARTESIAN_POINT('Origin',(-225.,-121.6,-110.));
#2044=CARTESIAN_POINT('Origin',(-220.,-117.1,-113.));
#2045=CARTESIAN_POINT('',(-224.5,-117.1,-113.));
#2046=CARTESIAN_POINT('',(-225.,-117.1,-110.));
#2047=CARTESIAN_POINT('Origin',(-222.5,-121.6,-110.));
#2048=CARTESIAN_POINT('',(-220.,-124.6,-110.));
#2049=CARTESIAN_POINT('',(-225.,-124.6,-110.));
#2050=CARTESIAN_POINT('',(-223.75,-124.6,-110.));
#2051=CARTESIAN_POINT('',(-220.,-118.6,-110.));
#2052=CARTESIAN_POINT('Origin',(-220.,-121.6,-110.));
#2053=CARTESIAN_POINT('',(-225.,-118.6,-110.));
#2054=CARTESIAN_POINT('',(-221.25,-118.6,-110.));
#2055=CARTESIAN_POINT('Origin',(-225.,-121.6,-110.));
#2056=CARTESIAN_POINT('Origin',(-220.,-182.1,-113.));
#2057=CARTESIAN_POINT('',(-220.,-185.1,-103.65));
#2058=CARTESIAN_POINT('',(-220.,-185.1,-113.));
#2059=CARTESIAN_POINT('',(-220.,-179.1,-103.65));
#2060=CARTESIAN_POINT('Origin',(-220.,-182.1,-103.65));
#2061=CARTESIAN_POINT('',(-220.,-179.1,-113.));
#2062=CARTESIAN_POINT('Origin',(-225.,-185.1,-113.));
#2063=CARTESIAN_POINT('',(-225.,-185.1,-103.65));
#2064=CARTESIAN_POINT('',(-225.,-185.1,-113.));
#2065=CARTESIAN_POINT('',(-221.875,-185.1,-103.65));
#2066=CARTESIAN_POINT('Origin',(-220.,-121.6,-113.));
#2067=CARTESIAN_POINT('',(-220.,-124.6,-103.65));
#2068=CARTESIAN_POINT('',(-220.,-124.6,-113.));
#2069=CARTESIAN_POINT('',(-220.,-118.6,-103.65));
#2070=CARTESIAN_POINT('Origin',(-220.,-121.6,-103.65));
#2071=CARTESIAN_POINT('',(-220.,-118.6,-113.));
#2072=CARTESIAN_POINT('Origin',(-225.,-124.6,-113.));
#2073=CARTESIAN_POINT('',(-225.,-124.6,-103.65));
#2074=CARTESIAN_POINT('',(-225.,-124.6,-113.));
#2075=CARTESIAN_POINT('',(-221.875,-124.6,-103.65));
#2076=CARTESIAN_POINT('Origin',(-225.,-182.1,-113.));
#2077=CARTESIAN_POINT('',(-225.,-179.1,-103.65));
#2078=CARTESIAN_POINT('',(-225.,-179.1,-113.));
#2079=CARTESIAN_POINT('Origin',(-225.,-182.1,-103.65));
#2080=CARTESIAN_POINT('Origin',(-220.,-179.1,-113.));
#2081=CARTESIAN_POINT('',(-219.375,-179.1,-103.65));
#2082=CARTESIAN_POINT('Origin',(-220.,-118.6,-113.));
#2083=CARTESIAN_POINT('',(-225.,-118.6,-103.65));
#2084=CARTESIAN_POINT('',(-219.375,-118.6,-103.65));
#2085=CARTESIAN_POINT('',(-225.,-118.6,-113.));
#2086=CARTESIAN_POINT('Origin',(-225.,-121.6,-113.));
#2087=CARTESIAN_POINT('Origin',(-225.,-121.6,-103.65));
#2088=CARTESIAN_POINT('Origin',(-224.5,-182.1,-113.));
#2089=CARTESIAN_POINT('',(-224.5,-191.1,-103.65));
#2090=CARTESIAN_POINT('',(-233.5,-182.1,-103.65));
#2091=CARTESIAN_POINT('Origin',(-224.5,-182.1,-103.65));
#2092=CARTESIAN_POINT('',(-233.5,-182.1,-113.));
#2093=CARTESIAN_POINT('',(-233.5,-182.1,-113.));
#2094=CARTESIAN_POINT('',(-224.5,-191.1,-113.));
#2095=CARTESIAN_POINT('Origin',(-224.5,-182.1,-113.));
#2096=CARTESIAN_POINT('',(-224.5,-191.1,-113.));
#2097=CARTESIAN_POINT('Origin',(-233.5,-121.6,-113.));
#2098=CARTESIAN_POINT('',(-233.5,-121.6,-103.65));
#2099=CARTESIAN_POINT('',(-233.5,-136.725,-103.65));
#2100=CARTESIAN_POINT('',(-233.5,-121.6,-113.));
#2101=CARTESIAN_POINT('',(-233.5,-121.6,-113.));
#2102=CARTESIAN_POINT('',(-233.5,-182.1,-113.));
#2103=CARTESIAN_POINT('Origin',(-224.5,-121.6,-113.));
#2104=CARTESIAN_POINT('Origin',(-224.5,-121.6,-103.65));
#2105=CARTESIAN_POINT('Origin',(-224.5,-121.6,-113.));
#2106=CARTESIAN_POINT('Origin',(-218.75,-151.85,-103.65));
#2107=CARTESIAN_POINT('',(-164.5,-189.1,-103.65));
#2108=CARTESIAN_POINT('',(-164.5,-148.85,-103.65));
#2109=CARTESIAN_POINT('',(-104.569456528262,-189.1,-103.65));
#2110=CARTESIAN_POINT('',(-225.625,-191.1,-103.65));
#2111=CARTESIAN_POINT('',(-157.,-185.1,-103.65));
#2112=CARTESIAN_POINT('Origin',(-154.5,-185.1,-103.65));
#2113=CARTESIAN_POINT('',(-157.,-118.6,-103.65));
#2114=CARTESIAN_POINT('Origin',(-154.5,-118.6,-103.65));
#2115=CARTESIAN_POINT('Origin',(-154.5,-118.6,-104.65));
#2116=CARTESIAN_POINT('',(-157.,-118.6,-105.65));
#2117=CARTESIAN_POINT('',(-157.,-118.6,-104.65));
#2118=CARTESIAN_POINT('Origin',(-154.5,-118.6,-105.65));
#2119=CARTESIAN_POINT('Origin',(-164.5,-191.1,-105.65));
#2120=CARTESIAN_POINT('',(-159.5,-191.1,-105.65));
#2121=CARTESIAN_POINT('',(-159.5,-151.85,-105.65));
#2122=CARTESIAN_POINT('',(-155.5,-191.1,-105.65));
#2123=CARTESIAN_POINT('',(-157.,-185.1,-105.65));
#2124=CARTESIAN_POINT('Origin',(-154.5,-185.1,-105.65));
#2125=CARTESIAN_POINT('Origin',(4.49927934799E-32,-191.1,-2.76869213509E-14));
#2126=CARTESIAN_POINT('',(-213.5,-191.1,-113.));
#2127=CARTESIAN_POINT('',(-216.75,-191.1,-113.));
#2128=CARTESIAN_POINT('',(-212.,-191.1,-114.5));
#2129=CARTESIAN_POINT('',(-162.5,-191.1,-108.65));
#2130=CARTESIAN_POINT('',(-162.5,-191.1,-119.15));
#2131=CARTESIAN_POINT('',(-161.,-191.1,-107.15));
#2132=CARTESIAN_POINT('Origin',(-159.5,-151.85,-105.65));
#2133=CARTESIAN_POINT('',(-162.5,-151.85,-108.65));
#2134=CARTESIAN_POINT('Origin',(-154.5,-185.1,-104.65));
#2135=CARTESIAN_POINT('',(-157.,-185.1,-104.65));
#2136=CARTESIAN_POINT('Origin',(5.99903913065E-32,-189.1,-2.74419919911E-14));
#2137=CARTESIAN_POINT('',(-164.5,-189.1,-127.13));
#2138=CARTESIAN_POINT('Origin',(-164.5,-185.1,-102.65));
#2139=CARTESIAN_POINT('Origin',(-162.5,-185.1,-102.65));
#2140=CARTESIAN_POINT('Origin',(-210.5,-185.1,-102.65));
#2141=CARTESIAN_POINT('',(-210.5,-151.85,-116.));
#2142=CARTESIAN_POINT('Origin',(-210.5,-151.85,-116.));
#2143=CARTESIAN_POINT('',(-213.5,-151.85,-113.));
#2144=CARTESIAN_POINT('Origin',(-229.,-191.1,-113.));
#2145=UNCERTAINTY_MEASURE_WITH_UNIT(LENGTH_MEASURE(0.01),#2149,
'DISTANCE_ACCURACY_VALUE',
'Maximum model space distance between geometric entities at asserted c
onnectivities');
#2146=UNCERTAINTY_MEASURE_WITH_UNIT(LENGTH_MEASURE(0.01),#2149,
'DISTANCE_ACCURACY_VALUE',
'Maximum model space distance between geometric entities at asserted c
onnectivities');
#2147=(
GEOMETRIC_REPRESENTATION_CONTEXT(3)
GLOBAL_UNCERTAINTY_ASSIGNED_CONTEXT((#2145))
GLOBAL_UNIT_ASSIGNED_CONTEXT((#2149,#2151,#2152))
REPRESENTATION_CONTEXT('','3D')
);
#2148=(
GEOMETRIC_REPRESENTATION_CONTEXT(3)
GLOBAL_UNCERTAINTY_ASSIGNED_CONTEXT((#2146))
GLOBAL_UNIT_ASSIGNED_CONTEXT((#2149,#2151,#2152))
REPRESENTATION_CONTEXT('','3D')
);
#2149=(
LENGTH_UNIT()
NAMED_UNIT(*)
SI_UNIT(.MILLI.,.METRE.)
);
#2150=(
LENGTH_UNIT()
NAMED_UNIT(*)
SI_UNIT(.CENTI.,.METRE.)
);
#2151=(
NAMED_UNIT(*)
PLANE_ANGLE_UNIT()
SI_UNIT($,.RADIAN.)
);
#2152=(
NAMED_UNIT(*)
SI_UNIT($,.STERADIAN.)
SOLID_ANGLE_UNIT()
);
#2153=SHAPE_DEFINITION_REPRESENTATION(#2154,#2155);
#2154=PRODUCT_DEFINITION_SHAPE('',$,#2157);
#2155=SHAPE_REPRESENTATION('',(#1327),#2147);
#2156=PRODUCT_DEFINITION_CONTEXT('part definition',#2161,'design');
#2157=PRODUCT_DEFINITION('Motor_Cover_RH_V3','Motor_Cover_RH_V3',#2158,
#2156);
#2158=PRODUCT_DEFINITION_FORMATION('',$,#2163);
#2159=PRODUCT_RELATED_PRODUCT_CATEGORY('Motor_Cover_RH_V3',
'Motor_Cover_RH_V3',(#2163));
#2160=APPLICATION_PROTOCOL_DEFINITION('international standard',
'automotive_design',2009,#2161);
#2161=APPLICATION_CONTEXT(
'Core Data for Automotive Mechanical Design Process');
#2162=PRODUCT_CONTEXT('part definition',#2161,'mechanical');
#2163=PRODUCT('Motor_Cover_RH_V3','Motor_Cover_RH_V3',$,(#2162));
#2164=PRESENTATION_STYLE_ASSIGNMENT((#2166));
#2165=PRESENTATION_STYLE_ASSIGNMENT((#2167));
#2166=SURFACE_STYLE_USAGE(.BOTH.,#2172);
#2167=SURFACE_STYLE_USAGE(.BOTH.,#2173);
#2168=SURFACE_STYLE_RENDERING_WITH_PROPERTIES($,#2180,(#2170));
#2169=SURFACE_STYLE_RENDERING_WITH_PROPERTIES($,#2181,(#2171));
#2170=SURFACE_STYLE_TRANSPARENT(0.);
#2171=SURFACE_STYLE_TRANSPARENT(0.);
#2172=SURFACE_SIDE_STYLE('',(#2174,#2168));
#2173=SURFACE_SIDE_STYLE('',(#2175,#2169));
#2174=SURFACE_STYLE_FILL_AREA(#2176);
#2175=SURFACE_STYLE_FILL_AREA(#2177);
#2176=FILL_AREA_STYLE('',(#2178));
#2177=FILL_AREA_STYLE('',(#2179));
#2178=FILL_AREA_STYLE_COLOUR('',#2180);
#2179=FILL_AREA_STYLE_COLOUR('',#2181);
#2180=COLOUR_RGB('',0.749019607843137,0.749019607843137,0.749019607843137);
#2181=COLOUR_RGB('',1.,0.501960784313725,0.501960784313725);
ENDSEC;
END-ISO-10303-21;
